<?xml version="1.0" encoding="utf-8"?>
<!-- Generator: Adobe Illustrator 22.0.0, SVG Export Plug-In . SVG Version: 6.00 Build 0)  -->
<svg version="1.1" width="24px" height="24px" id="Layer_1" xmlns="http://www.w3.org/2000/svg" xmlns:xlink="http://www.w3.org/1999/xlink" x="0px" y="0px"
	 viewBox="0 0 25 24" style="enable-background:new 0 0 25 24;" xml:space="preserve">
<style type="text/css">
	.st0{fill:#FFFFFF;}
</style>
<title>Dribbble@2x</title>
<desc>Created with Sketch.</desc>
<g id="Page-1">
	<g id="Dribbble">
		<g id="dribble" transform="translate(0.313253, 0.000000)">
			<path id="Shape" style="fill: #000000" class="st0" d="M22.8,6c-1.1-1.8-2.6-3.3-4.4-4.4C16.5,0.5,14.4,0,12.2,0C10,0,8,0.5,6.1,1.6
				C4.2,2.7,2.7,4.1,1.6,6C0.5,7.8,0,9.8,0,12c0,2.2,0.5,4.2,1.6,6c1.1,1.8,2.6,3.3,4.4,4.4C8,23.4,10,24,12.2,24s4.3-0.5,6.1-1.6
				c1.9-1.1,3.4-2.5,4.4-4.4c1.1-1.8,1.6-3.8,1.6-6C24.4,9.8,23.9,7.8,22.8,6z M12.2,1.7c2.6,0,4.9,0.9,6.9,2.6l-0.2,0.3
				c-0.1,0.1-0.3,0.3-0.6,0.6c-0.3,0.3-0.7,0.6-1,0.9c-0.4,0.3-0.9,0.6-1.5,1c-0.6,0.4-1.3,0.7-2.1,0.9c-1.2-2.2-2.5-4.2-3.9-6
				C10.6,1.8,11.4,1.7,12.2,1.7z M4,5.6c1-1.3,2.3-2.2,3.7-2.9c1.3,1.7,2.6,3.7,3.9,5.9C8.4,9.5,5.2,9.9,2,9.9C2.3,8.3,3,6.9,4,5.6z
				 M2.5,15.7C2,14.5,1.8,13.3,1.8,12c0-0.1,0-0.3,0-0.3c3.8,0,7.4-0.5,10.7-1.5c0.3,0.6,0.6,1.2,0.8,1.7c0,0-0.1,0-0.2,0.1
				c-0.1,0-0.2,0-0.2,0.1l-0.6,0.2c-0.4,0.1-0.9,0.4-1.6,0.7c-0.7,0.4-1.3,0.8-2.1,1.3c-0.7,0.5-1.5,1.1-2.3,1.9
				c-0.8,0.8-1.4,1.7-2,2.6C3.6,17.9,2.9,16.8,2.5,15.7z M12.2,22.2c-2.5,0-4.7-0.8-6.7-2.3l0.2,0.2c0.4-0.8,0.9-1.6,1.6-2.3
				C8.2,17,8.9,16.4,9.5,16c0.7-0.5,1.4-0.9,2.2-1.3c0.8-0.4,1.3-0.7,1.6-0.8c0.3-0.1,0.5-0.2,0.7-0.3l0,0h0c1,2.7,1.8,5.3,2.2,7.8
				C15,22,13.6,22.2,12.2,22.2z M21,17.5c-0.8,1.2-1.8,2.2-2.9,3c-0.4-2.4-1.1-4.8-2-7.3c2.1-0.3,4.3-0.2,6.5,0.5
				C22.3,15,21.8,16.3,21,17.5z M22.5,11.8c-0.1,0-0.2,0-0.4-0.1s-0.4-0.1-0.6-0.1c-0.2,0-0.5-0.1-0.8-0.1c-0.3,0-0.6-0.1-0.9-0.1
				c-0.3,0-0.7,0-1-0.1c-0.4,0-0.7,0-1.1,0c-0.4,0-0.8,0-1.2,0c-0.4,0-0.8,0.1-1.2,0.1c0-0.1-0.1-0.1-0.1-0.3c0-0.1-0.1-0.2-0.1-0.3
				c-0.2-0.4-0.4-0.9-0.7-1.5c0.7-0.3,1.4-0.6,2.1-1c0.7-0.4,1.2-0.7,1.6-1c0.4-0.3,0.8-0.6,1.1-0.9C19.6,6.2,19.9,6,20,5.9
				c0.1-0.1,0.2-0.3,0.3-0.4l0,0c1.5,1.9,2.3,4,2.4,6.4L22.5,11.8z"/>
		</g>
	</g>
</g>
</svg>
