<?xml version="1.0" encoding="utf-8"?>
<!-- Generator: Adobe Illustrator 24.0.1, SVG Export Plug-In . SVG Version: 6.00 Build 0)  -->
<svg version="1.1" id="Layer_1" xmlns="http://www.w3.org/2000/svg" xmlns:xlink="http://www.w3.org/1999/xlink" x="0px" y="0px"
	 viewBox="0 0 200.52 111.46" style="enable-background:new 0 0 200.52 111.46;" xml:space="preserve">
<style type="text/css">
	.st0{fill:none;}
</style>
<g>
	<polygon points="150.63,109.46 96.42,64.04 40.24,109.46 	"/>
	<path d="M52.79,91.52c4.1-3.42,4.81-7.65,4.81-11.45V64.11H35.31v21.66c0,3.09-2.51,5.61-5.61,5.61s-5.39-2.51-5.39-5.61V24.4
		c0-3.1,2.3-5.61,5.39-5.61c3.1,0,5.61,2.51,5.61,5.61v21.8h22.26V23.6c0-12.49-8.16-22.78-28.05-22.8
		C9.09,0.79,1.38,11.12,1.37,23.61v64.07c0,12.39,9.83,21.76,22.4,21.75h6.9L52.79,91.52z"/>
	<polygon points="140.66,94.04 140.66,23.63 125.28,23.63 125.28,2.89 180.95,2.89 180.95,23.63 165.49,23.63 165.49,109.31 
		158.9,109.31 	"/>
	<path d="M111.89,3.01H80.83L62.74,84.18l33.69-27.19l35.13,29.43L111.89,3.01z M90.43,51.79l6.01-30.68l5.97,30.68H90.43z"/>
	<path d="M199.52,8.23c0,3.27-2.6,5.9-5.85,5.9c-3.26,0-5.89-2.63-5.89-5.9c0-3.26,2.62-5.86,5.89-5.86
		C196.92,2.37,199.52,4.97,199.52,8.23 M198.42,8.23c0-2.63-2.15-4.76-4.75-4.76c-2.65,0-4.78,2.13-4.78,4.76
		c0,2.64,2.13,4.8,4.78,4.8C196.27,13.03,198.42,10.87,198.42,8.23 M192.93,11.62h-1.55V4.8h2.86c1.06,0,1.74,0.63,1.74,1.8
		c0,0.87-0.37,1.51-1.37,1.67V8.3c0.33,0.02,1.34,0.09,1.34,1.32c0,0.44,0.04,1.72,0.17,2h-1.51c-0.21-0.41-0.21-0.87-0.21-1.32
		c0-0.8,0.12-1.5-1.07-1.5h-0.4V11.62z M192.93,7.84h0.69c0.62,0,0.8-0.57,0.8-1.01c0-0.65-0.31-0.9-0.8-0.9h-0.69V7.84z"/>
	<rect x="1.37" y="0.79" class="st0" width="198.15" height="108.67"/>
</g>
</svg>
