<?xml version="1.0" encoding="utf-8"?>
<!-- Generator: Adobe Illustrator 24.0.1, SVG Export Plug-In . SVG Version: 6.00 Build 0)  -->
<svg version="1.1" id="Layer_1" xmlns="http://www.w3.org/2000/svg" xmlns:xlink="http://www.w3.org/1999/xlink" x="0px" y="0px"
	 viewBox="0 0 839.76 807.01" style="enable-background:new 0 0 839.76 807.01;" xml:space="preserve">
<style type="text/css">
	.st0{fill:#1F1E1C;}
	.st1{fill:#FEFEFE;}
	.st2{fill:#FCCD2F;}
</style>
<path class="st0" d="M592.95,39.59c4.4-2.1,8.94-3.37,13.92-2.85c9.74,1.02,16.03,7.26,17.68,17.86c0.28,1.8,0.31,3.63,0.45,5.45
	c-1.85,14.29-9.02,25.28-20.9,33.19c1.76,1.97,3.63,3.52,4.78,5.48c1.79,3.05,3.29,4.07,6.73,1.75c3.62-2.45,7.69-2,10.91,1.32
	c3.37,3.47,3.23,7.5,1.17,11.52c-1.66,3.23-4.33,5.57-7.83,6.54c-2.53,0.7-3.25,1.88-3.3,4.52c-0.16,8.89-2.97,17.03-8.58,23.95
	c-1.81,2.23-1.65,3.98-0.74,6.28c3.3,8.33,6.61,16.67,9.67,25.09c1,2.75,2.2,3.32,5.1,2.78c30-5.63,59.86-4.44,89.62,2.03
	c17.79,3.87,34.64,10.33,51.23,17.63c13.99,7.68,27.83,15.58,39.77,26.38c7.7,6.96,14.61,14.54,19.68,23.68
	c8.63,15.58,7.6,31.21,0.29,46.88c-1.19,2.55-2.46,5.05-3.7,7.58c-2.88,4.27-5.68,8.59-8.65,12.8
	c-14.84,21.04-32.9,39.3-50.13,58.29c-2.64,2.91-4.81,3.64-7.88,1.12c-3.1-2.55-5.38-2.07-6.72,1.93
	c10.73,2.04,21.39,3.81,31.92,6.15c10.7,2.38,21.46,4.95,30.73,11.23c7.15,4.85,6.98,10.56-0.27,15.34
	c-4.63,3.05-9.83,4.85-15.13,6.31c-26.49,7.28-53.68,9.49-80.95,10.95c-35.79,1.91-71.58,1.52-107.36-0.78
	c-27.43-1.76-54.72-4.51-81.66-10.14c-10.75-2.25-21.44-4.81-31.31-9.84c-4.31-2.2-9.27-4.58-9.25-10.13c0.03-5.86,5.3-8,9.82-10.15
	c5.88-2.8,12.14-4.51,18.47-5.94c10.4-2.34,20.9-4.07,31.47-5.36c1.44-0.18,4.43,0.73,3.36-3.08c-3.91-13.94-6.8-28.12-9.24-42.38
	c-0.43-2.53-1.63-2.83-3.71-2.69c-9.33,0.62-18.66,0.13-27.96-0.47c-21.52-1.4-42.68-4.61-62.4-14.03
	c-9.68-4.62-18.51-10.49-26.07-18.19c-18.16-18.46-21.32-41.53-8.51-63.94c8.35-14.61,19.95-26.61,31.6-38.52
	c10.49-10.73,20.66-21.72,29.21-34.11c3.5-5.08,6.54-10.42,9.01-16.08c0.43-0.99,1.97-2.61-0.43-3.04
	c-6.85-1.22-6.27-6.58-6.09-11.28c0.14-3.56-0.6-5.04-4.35-6.04c-33.99-9.06-65.07-24.15-92.84-45.86
	c-21.33-16.67-44.36-30.6-68.73-42.3c-10.93-5.24-21.91-10.42-33.63-13.72c-0.57-0.3-1.11-0.68-1.72-0.89
	c-26.45-9.29-53.56-14.74-81.71-12.72c-31.24,2.24-58.36,13.92-79.67,37.36c-14.08,15.49-20.96,33.8-16.33,54.67
	c7.41,33.33,29.96,53.71,60.05,67.03c1.35,0.62,2.66,1.31,4.04,1.84c25.1,9.75,51.01,7.65,76.94,5.26c3.76-0.35,2.04-2.44,1.36-4.14
	c-5.5-13.82-9.51-27.97-10.78-42.89c-2.25-26.28,9.17-48.21,31.63-56.72c28.03-10.62,55.49-7.78,80.69,8.51
	c20.76,13.42,23.57,35.38,8.07,54.62c-11.37,14.12-27,21.87-43.44,28.19c-19.32,7.42-39.48,11.54-59.9,14.38
	c0,0.52-0.09,0.88,0.02,1.16c0.43,1.08,0.91,2.14,1.41,3.19c15.57,32.51,37.17,60.22,65.56,82.57c2.4,1.89,3.5,1.15,5.26-0.55
	c8.34-8.1,18.31-12.01,29.97-10.73c7.12,0.78,13.41,3.55,16.28,10.64c2.85,7.04,1.34,13.74-3.27,19.72
	c-2.58,3.34-5.89,5.83-9.51,7.98c-1.02,0.61-2.72,0.51-2.92,2.41c0.97,0.82,1.98,1.67,3,2.52c28.78,24.12,56.08,49.6,78.54,80.02
	c17.51,23.71,40.68,40.42,68.24,51.06c27.06,10.45,55.39,13.75,84.03,15.67c25.89,1.73,51.14,6.56,75.03,17.04
	c32.58,14.29,55.69,36.6,61.31,73.45c0.9,5.91,1.8,11.83,2.79,18.33c4.62-5.1,8.83-9.36,13.61-13.01c4.77-3.65,9.83-6.87,15.33-9.3
	c19.76-8.72,38.76-8.77,56.26,5.43c9,7.3,14.8,16.99,19.38,27.48c5.16,11.83,7.25,24.46,9.87,36.96c1.26,15.95,2.06,31.9,1.25,47.9
	c-1.39,27.45-5.51,54.32-18.29,79.08c-9.96,19.3-24.05,34.44-45.66,40.55c-30.85,8.72-64.12-2.9-75.14-41.21
	c-0.27-0.95-0.69-1.87-1.04-2.8c-3.62-17.87-2.55-35.5,3.53-52.63c10.15-28.56,16.69-57.82,18.2-88.12
	c0.36-7.32,0.05-14.68,0.05-23.47c-2.61,2.84-4.13,4.59-5.74,6.24c-9.67,9.92-21.31,16.06-34.76,19.49
	c-12.45,3.18-23.33,0.83-33.47-6.56c-10.05-7.33-18.39-16.36-25.9-26.19c-2.6-3.4-5.13-6.85-8.08-10.79
	c-4.99,9.61-11.75,17.09-18.93,24.23c-1.19,1.18-2.03,2.32-0.68,3.78c4.44,4.82,2.15,9.33-0.35,14.03
	c-18.1,33.99-43.29,61.79-74.22,84.43c-29.96,21.93-63.08,35.97-100.71,36.19c-40.07,0.23-76.02-13.03-108.41-36.27
	c-2.49-1.79-3.8-2.16-5.85,0.57c-4.89,6.52-10.07,12.84-15.29,19.1c-1.68,2.01-1.53,3.04,0.59,4.61
	c22.64,16.73,44.32,34.64,65.24,53.47c9.19,9.59,19,18.63,26.89,29.41c2.85,3.9,5.55,7.88,7.21,12.47
	c3.12,8.63-0.27,13.84-9.36,13.98c-12.76,0.19-24.49-4.26-36.09-8.78c-45.07-17.57-86.83-41.53-127.79-66.95
	c-48.81-30.29-95.89-63.04-139.78-100.21c-16.4-13.89-32.3-28.33-45.78-45.19c-3.95-4.94-7.65-10.07-9.46-16.28
	c-1.99-6.84,0.58-11.06,7.57-12.22c5.37-0.89,10.59,0.51,15.83,1.35c4.46,1.31,8.95,2.52,13.37,3.95
	c15.05,4.88,29.42,11.41,43.64,18.28c2.02,0.98,3.19,1.04,4.2-1.3c1.3-3.02-1.21-2.45-2.49-2.86c-9.1-2.87-16.78-7.96-23.37-14.79
	c-8.67-8.98-14.99-19.54-19.72-30.98c-4.54-10.98-10.82-20.54-19.98-28.2c-2.53-2.12-4.75-4.68-6.82-7.28
	c-12.19-15.34-12.24-31.11-0.22-46.51c1.84-2.36,3.84-4.6,5.85-6.82c5.72-6.31,9.63-13.62,11.23-21.94
	c1.66-8.63,6.51-14.74,13.62-19.42c7.44-4.91,15.67-8.08,24.14-10.52c8.48-2.45,14.74-7.29,19.06-14.95
	c2.36-4.19,5.06-8.22,7.87-12.14c8.45-11.8,19.95-18.76,34.22-21.34c4.31-0.78,8.65-1.23,12.92-0.54
	c12.58,2.04,21.96-3.08,29.69-12.47c4.76-5.78,8.3-12.51,13.62-17.84c8.42-8.42,18.26-13.98,30.44-10.85
	c8.94,2.29,15.95,0.13,22.53-5.61c3.13-2.74,6.35-5.39,9.67-7.9c7.76-5.87,16.45-9.42,26.24-9.71c4.98-0.15,9.97,0.29,14.96,0.33
	c2.39,0.02,5.15-0.54,5.97-2.76c0.65-1.77-2.01-2.75-3.37-3.84c-28.01-22.28-49.1-49.99-64.3-82.24c-1.78-3.77-3.71-4.6-7.54-4.18
	c-27.64,3.06-55.13,3.98-81.56-7.07c-14.03-6.74-27.1-14.89-37.82-26.36C96.87,128.11,86.78,109.36,87.95,86
	c0.85-16.92,8.16-31.06,19.62-43.07C131.67,17.7,161.82,6.59,196.2,5.91c27.32-0.53,53.39,5.82,78.96,14.77
	c36.81,13.91,70.75,32.92,101.85,57.05c26.34,20.43,55.83,34.54,87.86,43.66c5.17,1.47,7.27,1,8.46-4.39
	c0.68-3.1,2.84-7.61,6.37-6.5c6.62,2.07,8.01-1.99,9.99-6.22c0.63-1.35,1.41-2.66,2.33-3.82c1-1.26,2.02-3.01,3.99-2.38
	c2.25,0.72,2.33,2.93,1.77,4.61c-1.55,4.64,1.38,4.37,4.47,4.97c4.43,0.86,9.04,1.99,11.88,6c1.57,2.23,3.36,3.4,6.09,3.55
	c2.14,0.12,4.25,0.87,6.39,1.04c3.46,0.26,4.77,1.77,4.68,5.38c-0.16,6.38-1.01,12.57-3.12,18.6c-3.04,8.73-3.01,8.75-12.16,7.09
	c-1.62-0.29-3.32-1.09-3.85,1.5c-1.12,5.45-3.99,10.18-6.31,15.13c-0.54,1.16-1.79,2.43-0.38,3.56c3.18,2.54,1.41,4.89,0.07,7.43
	c-11.51,21.73-23.96,42.98-34.06,65.44c-0.77,1.72-2.32,3.33-1.5,5.52c-0.22,0-0.43-0.01-0.65-0.01c0.06,0.19,0.12,0.38,0.18,0.57
	c0.14-0.21,0.29-0.41,0.43-0.62c0.74-0.33,1.57-0.53,2.2-1.01c30.92-23.47,63.99-42.93,101.27-54.57c2.59-0.81,2.73-2.32,2.64-4.47
	c-0.38-8.98-0.72-17.95-0.96-26.93c-0.05-2.04-0.57-3.29-2.6-4.21c-6.31-2.89-10.65-7.88-13.56-14.07
	c-1.11-2.36-2.09-3.12-4.86-2.17c-4.57,1.57-8.66,0.28-11.05-4.19c-2.32-4.32-1.31-8.39,1.84-11.96c1.71-1.94,3.95-2.94,6.49-3.41
	c1.31-0.24,3.21,0.67,3.71-1.53c0.53-2.35-1.61-2.62-2.87-3.47c-3.06-2.06-5.74-4.53-8.21-7.24c-4.24-4.66-4.27-5.01,0.91-8.62
	c9.23-6.42,19.21-11.16,30.33-13.34c1.24-0.24,3.98,0.81,2.96-2.85C573.17,65.83,578.72,51.22,592.95,39.59z M546.99,135.93
	l-0.1-0.1c1.6,3.67,4.54,2.24,7.13,1.77c1.42-0.26,2.53-1.35,1.79-2.88c-1.71-3.54,0.23-7.82-2.42-11.11
	c-0.07-0.09-0.32-0.04-0.48-0.04c-3.22,0.09-5.9,1.35-7.23,4.31C544.42,130.71,543.3,133.8,546.99,135.93z M365.97,491.95
	c1.92-2.28,3.84-4.56,5.76-6.84c2.52-3.08,5.05-6.15,7.57-9.23c0.91-0.96,1.77-1.96,2.73-2.86c1.7-1.6,0.97-2.45-0.84-3.08
	c-15.45-5.36-25.78-16.67-34.07-30.05c-2.48-4.01-4.04-4.52-6.52-0.45c-3.18,2.55-6.1,5.38-8.69,8.53c-1.15,1.8-6.06,2.61-2.85,5.55
	c10.77,9.87,19.08,21.58,26.86,33.77c1.15,3.77,3.09,7.12,5.36,10.92C363.04,495.86,364.5,493.9,365.97,491.95z M757.06,352.94
	c3.39,3.52,7.72,5.38,12.18,7.07c1.75,0.66,2.97,0.7,4.28-0.89c3.12-3.8,6.42-7.46,9.65-11.17c1.79-1.43,3.33-3.09,4.53-5.05
	c7.41-8.12,14.75-16.31,20.43-25.8c2.17-2.16,3.73-4.74,5.03-7.49c4.91-6.41,8.28-13.61,10.57-21.28c3.31-11.12,2.84-22-2.83-32.38
	c-0.79-1.62-1.46-3.33-2.4-4.86c-7.39-11.97-17.46-21.4-28.86-29.38c-40.05-28.06-84.84-40.48-133.49-39.9
	c-8.04,0.1-8.04,0.09-9.75,7.93c-2.18,5.74-4.41,11.44-7.6,16.73c-11.04,18.29-30.36,26.58-50.4,21.24
	c-13.17-3.5-22.82-11.89-30.31-23c-1.05-1.55-1.51-3.47-4.47-2.23c-12.55,5.27-25.08,10.55-36.62,17.87
	c-4.39,2.18-8.53,4.77-12.48,7.66c-13.44,9.42-23.16,21.32-25.67,38.12c-0.37,2.45-1.17,4.84-1.88,7.22
	c-1.65,5.5-4.53,7.57-9.3,6.79c-5.07-0.83-7.22-3.74-6.88-9.71c0.35-6.17,1.81-12.15,3.85-17.97c6.8-19.36,17.29-36.93,26.72-55.02
	c0.87-1.66,2.37-3.13,2.19-5.3c-11.6-1.99-21.48-7.11-29.63-15.44c-1.54-1.58-2.42-2.26-4.15-0.08
	c-8.18,10.32-17.92,19.21-26.83,28.88c-8.57,9.3-17.02,18.71-23.26,29.83c-12.69,22.61-8.45,46.27,11.31,63.2
	c2.82,2.7,5.59,5.45,9.3,6.95c9.52,7.6,20.72,11.6,32.18,15.05c4.92,1.29,9.8,2.79,14.91,3.16c1.45,0.35,2.88,0.82,4.35,1.03
	c17.13,2.54,34.37,3.61,51.67,2.8c3.98-0.19,5.22,1.13,5.59,4.8c0.37,3.78,1.38,7.5,2.11,11.24c0.74,3.54,1.47,7.08,2.21,10.63
	c3.08,16.14,7.7,31.86,12.91,47.43c0.7,2.1,1.76,3.08,4.09,3.49c9.66,1.68,19.37,2.81,29.15,3.42c4.55,0.35,9.08,0.94,13.66,0.51
	c13.55,1.39,27.11,0.91,40.67,0.19c4.78-0.38,9.63,0.06,14.35-1.15c16.86-0.85,33.28-3.89,49.13-9.84c2.99-1.12,4.86-2.92,5.59-6.42
	c-3.29,1.29-6.15,2.48-9.05,3.53c-1.42,0.51-3.49,1.04-4.15-0.36c-1.29-2.73-2.87-1.75-4.77-1.22c-1.43,0.4-3.04,0.52-3.98-1.12
	c-0.77-1.34-0.31-2.66,0.45-3.74c1.34-1.9,2.86-3.66,4.31-5.48c0.31-0.44,0.62-0.88,0.93-1.32c-0.77-0.38-1.42-0.3-1.91,0.47
	c-1.88-0.04-4.25,1.64-5.5-0.61c-1.29-2.32,0.9-3.98,2.24-5.6c1.06-1.28,2.25-2.47,3.52-3.54c5.47-4.63,10.99-9.18,16.46-13.8
	c1.17-0.98,2.83-1.53,1.9-3.93c-2.2-5.72-4.02-11.58-6-17.39c-0.49-3.01-1.02-6-2.55-8.7c-3.63-13.93-8.73-17.59-20.2-14.49
	c-11,0.46-14.48-3.02-11.43-11.43c11.02-10.31,23.43-15.53,39.03-12.84c8.9,1.54,18.14,2.66,27.26,0.47
	c3.7-0.26,6.89-1.63,9.47-4.34c2.76-1.52,4.26-4.16,5.69-6.76c2.83-5.11,4.17-10.81,6.16-16.26c1.6-4.39,3.96-8.01,8.59-9.71
	c4.75-1.75,11.06-0.2,14.07,3.64c3.17,4.04,1.31,7.88-0.79,11.56c-1.72,3.02-3.7,5.89-5.57,8.82c-2.13,2.52-3.93,5.24-5.29,8.25
	c-7.69,11.82-15.27,23.72-23.11,35.45c-7.98,11.94-7.97,13.8,1.56,24.92c0.1,0.12,0.28,0.18,0.42,0.27
	C752.31,349.18,754.41,351.34,757.06,352.94z M624.94,110.89c2.36-2.05,1.53-4.33,0.23-6.4c-1.36-2.15-3.53-3.03-6.07-2.45
	c-2.32,0.53-4.4,1.69-6.03,3.38c-2.93,3.03-6.38,5.01-10.72,5.87c5.17,2.54,6.14,3.76,5.6,6.81c-0.64,3.62-5.82,7.33-10.75,7.56
	c-3.01,0.14-6.17-0.53-6.89-3.71c-1.31-5.72,3.75-7.36,7.73-9.99c-4.47-1.21-9.01-1.71-11.78-5.41c-1.68-2.25-2.86-2.28-4.34-0.04
	c-0.18,0.28-0.41,0.53-0.64,0.77c-6.01,6.2-11.59,13.18-21.74,11.82c-2.18-0.29-1.69,1.67-1.86,2.8
	c-1.23,8.14,1.14,15.53,5.31,22.34c9.64,15.72,31.22,17.03,42.75,2.61c5.37-6.71,8.14-14.52,7.99-23.11
	c-0.06-3.56-0.01-5.74,4.48-6.32c3.21-0.42,6.58-2.29,6.8-6.59L624.94,110.89z M564.31,543.94c4.81,4.08,9.56,8.21,13.56,13.16
	c5.87,7.26,5.92,7.19,12.47,0.11c7.77-8.4,14.18-17.61,16.99-28.9c0.79-3.19,1.81-6.73-0.28-9.63c-3.01-4.18-6.92-7.73-8.01-13.09
	c-0.32-1.58-1.79-1.82-3.12-2.01c-3.32-0.48-4.74-2.38-5.05-5.71c-0.4-4.35-3.38-5.37-7.19-4.53c-2.66,0.58-4.74,2.27-6.89,3.87
	c-3.55,2.64-2.92,4.57,0.83,6.31c0.46-0.74,0.9-1.44,1.33-2.14c0.63-1.02,0.57-3.2,2.38-2.41c1.45,0.63,0.61,2.35,0.1,3.53
	c-1.23,2.82-3.47,4.82-5.61,6.93c-2.23,2.19-3.66,2.23-5.04-1.01c-2.27-5.34-4.86-10.55-7.53-15.7c-0.68-1.32-1.04-3.55-3.5-3.08
	c-1.9,1.35-1.75,3.4-1.88,5.38c-0.28,4.08,1.05,7.86,2.11,11.69c2.96,10.61,3.79,20.9-4.42,29.88c-0.49,0.53-1.2,1.13-0.76,2.2
	C557.93,540.47,561.12,542.2,564.31,543.94z M764.41,289.32c-7.6,2.6-15.37,4.2-23.41,4.65c-12.19,0.67-24.31-0.02-36.37-1.72
	c-3.45-0.49-5.4-0.34-4.12,4.26c2.37,8.48,4.13,17.13,6.15,25.71c2.58,10.96,5.41,21.83,9.75,33.25
	c21.42-18.53,34.48-42.41,48.78-65.33c0.14-0.35,0.27-0.69,0.41-1.04C765.2,289.17,764.81,289.25,764.41,289.32z M562.23,546.66
	c-1.34-0.95-2.69-1.89-4.01-2.86c-3.77-2.77-6.34-2.53-9.08,1.94c-3.56,5.78-7.92,11.13-12.34,16.31
	c-18.04,21.11-38.58,39.12-64.46,50.15c-11.84,5.05-24.17,7.72-37.03,5.05c-14.5-3.01-24.81-12.34-33.59-23.6
	c-12.94-16.59-21.38-35.56-28.88-55.02c-6.4-16.57-10.77-33.95-19.59-49.56c-0.92-1.63-1.52-3.55-3.34-4.76
	c-1.83,2.89-3.08,6.54-7.1,5.31c-3.93-1.2-4.09-4.9-4.03-8.29c0.04-2.31,0.07-4.76,0.82-6.9c1.23-3.5,0.13-5.88-2.19-8.46
	c-12.74-14.21-28.03-25-44.86-33.74c-4.6-2.39-9.17-4.95-14.33-6.44c-0.28,3-0.52,5.48-0.75,7.96c-0.63,1.87-1.13,3.8-1.94,5.59
	c-1,2.22-2.53,3.92-5.33,3.57c-2.78-0.34-3.67-2.36-4.36-4.72c-0.86-2.97-0.13-5.91-0.15-8.86c2.34-8.18,2.34-8.18-5.72-11.04
	c-0.62-0.22-1.25-0.42-1.87-0.63c-6.93-2.41-7.2-2.25-8.17,5.02c-0.09,0.64-0.02,1.3-0.03,1.96c-0.89,2.09-0.52,4.25-0.37,6.4
	c0.65,9.21,3.48,17.92,6.16,26.66c3.57,11.63,6.72,23.28,6.62,35.65c-0.1,12.51-4.77,21.86-16.4,27.3
	c-7.57,3.54-13.45,9.13-18.36,15.8c-3.16,4.29-6.32,8.58-9.45,12.89c-8.35,11.51-19.71,16.86-33.49,13.49
	c-15.12-3.7-29.17-1.43-43.48,3.38c-12.14,4.08-24.58,7.45-37.66,5.87c-2-0.24-2.61,0.87-3.33,2.22
	c-8.26,15.59-19.36,29.07-31.46,41.74c-2.41,2.53-2.43,3.62,0.31,5.93c51.35,43.17,106.63,80.71,164.14,115.09
	c2.01,1.2,3.22,1.44,4.85-0.64c12.54-15.97,25.07-31.95,37.87-47.7c3.79-4.66,3.35-8.86,0.1-13.07c-3.35-4.34-7.03-8.44-10.75-12.48
	c-10.41-11.33-18.62-23.86-21.73-39.2c-1.54-7.6-1.75-15.25,0.59-22.73c1.41-4.5,4.49-7.36,9.44-7.58c4.86-0.21,7.12,2.91,8.53,6.97
	c0.93,2.67,1.9,5.33,2.63,8.05c4.82,17.99,14.3,33.12,27.64,46.04c19.48,18.86,43,30.46,68.53,38.4
	c50,15.57,96.23,6.33,139.55-21.57c1.72-1.11,2.32-2.18,1.99-4.44c-0.79-5.37,0.31-10.61,2.71-15.49c1.02-2.08,2.77-3.36,5.21-3.18
	c2.6,0.18,3.76,2.16,4.28,4.28c0.59,2.43,0.68,4.97,1.03,7.86c7.72-5.93,14.59-11.96,21.21-18.29c1.33-1.27,1.74-2.11,0.79-4.1
	c-3.1-6.56-1.19-13.01,1.45-19.24c0.98-2.32,2.87-3.67,5.58-3.28c2.58,0.37,3.62,2.44,4.04,4.54c0.54,2.66,0.52,5.44,0.8,8.93
	c5.82-6.57,11.25-12.55,15.63-19.41c3.09-3.48,5.79-7.23,7.89-11.39c2.12-2.12,3.39-4.77,4.69-7.42c2.76-3.88,4.86-8.12,6.79-12.45
	c0.76-1.59,2.21-2.98,1.02-5.03C579.43,563.03,572.71,553.21,562.23,546.66z M827.85,605.96c-1.42-19.82-5.79-38.85-16.68-55.73
	c-10.95-16.96-26.25-26.23-47.1-23.57c-19.6,2.51-34.29,13.52-46.83,27.99c-1.25,1.44-1.09,3.03-0.99,4.7
	c1.24,21.56-1.09,42.84-5,64.01c-3.31,17.87-9.38,34.93-14.6,52.26c-4.51,14.99-5.92,30.28-1.73,45.7c0.17,1.14,0.2,2.32,0.52,3.41
	c12.63,43.91,54.35,48.98,81.31,35.79c20.5-10.03,32.15-27.78,40.09-48.33c9.61-24.88,12.28-50.97,12.58-77.37
	C829.51,625.18,829.6,615.51,827.85,605.96z M354.43,416.85c-1.99-0.72-3.85-1.41-5.72-2.07c-6.96-2.44-8.05-3.8-6.53-10.9
	c3.13-14.69,9.17-28.13,18.6-39.89c4.17-5.2,6.13-5.45,11.03-1.38c3.21,2.67,5.87,3.98,10.03,1.42c3.39-2.08,7.73-2.28,9.88,2.16
	c1.01,2.08,2.04,3.13,4.14,3.6c1.54,0.35,2.67,1.49,3.18,2.95c0.85,2.4,2.93,3.5,4.49,5.13c2.78,2.93,7.21,5.2,7.77,9.57
	c0.63,4.94,3.62,7.45,7.22,10.04c8.21,5.91,8.14,5.99,5.58,15.77c-0.04,0.16-0.03,0.34-0.11,0.49c-2.02,3.92-0.26,5.1,3.55,6.14
	c20.91,5.7,34.86,22.57,36.73,44.16c0.49,5.64,0.35,11.33,0.79,16.97c0.71,9.26,4.21,16.65,13.71,20.08
	c11.91,4.3,21.12,1.36,28.02-9.31c4.03-6.24,6.17-13.22,7.86-20.38c0.24-1.02-0.01-2.73,1.69-2.52c1.69,0.21,1.17,1.63,0.94,2.78
	c-2.05,10.08-5.28,19.65-12.67,27.2c-7.2,7.35-15.79,8.44-25.32,5.37c-9.3-3-14.75-9.16-16.4-18.81
	c-1.07-6.29-0.83-12.62-1.08-18.94c-0.76-19.49-12.57-35.82-30.85-42.68c-8.32-3.12-8.32-3.12-13.22,4.03
	c-5.87,8.56-6.43,8.75-16.04,5.37c-0.78-0.28-1.63-0.43-2.36-0.81c-3.1-1.63-4.84-0.99-6.33,2.47c-2.63,6.1-5.71,12.02-8.98,17.8
	c-1.67,2.96-1.96,4.86,0.67,7.63c5.05,5.32,4.81,7.94,0.05,13.71c-6.67,8.1-13.36,16.19-20.07,24.26c-1.29,1.55-2.54,2.87-1.63,5.26
	c7.94,20.8,14.25,42.23,24.53,62.11c7.53,14.58,15.89,28.54,28.78,39.15c9.98,8.22,21.27,11.94,34.33,10.3
	c15.08-1.89,28.38-8.11,40.9-16.25c25.88-16.82,45.68-39.44,62.67-64.97c4.84-7.27,5.52-14.26,4.03-22.14
	c-0.4-2.12-0.93-4.22-1.51-6.3c-1.68-6-3.27-11.99,0.5-17.81c0.99-1.53-0.23-2.52-0.68-3.65c-1.92-4.81-2.37-9.66-0.78-14.64
	c0.31-0.97,0.63-2.02,1.97-1.54c0.96,0.34,0.99,1.21,0.71,2.08c-3.92,12.28,5.52,18.74,11.61,26.66c1.37,1.78,2.4,0.94,3.6-0.26
	c2.87-2.86,6.12-5.2,10.22-5.89c3.77-0.63,7.59,0.21,8.68,4.02c1.16,4.02,2.72,6.65,6.97,7.51c1.26,0.25,2.21,1.69,2.25,3.07
	c0.06,2.39,1.48,3.69,2.93,5.39c5.4,6.35,8.26,13.44,4.43,21.79c-0.48,1.05-0.73,2.21-1.2,3.27c-0.68,1.52-0.49,2.84,0.45,4.19
	c9.97,14.26,20.65,27.85,35.45,37.54c6.9,4.52,14.38,6.9,22.74,5.51c13.78-2.29,25.89-7.81,36.55-17.09
	c7.49-6.52,10.47-13.05,9.15-23.6c-4.25-33.92-20.61-58.71-50.92-74.56c-25.24-13.2-52.35-19.15-80.42-21.53
	c-17.91-1.52-35.86-2.59-53.56-6.07c-28.49-5.61-54.86-15.94-77.79-34.19c-14.49-11.53-25.75-25.92-36.97-40.46
	c-19.06-24.68-42.61-44.86-65.94-65.3c-5.92-5.19-11.37-6.29-18.22-3.63c0.06,0.22,0.05,0.63,0.25,0.82
	c10.02,10.03,17.27,21.53,19.09,35.9c0.42,3.33,2.55,2.93,4.77,2.45c3.86-0.82,7.65-0.89,9.22,3.5c1.54,4.3-0.72,7.84-4.36,9.59
	c-8.82,4.24-13.71,11.59-18.07,19.89c-7.74,14.74-20.24,22.64-36.95,23.28c-3.34,0.13-4.21,1.31-4.5,4.33
	c-0.96,10.09-1.96,20.18-3.39,30.21c-0.41,2.88,0.2,4.1,2.64,5.39c8.71,4.58,16.97,9.93,24.58,16.16c2.56,2.1,3.98,2.15,6.49-0.24
	C337.95,438.28,347.22,428.78,354.43,416.85z M284.81,68.36c-2.03,0.12-5.53,0.25-9.01,0.54c-31.12,2.64-49.8,22.86-49.76,54
	c0.02,17.27,5.09,33.39,11.46,49.21c1.03,2.57,2.63,2.32,4.76,2.03c17.83-2.4,35.34-6.18,52.34-12.14
	c15.97-5.59,31.25-12.52,43.28-24.85c9.07-9.29,14.95-20.11,12.08-33.7c-2.25-10.68-9.54-17.71-18.45-23.12
	C317.65,71.91,302.36,68.57,284.81,68.36z M290.83,428.07c1.73-7.35-0.25-13.54-3.65-19.42c-2.85-4.93-5.46-9.95-6.03-15.7
	c-0.58-5.89,0.92-7.12,6.58-5.72c22.62,5.57,40.18-2.34,50.63-22.96c3.87-7.63,8.95-13.9,16.86-17.71c2.53-1.22,5.04-3.4,4.02-6.67
	c-1.03-3.31-4.17-2.15-6.46-1.78c-4.69,0.76-7.25-0.7-7.86-5.67c-1.6-12.97-8.19-23.37-17.25-32.4c-1.07-1.07-1.85-3.2-3.81-2.45
	c-1.8,0.68-2.5,2.58-2.88,4.42c-0.2,0.97-0.21,1.99-0.33,2.98c-0.91,7.53-4.72,10.8-12.37,10.52c-1.82-0.07-3.63-0.43-5.46-0.59
	c-8.35-0.72-8.89-0.28-11.08,7.72c-1.27,4.64-2.08,9.43-4.28,13.77c-0.88,1.73-2.21,3.03-4.24,3.04c-2.09,0.01-3.26-1.42-4.03-3.21
	c-0.39-0.92-0.74-1.85-1.13-2.77c-2.13-5.07-5.93-8.3-11.39-8.28c-5.31,0.02-8.77,3.48-11.01,8.16c-2.35,4.91-2.31,9.61,1.09,14.07
	c2.02,2.65,4.04,5.29,5.98,7.99c8.41,11.74,9.63,24.08,3.16,37.12c-3.12,6.28-6.93,12.12-10.74,17.97
	c-0.97,1.49-1.93,2.66,0.85,3.55C267.82,417.83,279.27,422.65,290.83,428.07z M741.52,425.72c-4.93-10.84-9.55-20.93-14.09-31.07
	c-0.85-1.9-1.7-1.97-3.32-0.84c-8.47,5.86-18.36,8.48-28.07,10.9c-41.77,10.42-84.05,9.54-126.44,4.61
	c-3.49-0.41-6.93-1.67-10.9-1.12c1.34,3.29,2.84,6.11,3.65,9.12c1.49,5.55,5.16,6.98,10.51,7.48c32.84,3.08,65.73,4.52,98.71,4.32
	C694.7,428.97,717.8,428.23,741.52,425.72z M606.3,159.82c-7.78,6.09-16.19,9.9-25.32,12.07c-2.24,0.53-2.86,1.68-2.7,3.91
	c0.34,4.65,0.29,9.32,0.66,13.97c0.21,2.63-0.71,3.88-3.22,4.66c-4.76,1.47-9.37,3.39-14.12,4.9c-2.44,0.77-2.79,1.69-1.31,3.78
	c3.1,4.36,6.43,8.5,10.49,12c19.12,16.49,45.39,14.96,60.96-3.63c6.31-7.53,10.09-16.33,12.66-25.75c0.81-2.97-0.13-3.39-2.81-3.18
	c-6.98,0.55-13.92,1.37-20.72,3c-3.2,0.77-4.8,0.09-5.94-3.12C612.3,174.95,609.31,167.61,606.3,159.82z M370.98,366.04
	c-3.21,17-10.26,32.31-21.55,46.06c4.33,1.35,7.6,3.66,12.19,0.22c6.34-4.75,13.55-8.33,21.16-10.92c2.34-0.79,4.65-1.27,6.4,0.92
	c1.87,2.33,1.09,4.88-0.5,6.89c-1.95,2.46-4.33,4.57-6.55,6.82c-3.37,3.41-2.79,6.32,1.87,8.01c7.64,2.77,15.39,5.21,22.99,8.07
	c2.16,0.81,3.28,0.29,4.71-1.18c6.69-6.86,9.38-15.48,11.17-24.55c0.29-1.48-0.2-2.52-1.43-3.38c-2.54-1.77-5.02-3.61-7.57-5.47
	c-1.24,2.12,0.69,6.93-3.33,5.17c-3.3-1.45-7.74,1.86-9.96-2.76c-0.34-0.71-1.13,0.08-1.6,0.47c-3.55,2.98-4.96,0.41-6.14-2.43
	c-1.93-4.66-2.07-9.77-3.3-15.21c-2.67,4.55-4.51,8.93-8.5,11.63c-1.55,1.05-3.29,1.73-5.11,0.49c-1.63-1.1-1.73-2.81-1.34-4.45
	c0.69-2.9,1.42-5.81,2.44-8.6c3.71-10.11,3.76-10.1-5.4-15.77C371.51,366.01,371.32,366.06,370.98,366.04z M379.53,439.7
	c-0.37-0.93-0.81-1.46-0.69-1.79c2.19-6.03,1.5-11.74-1.72-17.23c-1.16-1.98-0.02-3.48,1.34-4.83c2.47-2.47,4.99-4.9,7.42-7.41
	c1.08-1.12,1.91-2.66,1.05-4.06c-0.82-1.36-2.5-0.77-3.66-0.29c-14.14,5.86-27.59,12.64-35.4,26.89c-0.87,1.6-1.34,2.8-0.27,4.53
	c6.18,9.97,13.09,19.25,22.93,26.03c2.74,1.89,4.34,2.12,6.06-1.21c3.88-7.53,8.24-14.82,12.08-22.37c4.12-8.1,3.95-8.18-4.66-10.89
	c-0.24-0.08-0.58,0.14-1.07,0.27C382.76,431.52,383.71,436.17,379.53,439.7z M692.3,379.06c6.95-0.87,11.05-5,15.93-7.49
	c1.78-0.91,3.85-4.03,5.34-2.13c1.73,2.2-1.9,3.25-3.3,4.52c-5.71,5.22-11.76,10.08-16.79,16.48c2.63,0.68,4.01-0.78,5.46-1.67
	c6.1-3.73,12.09-7.63,18.17-11.39c1-0.62,2.24-2.38,3.36-0.89c1.42,1.89-0.9,2.48-1.96,3.21c-3.7,2.54-7.5,4.94-11.27,7.37
	c-2.14,1.38-4.12,2.87-5.59,6.03c2.06-0.68,3.38-0.93,4.52-1.51c5.46-2.82,10.86-5.76,16.32-8.58c1.22-0.63,2.75-2.49,3.9-0.96
	c1.36,1.81-1.2,2.12-2.1,3.05c-3.16,3.29-6.31,6.59-9.46,9.88c9.99-5.06,19.26-11.02,28.52-17c0.41-0.26,0.69-0.72,1.04-1.07
	c1.07-1.1,1.47-2.07-0.04-3.24c-7.45-5.76-12.41-13.31-15.66-22.08c-0.53-1.43-1.24-2.29-2.83-0.9
	C715.1,360.05,703.42,368.33,692.3,379.06z M493.93,124.99c0.51,5.82,3.1,9.7,5.05,13.81c0.65,1.37,2.26,3.02-0.34,4.05
	c-2.34,0.92-4.57,1.92-6.36,3.76c-0.58,0.6-1.32,0.67-2.12-0.11c-5.49-5.37-8-4.95-11.26,1.7c-1.24,2.53-2.47,5.11-4.04,7.44
	c-1.53,2.28-1.17,3.71,0.92,5.39c6.22,4.98,13.23,8.16,20.92,10.08c2.01,0.5,3.03,0.08,4.02-1.61c3.36-5.75,6.4-11.64,8.52-17.97
	c1.22-3.65,1.08-7.39-0.66-10.69C505.27,134.6,500.19,129.91,493.93,124.99z M739.56,334.45c-3.03,3.96-5.62,7.4-8.29,10.79
	c-0.99,1.26-1.29,2.32-0.68,4.02c4.25,11.9,11.6,21.12,22.83,27.1c1.25,0.67,2.41,1.75,3.9,0.1c3.96-4.39,8.04-8.66,12.36-13.28
	C755,358.25,746.01,348.04,739.56,334.45z M503.25,175.19c-12.24-1.86-22.8-5.92-31.62-14.02c-2.32,3.09-4.34,5.94-6.53,8.65
	c-1.25,1.54-1.45,2.67,0.1,4.22c7.74,7.71,16.71,13.06,27.58,15.03c1.87,0.34,3.09,0.23,4.03-1.67
	C498.78,183.41,500.96,179.51,503.25,175.19z M367.83,366.93c-0.18-1.58,0.46-3-0.64-3.72c-1.31-0.85-2.21,0.5-2.87,1.29
	c-10.25,12.24-16.79,26.21-19.39,41.98c-0.18,1.07-0.58,2.62,0.48,3.24c1.49,0.87,2.44-0.67,3.23-1.61
	C358.77,395.96,364.72,381.87,367.83,366.93z M510.26,125.09c-2.68,7.31-2.63,7.29,0.52,13.98c0.7,1.48,0.93,3.16,1.47,4.72
	c1.55,4.49,5.95,2.49,8.91,3.75c2.2,0.93,2.48-1.6,3.09-2.98c2.22-5.04,3.54-10.31,3.99-15.82c0.58-7.19,0.63-7.06-6.29-8.53
	c-3.55-0.76-5.11-0.38-4.5,3.88c0.38,2.65,1.57,6.9-2.29,7.61C510.96,132.48,511.92,127.65,510.26,125.09z M495.94,120.16
	c-0.61-1.24,1.03-3.78-1.55-4.39c-3.36-0.79-6.81-1.29-10.25-1.58c-0.76-0.06-0.32,1.41-0.25,2.18c0.58,7.27-0.24,14.28-3.62,20.87
	c-0.47,0.91-1.47,2.18,0.65,2.55c3.93,0.69,7.83,1.66,11.79,2c2.61,0.22,4.53-0.68,2.67-4.13c-1.72-3.2-3.08-6.64-4.17-10.11
	c-0.74-2.36-0.57-4.98,3.03-4.7C496.5,123.01,496.26,121.85,495.94,120.16z M379.52,368.53c5.99,2.34,3.63,5.99,1.91,9.85
	c-1.99,4.47-4.21,8.96-4.18,14.41c0.94-0.28,1.69-0.29,2.12-0.66c7-6.05,9.42-14.23,10.33-22.99c0.25-2.42-1.47-3.53-3.89-3.41
	C383.57,365.84,381.64,366.67,379.52,368.53z M481.29,120.13c-0.1-0.88-0.22-3.05-0.63-5.16c-0.15-0.75-0.7-2.36-1.89-1.48
	c-2.7,1.99-3.23,5.26-4.25,8.24c-0.92,2.68,1.34,1.99,2.43,2.55c0.72,0.37,1.63,0.67,1.47,1.67c-0.17,1.07-1.13,1.15-1.95,0.96
	c-3.05-0.72-3.38,1.2-3.26,3.39c0.11,1.98,0.33,3.97,0.69,5.92c0.13,0.74,0.64,1.78,1.22,1.99c1.08,0.37,1.69-0.71,2.18-1.53
	C480.15,131.99,481.06,126.79,481.29,120.13z M396.76,398.45c2.97-7.65,2.2-15.39,0.32-23.14c-0.48-1.99-1.62-3.58-3.71-3.21
	c-2.15,0.38-1.91,2.98-1.69,4.16C393.02,383.66,392.99,391.38,396.76,398.45z M401.72,380.1c1.02,6.3-2.64,13.34,3.08,20.31
	C405.21,392.49,405.1,386.06,401.72,380.1z M503.4,110.6c1.94,5.83-0.84,12.24,2.34,17.83C507.47,122.15,507.43,116.09,503.4,110.6z
	 M500.84,126.03c0.37-5.42,0.69-9.84-0.65-14.18c-0.37-1.19-1.03-2.08-2.43-2.04c-0.86,0.02-1.51,0.3-1.97,1.18
	c-0.88,1.69,0.4,1.81,1.42,2.33c1.45,0.73,1.04,2.26,1.26,3.52C498.95,119.55,498.77,122.42,500.84,126.03z M602,121.33
	c-2.47-1.4-3.78-2.95-3.73-5.3c-3.28,0.3-6.27,2.27-4.87,5.27C594.89,124.48,598.56,122.62,602,121.33z M508.67,112.48
	c0.71,6.06,4.99,9.47,5.73,14.39C515.07,121.4,514.45,116.46,508.67,112.48z M410.96,400.56c-0.97-5.66-0.89-10.23-3.62-14.13
	C408.93,390.57,406.3,395.58,410.96,400.56z M494.72,101.74c-2.32,2.57-3.42,5.28-4.63,7.88c-0.35,0.75-1.07,1.9,0.5,2.32
	c1.07,0.29,1.95-0.02,2.28-1.18C493.68,108,494.99,105.34,494.72,101.74z"/>
<path class="st1" d="M695.66,383.45c-1.45,1.82-2.97,3.58-4.31,5.48c-0.76,1.08-1.23,2.41-0.45,3.74c0.95,1.64,2.55,1.52,3.98,1.12
	c1.9-0.53,3.48-1.51,4.77,1.22c0.66,1.4,2.73,0.87,4.15,0.36c2.9-1.06,5.76-2.24,9.05-3.53c-0.73,3.5-2.6,5.29-5.59,6.42
	c-15.85,5.95-32.26,9-49.13,9.84c-1.07-1.27-2.13-2.55-3.19-3.82c-15.52-18.5-23.25-39.39-18.99-63.72
	c1.8-10.26,5.85-19.49,15.16-25.33c6.01-3.77,12.42-4.85,18.92-1.29c7.36,4.03,7.87,12,1.2,17.02c-3.49,2.63-7.52,4.25-11.58,5.72
	c-3.33,1.2-6.47,2.76-8.99,5.23c-5.99,5.87-9.02,12.92-6.46,21.23c2.43,7.9,8.82,11.39,16.54,12.51c7.4,1.07,14.18-0.71,20.19-5.3
	c6.94-5.31,11.26-12.61,15.23-20.13c2.71-5.13,6.25-9.39,11.15-12.49c1.97,5.81,3.79,11.67,6,17.39c0.92,2.39-0.74,2.94-1.9,3.93
	c-5.47,4.62-11,9.17-16.46,13.8c-1.27,1.07-2.46,2.26-3.52,3.54c-1.34,1.62-3.53,3.28-2.24,5.6c1.25,2.25,3.62,0.56,5.5,0.61
	C695.01,382.88,695.33,383.16,695.66,383.45z"/>
<path class="st1" d="M589.45,408.54c-9.78-0.61-19.49-1.75-29.15-3.42c-2.33-0.4-3.38-1.38-4.09-3.49
	c-5.21-15.56-9.83-31.28-12.91-47.43c2.46-2.48,4.79-5.09,7.4-7.4c9.81-8.7,20.37-15.57,34.41-14.01
	c14.77,1.65,20.74,13.58,13.1,26.37c-1.88,3.14-4.06,6.1-5.83,9.29C585.21,381.34,583.11,394.65,589.45,408.54z"/>
<path class="st1" d="M370.98,366.04c0.35,0.02,0.53-0.03,0.65,0.04c9.16,5.67,9.11,5.65,5.4,15.77c-1.02,2.79-1.75,5.7-2.44,8.6
	c-0.39,1.64-0.29,3.35,1.34,4.45c1.82,1.23,3.56,0.56,5.11-0.49c3.99-2.7,5.83-7.08,8.5-11.63c1.23,5.44,1.37,10.55,3.3,15.21
	c1.18,2.85,2.59,5.42,6.14,2.43c0.47-0.4,1.26-1.18,1.6-0.47c2.22,4.62,6.66,1.31,9.96,2.76c4.02,1.76,2.08-3.05,3.33-5.17
	c2.55,1.85,5.03,3.7,7.57,5.47c1.23,0.86,1.72,1.91,1.43,3.38c-1.79,9.06-4.49,17.69-11.17,24.55c-1.43,1.47-2.55,1.99-4.71,1.18
	c-7.6-2.86-15.36-5.3-22.99-8.07c-4.65-1.69-5.23-4.6-1.87-8.01c2.22-2.24,4.6-4.36,6.55-6.82c1.59-2.01,2.37-4.55,0.5-6.89
	c-1.75-2.18-4.06-1.71-6.4-0.92c-7.6,2.59-14.82,6.17-21.16,10.92c-4.59,3.44-7.85,1.14-12.19-0.22
	C360.72,398.35,367.77,383.05,370.98,366.04z"/>
<path class="st1" d="M704.76,329.04c-7.07,3.59-12.23,9.06-15.89,16.04c-2.71,5.17-5.68,10.2-9.61,14.54
	c-5.29,5.85-11.64,8.8-19.65,6.32c-6.72-2.08-8.89-7.72-5.24-13.71c1.88-3.09,4.66-5.07,8.05-6.38c3.87-1.49,7.78-2.99,11.41-4.97
	c11.04-6.02,14.33-14.34,10.73-26.33C696.03,311.44,701.13,315.11,704.76,329.04z"/>
<path class="st1" d="M739.56,334.45c6.45,13.59,15.44,23.8,30.12,28.72c-4.31,4.62-8.4,8.89-12.36,13.28
	c-1.49,1.66-2.65,0.57-3.9-0.1c-11.23-5.98-18.58-15.2-22.83-27.1c-0.61-1.7-0.31-2.76,0.68-4.02
	C733.93,341.85,736.52,338.41,739.56,334.45z"/>
<path class="st0" d="M813.16,309.61c-7.45-17.51-7.56-34.5,3.7-50.63c0.96-1.38,1.6-3.5,4.04-3.04c5.67,10.38,6.15,21.27,2.83,32.38
	C821.44,296,818.06,303.2,813.16,309.61z"/>
<path class="st1" d="M503.25,175.19c-2.29,4.32-4.47,8.22-6.44,12.21c-0.94,1.9-2.16,2.01-4.03,1.67
	c-10.87-1.97-19.83-7.32-27.58-15.03c-1.55-1.55-1.35-2.68-0.1-4.22c2.19-2.71,4.21-5.56,6.53-8.65
	C480.45,169.27,491.01,173.33,503.25,175.19z"/>
<path class="st1" d="M367.83,366.93c-3.11,14.95-9.06,29.04-19.19,41.19c-0.78,0.94-1.73,2.49-3.23,1.61
	c-1.06-0.62-0.65-2.17-0.48-3.24c2.6-15.77,9.14-29.75,19.39-41.98c0.66-0.79,1.56-2.15,2.87-1.29
	C368.29,363.93,367.65,365.35,367.83,366.93z"/>
<path class="st1" d="M510.26,125.09c1.66,2.56,0.7,7.39,4.9,6.62c3.86-0.71,2.67-4.96,2.29-7.61c-0.61-4.27,0.95-4.64,4.5-3.88
	c6.92,1.47,6.87,1.34,6.29,8.53c-0.44,5.52-1.76,10.78-3.99,15.82c-0.61,1.38-0.89,3.91-3.09,2.98c-2.97-1.26-7.37,0.74-8.91-3.75
	c-0.54-1.56-0.77-3.25-1.47-4.72C507.62,132.38,507.58,132.4,510.26,125.09z"/>
<path class="st1" d="M572.98,598.33c-7.1-10.01-14.64-19.59-24.22-27.48c-3.99-3.28,1.51-4.68,2.3-7.05c0.8-2.38,2.42-1.96,4.19-0.5
	c9.36,7.68,16.39,17.23,22.41,27.62C576.37,593.55,575.09,596.2,572.98,598.33z"/>
<path class="st1" d="M331.91,447.96c9.65,16.26,22.54,29.06,39.82,37.15c-1.92,2.28-3.84,4.56-5.76,6.84
	c-3.35-1.56-6.7-3.12-10.05-4.67c-7.78-12.18-16.09-23.89-26.86-33.77C325.86,450.57,330.76,449.77,331.91,447.96z"/>
<path class="st1" d="M559.75,489.62c-0.32,4.38,0.71,8.5,2.18,12.6c2.77,7.77,5.69,15.48,7.15,23.68c1.23,6.9-0.52,12.72-4.76,18.03
	c-3.19-1.73-6.38-3.47-9.51-5.17c-0.43-1.07,0.28-1.67,0.76-2.2c8.22-8.97,7.38-19.26,4.42-29.88c-1.07-3.83-2.4-7.61-2.11-11.69
	C558,493.02,557.85,490.97,559.75,489.62z"/>
<path class="st1" d="M495.94,120.16c0.31,1.69,0.55,2.85-1.69,2.68c-3.6-0.28-3.77,2.34-3.03,4.7c1.09,3.47,2.45,6.91,4.17,10.11
	c1.86,3.46-0.07,4.35-2.67,4.13c-3.96-0.33-7.86-1.31-11.79-2c-2.12-0.37-1.12-1.63-0.65-2.55c3.38-6.59,4.2-13.6,3.62-20.87
	c-0.06-0.77-0.5-2.25,0.25-2.18c3.44,0.3,6.89,0.79,10.25,1.58C496.97,116.38,495.34,118.92,495.94,120.16z"/>
<path class="st1" d="M584.46,578.46c-5.44-9.27-12.17-17.47-20.88-23.8c-3.47-2.53-3.92-4.82-1.35-8
	c10.49,6.55,17.2,16.37,23.25,26.77C586.67,575.49,585.23,576.88,584.46,578.46z"/>
<path class="st1" d="M481.29,120.13c-0.23,6.66-1.15,11.85-3.99,16.54c-0.5,0.82-1.11,1.9-2.18,1.53c-0.58-0.2-1.08-1.25-1.22-1.99
	c-0.35-1.95-0.58-3.94-0.69-5.92c-0.12-2.19,0.21-4.11,3.26-3.39c0.82,0.19,1.78,0.11,1.95-0.96c0.16-1-0.75-1.3-1.47-1.67
	c-1.09-0.56-3.35,0.13-2.43-2.55c1.02-2.98,1.55-6.24,4.25-8.24c1.19-0.88,1.74,0.73,1.89,1.48
	C481.08,117.08,481.2,119.25,481.29,120.13z"/>
<path class="st1" d="M602,121.33c-3.44,1.29-7.11,3.15-8.6-0.03c-1.4-3,1.59-4.97,4.87-5.27C598.22,118.38,599.53,119.93,602,121.33
	z"/>
<path class="st1" d="M694.68,382.59c0.49-0.77,1.14-0.85,1.91-0.47c-0.31,0.44-0.62,0.88-0.93,1.32
	C695.33,383.16,695.01,382.88,694.68,382.59z"/>
<path class="st2" d="M469.94,247.84c-0.14,0.21-0.29,0.41-0.43,0.62c-0.06-0.19-0.12-0.38-0.18-0.57c0.22,0,0.43,0.01,0.65,0.01
	C469.98,247.9,469.94,247.84,469.94,247.84z"/>
<path class="st2" d="M764.41,289.32c0.39-0.07,0.79-0.15,1.18-0.22c-0.14,0.35-0.27,0.69-0.41,1.04
	C764.93,289.87,764.67,289.59,764.41,289.32z"/>
<path class="st0" d="M195.14,675.23c-0.13,4.92-0.94,9.49-3.03,13.73c-1.16,2.36-2.86,4.19-5.84,3.75c-2.66-0.39-3.95-2.28-4.54-4.7
	c-1.73-7.12-0.38-13.87,2.8-20.29c1.09-2.2,2.99-3.6,5.69-3.17c2.53,0.41,3.36,2.4,4.16,4.48C195.2,671.13,195,673.3,195.14,675.23z
	"/>
<path class="st0" d="M355.86,536.63c5,1.11,5.15,5.27,5.57,9.12c0.21,1.9-0.13,3.87-0.22,5.8c-0.85,3.19-1.22,6.56-3.16,9.36
	c-2.34,3.38-5.89,3.71-8.34,0.84C344.67,555.86,348.67,539.48,355.86,536.63z"/>
<path class="st0" d="M451.74,671.47c0.14-4.36,0.83-8.58,3.02-12.44c1.15-2.02,2.81-3.4,5.24-3.06c2.21,0.31,3.37,2,3.97,4.01
	c1.98,6.6,0.7,12.92-2.47,18.72c-2.23,4.09-6.86,3.4-8.88-0.88C451.65,675.77,451.88,673.61,451.74,671.47z"/>
<path class="st0" d="M504,608.08c0.7-3.2,1.18-6.46,2.15-9.57c0.84-2.68,2.23-5.37,5.51-5.61c3.62-0.26,4.39,2.79,5.45,5.37
	c0.53,4.83,0.13,9.59-1.43,14.17c-0.96,2.82-2.17,5.86-5.92,5.7c-4.08-0.17-4.76-3.47-5.37-6.62
	C504.19,610.39,504.14,609.23,504,608.08z"/>
<path class="st0" d="M381.03,666.14c-0.67,3.23-1.2,6.49-2.04,9.67c-0.67,2.55-2.26,4.65-5.15,4.57c-3.11-0.08-4.5-2.35-5.2-5.15
	c-1.43-5.69-0.55-11.18,1.55-16.5c0.84-2.12,2.56-3.56,4.96-3.52c2.54,0.04,3.78,1.97,4.44,4.07
	C380.28,661.46,380.55,663.78,381.03,666.14z"/>
<path class="st0" d="M335.81,621.63c-0.01-5.36,0.78-9.08,2.37-12.57c1.06-2.32,2.59-4.42,5.54-4.2c3.04,0.22,3.92,2.61,4.57,5.11
	c1.4,5.41-0.06,10.51-1.87,15.5c-0.94,2.59-2.57,4.8-5.84,4.32c-3.17-0.47-4.17-2.94-4.6-5.69
	C335.78,622.8,335.8,621.46,335.81,621.63z"/>
<path class="st0" d="M289,533.18c-0.56,4.5-0.92,8.63-2.96,12.35c-1.02,1.87-2.53,3.15-4.76,2.92c-2.18-0.23-3.66-1.64-4.22-3.7
	c-1.71-6.21-0.56-12.13,2.35-17.73c0.99-1.9,2.78-2.82,5-2.48c2.08,0.32,3.07,1.86,3.58,3.68
	C288.47,529.95,288.71,531.75,289,533.18z"/>
<path class="st0" d="M318.04,523.32c0.64-4.59,0.96-8.75,3.16-12.4c1.07-1.78,2.64-3.13,4.85-2.85c2.22,0.28,3.36,1.95,3.95,3.97
	c1.76,6.06,0.45,11.79-2.1,17.3c-0.89,1.93-2.6,2.91-4.88,2.64c-2.32-0.27-3.49-1.77-4.05-3.79
	C318.49,526.46,318.28,524.64,318.04,523.32z"/>
<path class="st0" d="M187.08,600.39c-0.07-3.34,0.58-6.57,1.8-9.67c1.07-2.72,2.51-5.36,5.98-4.86c3.18,0.46,3.87,3.22,4.27,5.93
	c0.67,4.53-0.03,8.93-1.53,13.18c-0.97,2.73-2.48,5.31-6.02,4.74c-3.19-0.51-3.96-3.19-4.45-5.86
	C186.91,602.74,187.08,601.55,187.08,600.39z"/>
<path class="st0" d="M302.05,476c-0.41,4.69-0.9,8.78-2.85,12.53c-0.98,1.89-2.46,3.24-4.68,3.08c-2.43-0.17-3.93-1.8-4.48-4.04
	c-1.48-6.05-0.43-11.82,2.37-17.29c0.98-1.91,2.69-2.91,4.92-2.64c2.11,0.25,3.13,1.75,3.67,3.57
	C301.5,472.95,301.78,474.75,302.05,476z"/>
<path class="st0" d="M233.86,564.89c-0.02-4.93,0.7-8.81,2.49-12.42c1-2.02,2.57-3.64,4.99-3.48c2.75,0.19,3.93,2.39,4.4,4.71
	c1.02,5.15,0.34,10.2-1.57,15.07c-0.96,2.44-2.37,4.44-5.41,4.16c-3.31-0.3-4.21-2.79-4.73-5.49
	C233.81,566.32,233.87,565.14,233.86,564.89z"/>
<path class="st0" d="M291.03,602.22c-0.11,4.02-0.82,7.92-2.57,11.56c-0.99,2.08-2.59,3.44-5.13,3.14c-2.58-0.3-3.76-2.16-4.21-4.32
	c-1.04-5-0.3-9.91,1.44-14.67c0.95-2.61,2.45-5.07,5.57-4.86c3.55,0.24,4.11,3.38,4.72,6.16
	C291.07,600.2,290.98,601.22,291.03,602.22z"/>
<path class="st0" d="M312.97,571.97c-0.01-3.34,0.63-6.58,1.85-9.69c1.02-2.59,2.42-4.95,5.66-4.66c3.36,0.3,4.08,3.1,4.45,5.76
	c0.65,4.68,0.02,9.26-1.73,13.66c-1.05,2.63-2.62,4.88-5.82,4.33c-3.1-0.54-4.04-3.14-4.38-5.92
	C312.86,574.3,312.97,573.13,312.97,571.97z"/>
<path class="st0" d="M213.41,650.33c0.39-4.35,0.77-8.34,2.63-11.97c1.03-2,2.48-3.73,4.99-3.46c2.55,0.28,3.5,2.34,3.99,4.52
	c1.16,5.21,0.21,10.26-1.6,15.15c-0.9,2.43-2.27,4.59-5.39,4.2c-3.09-0.39-3.87-2.75-4.26-5.35
	C213.6,652.29,213.5,651.13,213.41,650.33z"/>
<path class="st0" d="M317.23,644.11c-0.1,4.46-0.8,8.36-2.6,11.98c-0.95,1.91-2.49,3.06-4.78,2.9c-2.33-0.16-3.66-1.59-4.2-3.64
	c-1.68-6.41-0.72-12.59,2.8-18.1c2.21-3.46,5.9-2.76,7.79,0.96C317.26,640.25,317.03,642.41,317.23,644.11z"/>
<path class="st0" d="M124.17,600.38c0.54-4,0.9-8.29,2.74-12.25c0.87-1.86,1.95-3.69,4.35-3.31c2.15,0.34,2.55,2.28,2.96,4.1
	c1.17,5.21-0.08,10.19-1.51,15.11c-0.63,2.17-1.63,4.75-4.47,4.6c-3.26-0.17-3.35-3.14-3.89-5.52
	C124.17,602.31,124.23,601.46,124.17,600.38z"/>
<path class="st0" d="M257.9,679.89c-0.57,3.45-0.83,6.62-2.21,9.5c-0.81,1.7-2.01,3.26-4.1,3.12c-2.28-0.15-3.37-1.76-3.87-3.92
	c-1.1-4.76,0.03-9.23,1.77-13.57c0.75-1.88,2.13-3.55,4.52-3.17c2.11,0.34,2.86,2.07,3.22,3.95
	C257.51,677.26,257.71,678.74,257.9,679.89z"/>
<path class="st0" d="M152.41,651.14c-0.29,3.54-0.68,6.65-2.12,9.53c-0.8,1.59-1.99,2.86-3.8,2.75c-1.99-0.13-3.16-1.48-3.67-3.49
	c-1.17-4.57-0.08-8.89,1.4-13.12c0.67-1.92,2.01-3.67,4.35-3.43c2.64,0.27,3.29,2.45,3.58,4.69
	C152.3,649.21,152.35,650.37,152.41,651.14z"/>
<path class="st0" d="M381.04,593.62c1.39,0.21,0.37,2.28,1.85,2.42c1.34,4.48,0.79,8.84-0.82,13.14c-0.75,2-1.94,3.64-4.31,3.37
	c-2.1-0.24-2.92-1.97-3.44-3.81C372.63,602.66,375.8,595.53,381.04,593.62z"/>
<path class="st0" d="M552.13,456.25c0-1.63-0.1-3.16,1.7-3.31c1.82-0.15,1.95,1.36,2.1,2.71c0.09,0.81,0.33,1.61,0.38,2.43
	c0.1,1.68,2.95,4-0.25,4.86c-2.38,0.64-2.75-2.24-3.32-4.09C552.47,457.91,552.29,456.94,552.13,456.25z"/>
<path class="st0" d="M569.8,455.3c0.15,1.41-5.94,6.9-7.37,6.61c-0.88-0.18-1.44-0.68-1.39-1.7c0.08-1.58,5.5-6.5,7.08-6.38
	C569.05,453.89,569.62,454.38,569.8,455.3z"/>
<path class="st0" d="M514.92,459.6c0.04,1.54-0.49,2.28-1.41,2.2c-2.37-0.2-3.17-2.19-3.98-3.99c-0.69-1.53-1.24-3.23,0.1-4.65
	c0.56-0.6,1.75-0.51,2.18,0.3C512.99,455.63,513.36,458.18,514.92,459.6z"/>
<path class="st0" d="M520.03,460.44c-1.65-0.47-2.27-1.45-1.88-2.68c0.72-2.28,1.22-4.98,4.26-5.27c0.95-0.09,1.93,1.2,1.28,2.12
	C522.35,456.51,522.24,459.29,520.03,460.44z"/>
<path class="st0" d="M527.15,459.86c1.67,0.1,3.79,0.13,3.51,1.97c-0.52,3.38-4.24,1.15-6.07,2.75c-0.75,0.65-2.13-0.39-2.01-1.4
	C522.91,460.49,525.25,460.27,527.15,459.86z"/>
<path class="st0" d="M568.07,466.3c-1.51,0.35-2.61-0.26-2.45-1.62c0.27-2.27,2.34-2.48,4.11-2.73c1.31-0.19,3.08-0.19,3.1,1.52
	C572.88,466.89,569.4,464.99,568.07,466.3z"/>
<path class="st1" d="M792.25,230.72c-5.64,3.93-11.21,5.96-17.58,5.26c-8.49-0.94-16.07-12.39-13.81-20.64
	c0.4-1.45,1.03-1.45,2.07-0.95C772.9,219.14,782.7,224.19,792.25,230.72z"/>
<path class="st0" d="M317.43,375.46c-5.81-0.33-11.54-1.82-16.41-5.68c-3.34-2.65-4.66-5.98-2.77-10.12
	c2.07-4.53,5.99-5.56,10.12-2.1c4.78,4,9.78,5.98,16.05,4.51c3.81-0.89,5.09,1.34,4.83,4.85
	C328.87,372.16,324.55,375.38,317.43,375.46z"/>
<path class="st0" d="M320.44,323.95c5.83,0.66,11.37,1.61,15.93,5.35c1.55,1.27,3.03,2.84,2.39,5.08c-0.6,2.12-2.43,3.06-4.46,3.48
	c-6.81,1.43-13.15-0.06-19.09-3.38c-2.31-1.29-4.74-2.95-4.17-6.12c0.58-3.26,3.59-3.5,6.14-4.09
	C318.29,324.02,319.47,324.04,320.44,323.95z M327.98,328.17c-2.38-0.52-3.99-1.08-5.62-1.18c-2.91-0.18-7.28-1.07-8.04,1.8
	c-0.89,3.36,3.62,3.92,6.2,5.08c1.59,0.72,3.3,1.71,5.25,0.5C323.26,331.57,324.98,329.88,327.98,328.17z"/>
<path class="st0" d="M263.64,333.84c-2.3,1.5-2.93,3.61-3.82,5.57c-0.35,0.77-0.91,1.49-1.92,1.08c-0.68-0.28-0.8-0.92-0.78-1.65
	c0.13-4.57,7.1-10.52,11.61-9.91c1.04,0.14,2.18,0.35,2.26,1.52c0.1,1.4-1.14,1.38-2.13,1.36c-3.18-0.08-1.82,1.67-1.42,3.23
	c0.41,1.6,2.89,3.8,0.76,4.69c-2.54,1.06-2.28-2.47-3.37-3.9C264.43,335.3,264.15,334.69,263.64,333.84z"/>
<path class="st0" d="M319.89,319.86c-1.39-0.2-3.64,0.46-3.68-1.47c-0.06-2.17,2.21-1.39,3.54-1.38c3.66,0.03,6.82-1.05,9.44-3.68
	c0.64-0.65,1.43-1.72,2.43-0.61c0.86,0.95,0.14,1.86-0.56,2.59C328.03,318.48,324.23,319.83,319.89,319.86z"/>
<path class="st0" d="M567.51,136.64c-2.91-0.49-6-1.29-5.84-5.58c0.16-4.26,6.07-8.4,11.63-8.17c3.52,0.15,6.38,1.44,6.32,5.49
	C579.56,132.48,573.2,136.8,567.51,136.64z M573.14,132.46c-2.19-1.43-3.85-2.75-3.85-5.18c-3.28,0.12-5.76,2.02-4.27,4.99
	C566.55,135.36,569.91,133.57,573.14,132.46z"/>
<path class="st0" d="M583.43,120.07c0.28,0.16,0.81,0.35,0.79,0.49c-0.48,4.68,3.99,5.33,6.2,7.83c1.06,1.2,0.81,2.88-0.25,4.16
	c-1.22,1.47-2.81,2.35-4.78,2.19c-0.4-0.03-1-0.43-1.11-0.78c-0.42-1.35,0.7-1.63,1.61-1.99c3.38-1.35,2.74-2.47-0.19-3.47
	c-3.27-1.1-4.18-3.53-3.77-6.69C582.06,120.93,582.48,120.26,583.43,120.07z"/>
<path class="st0" d="M594.25,141.57c-0.41,2.75-0.87,5.85-4.39,6.21c-2.41,0.24-2.83-2.14-2.63-3.95c0.29-2.66,0.98-5.53,4.17-6.06
	C594.04,137.32,594.04,139.62,594.25,141.57z"/>
<path class="st0" d="M625.01,110.81c-2.03-0.11-4.21-0.88-5.43,1.78c-0.45,0.99-1.44,2.22-2.69,1.09c-1.17-1.06,0.15-2.03,0.67-2.96
	c0.72-1.29,2.41-2.38-0.91-3c-1.8-0.34-0.28-2.02,0.91-2.55c3.19-1.42,5.62,0.49,7.38,5.72
	C624.94,110.89,625.01,110.81,625.01,110.81z"/>
<path class="st0" d="M546.99,135.93c-0.75-3.49-1.09-6.92,2.01-9.56c0.55-0.47,1.59-0.82,2.23-0.63c0.96,0.28,0.89,1.31,0.34,2.01
	c-0.91,1.16,0.05,1.75,0.6,2.49c1.41,1.91,1.48,3.24-1.39,2.31c-1.54-0.5-1.68-0.05-1.54,1.16c0.21,1.84-0.73,2.33-2.34,2.12
	C546.89,135.83,546.99,135.93,546.99,135.93z"/>
<path class="st1" d="M327.98,328.17c-2.99,1.72-4.72,3.41-2.21,6.2c-1.95,1.21-3.66,0.22-5.25-0.5c-2.58-1.17-7.09-1.73-6.2-5.08
	c0.76-2.87,5.13-1.97,8.04-1.8C323.99,327.09,325.6,327.65,327.98,328.17z"/>
<path class="st1" d="M573.14,132.46c-3.23,1.11-6.59,2.89-8.13-0.19c-1.49-2.98,0.99-4.87,4.27-4.99
	C569.28,129.71,570.95,131.03,573.14,132.46z"/>
</svg>
