<?xml version="1.0" encoding="utf-8"?>
<!-- Generator: Adobe Illustrator 24.0.1, SVG Export Plug-In . SVG Version: 6.00 Build 0)  -->
<svg version="1.1" id="Layer_1" xmlns="http://www.w3.org/2000/svg" xmlns:xlink="http://www.w3.org/1999/xlink" x="0px" y="0px"
	 viewBox="0 0 800 800" style="enable-background:new 0 0 800 800;" xml:space="preserve">
<style type="text/css">
	.st0{fill:#1A1A1A;}
	.st1{fill:#1C1C1C;}
	.st2{fill:#1D1D1B;}
	.st3{fill:#1B1B1B;}
	.st4{fill:#252525;}
	.st5{fill:#FEFEFE;}
	.st6{fill:#FDCD2F;}
	.st7{fill:#FDFDFD;}
	.st8{fill:#F8CA33;}
	.st9{fill:#1E1D1A;}
	.st10{fill:#1C1B1A;}
	.st11{fill:#FBFBFB;}
	.st12{fill:#F4F4F4;}
	.st13{fill:#E1E1E1;}
	.st14{fill:#FAFAFA;}
	.st15{fill:#1B1B1A;}
	.st16{fill:#201F1D;}
	.st17{fill:#FEFEFD;}
</style>
<path class="st0" d="M260.07,776.34c-12.49,1.67-24.97,3.43-37.59,4.06c-39.82,1.96-77.7-4.89-112.46-25.14
	c-27.48-16.01-46.8-38.65-54.69-70.08c-2.59-10.33-3.05-20.85-2.99-31.43c-1.01-10.24,2.18-19.75,5.44-29.16
	c5.55-16.02,15.69-28.71,29.12-38.91c4.35-3.31,4.34-3.75,0.08-6.99c-8.88-6.77-17.35-14.06-25.38-21.77
	c-9.22-8.86-17.66-18.47-23.24-30.2c-2.04-4.29-3.47-8.82-2.93-13.61c0.86-7.75,5.58-12.72,12.44-15.83
	c7.91-3.59,16.39-4.55,24.92-4.78c16.95-0.46,33.65,2.02,50.27,5.03c11.27,2.04,22.42,4.63,33.52,7.46
	c1.41,0.36,3.03,1.07,4.18-0.15c1.21-1.29,0.06-2.78-0.38-4.11c-5.03-14.97-7.68-30.38-9.03-46.1c-2.49-28.95,0.57-57.43,6.64-85.67
	c5.47-25.46,17.08-48.34,30.48-70.39c16.83-27.7,36.89-53,58.32-77.2c15.17-17.13,31.12-33.55,47.67-49.4
	c7.01-6.71,13.49-14.32,16.71-23.98c1.62-4.87,3.87-9.52,5.96-14.21c0.65-1.47,1.19-3.03,2.75-3.86c2.88-6.21,7.2-11.02,13.59-13.73
	c1.89-0.8,2.45-2.03,2.57-4.03c0.73-12.6,1.88-25.18,2.28-37.78c0.15-4.6,1.97-4.84,5.57-4.44c18.21,2.02,36.45,3.9,54.67,5.82
	c0.09-0.92-0.55-1.31-1.06-1.78c-17.84-16.45-12.23-42.05,11-49.2c14.34-4.42,27.43-1.51,38.05,9.29
	c12.88,13.11,10.59,32.65-4.61,42.98c-1.07,0.73-2.19,1.4-4.25,2.71c4.54,0.53,8.15,1.02,11.78,1.37
	c25.09,2.45,50.19,4.88,75.28,7.31c12.53,1.22,25.07,2.38,37.59,3.71c1.45,0.15,3.79-0.32,4.2,1.44c0.54,2.26-2.05,2.03-3.34,2.59
	c-11.68,5.07-17.65,14.63-16.73,27.04c0.77,10.41,10.74,21.21,22.69,24.03c11.75,2.77,22.78,1.23,31.89-7.37
	c11.9-11.24,10.15-29.45-3.61-39.54c-0.82-0.6-1.7-1.14-2.55-1.7c-0.84-0.55-2.03-0.93-1.7-2.23c0.43-1.68,1.93-1.06,2.94-0.97
	c13.41,1.25,26.82,2.56,40.23,3.88c6.41,0.63,12.81,1.44,19.23,1.9c2.94,0.21,4.03,1.14,3.72,4.23
	c-1.17,11.66-2.12,23.34-3.15,35.01c-0.49,5.54-0.95,11.08-1.41,16.52c0.93,0.42,1.29-0.09,1.71-0.47
	c12.54-11.19,27.92-9.69,38.13,3.71c10.16,13.34,9.55,34.97-1.34,47.69c-10.94,12.78-28.56,12.48-39.16-0.67
	c-1-1.24-1.95-2.51-3.34-4.3c-0.53,6.41-1,12.29-1.51,18.17c-0.52,5.96-1.08,11.92-1.73,19.13c1.84-2.61,2.92-4.23,4.1-5.79
	c0.82-1.08,1.83-2.07,3.34-1.56c1.5,0.5,1.66,1.89,1.75,3.24c0.46,6.78-0.54,13.47-1.19,20.19c-0.27,2.77-0.66,5.53-0.99,8.3
	c1.22,5.79-0.82,11.31-1.48,16.93c-0.67,5.68-1.59,11.35-2.81,16.93c-2.05,9.32-1.25,18.6-0.67,27.99
	c0.66,10.82,0.47,21.67-0.15,32.54c-0.76,13.49-1.94,26.9-3.95,40.25c-5.34,35.48-15.05,69.65-30.19,102.26
	c-12.23,26.35-27.15,51-45.26,73.73c-24.19,30.38-53.43,54.7-87.5,73.26c-4.35,2.37-4.39,2.46-0.46,5.24
	c18.74,13.24,36.65,27.44,52.4,44.23c5.97,6.36,11.09,13.28,15.03,21.07c0.8,1.57,1.46,3.2,2.04,4.87
	c4.15,12.05-0.49,22.24-12.57,26.43c-11.8,4.09-23.98,4.51-36.44,3.77c-16.19-0.96-32.05-3.62-47.86-6.88
	c-28.66-5.91-56.63-14.27-84.31-23.67c-6.87-2.33-6.94-2.34-11.44,3.04c-12.9,15.41-29.32,26.04-47.23,34.55
	c-12.24,5.81-25.06,10.01-38.21,13.24C269.01,775.43,264.64,776.51,260.07,776.34z"/>
<path class="st1" d="M225.56,126.38c4.14-0.21,6.58-2.38,9.07-4.36c5.44-4.34,10-9.49,13.64-15.42c0.62-1,1.91-1.99,0.5-3.45
	c-1.82-1.89-2.44-4.08-0.53-6.26c0.98-1.12,2.28-1.87,3.91-1.06c2.8,1.39,1.84,3.97,1.82,6.89c9.06-4.22,16.87-9.3,22.99-16.78
	c0.37-0.45,0.65-0.98,1.02-1.43c0.71-0.88,1.36-2.28,2.74-1.17c1.16,0.93,0.07,1.91-0.5,2.64c-7.01,8.96-15.59,15.81-26.66,19.02
	c-1.78,0.52-2.21,1.74-2.94,2.9c-4.1,6.53-9.14,12.21-15.23,16.92c-2.21,1.71-4.48,3.75-7.27,3.88c-3.9,0.18-5.87,2.29-7.81,5.26
	c-3.06,4.65-6.39,9.17-10.58,12.91c-2.07,1.85-4.26,3.62-6.61,5.07c-7.08,4.36-12.48,3.92-14.94-1c-3.37-6.76-0.1-17.97,5.98-20.5
	c2.66-1.11,5.5,0.44,5.47,3c-0.01,0.89-0.22,1.86-1.19,2.14c-1.08,0.32-1.54-0.37-1.67-1.4c-0.35-2.67-1.73-1.21-2.67-0.55
	c-4.25,3-6.07,12.09-3.36,16.49c1.25,2.03,3.03,2.49,5.3,1.97c4.3-0.98,7.76-3.41,10.95-6.25c4.97-4.42,8.7-9.9,12.56-15.26
	c1.03-1.42,0.95-2.19-0.3-3.61c-3.96-4.5-3.45-12.39,0.74-16.43c2.1-2.02,4.57-2.75,7.25-1.56c2.51,1.12,2.19,3.54,2.07,5.76
	C229.08,118.75,227.29,122.29,225.56,126.38z"/>
<path class="st1" d="M723.28,286.56c-2.57,0-5.06,0.19-7.5-0.04c-5.97-0.56-9.69-4.16-10.39-10.06c-0.45-3.81-0.05-7.61,1.05-11.3
	c0.6-2.02,1.71-3.73,3.58-4.83c0.66-0.39,1.45-0.59,2.04-0.02c0.89,0.85,0.21,1.56-0.43,2.19c-4.79,4.8-4.25,10.72-2.76,16.39
	c1.06,4.07,4.98,5.01,8.85,5.12c3.28,0.09,6.66,0.68,7.84-3.94c0.61-2.41,2.66-4.21,4.94-5.38c2.56-1.31,4.91-0.93,6.49,1.59
	c1.53,2.43,1.23,4.79-1.11,6.61c-2.12,1.65-4.62,2.5-7.27,2.84c-1.42,0.18-2.57,0.55-2.73,2.25c-0.75,8.32-1.82,16.66,1.34,24.75
	c1.57,4.03,4.58,5.79,8.95,5.58c2.86-0.13,5.34-0.27,5.2-4.09c-0.02-0.53,0.39-1.09,0.66-1.61c1.06-1.95,2.69-3.1,4.93-3.13
	c1.62-0.02,2.81,0.77,3.19,2.44c0.49,2.18,0.07,4.52-1.79,5.5c-3.4,1.79-5.69,3.63-4.33,7.95c1.02,3.24,1.86,6.51,4.82,8.62
	c0.86,0.61,2.04,1.33,1.39,2.35c-0.85,1.33-2.09,0.45-3.03-0.27c-4.17-3.2-5.48-7.79-5.99-12.71c-0.16-1.52-0.01-2.61-2.32-2.64
	c-11.44-0.13-15.52-4.14-16.21-15.75C722.35,298.99,722.49,292.99,723.28,286.56z"/>
<path class="st2" d="M733.28,407.21c-1.97,4.8-2.26,10.37-6.67,14.06c-1.14,0.95-0.1,2.18,0.31,3.23c3.74,9.78,4.76,19.9,3.71,30.27
	c-0.36,3.54-1.11,6.99-3.78,9.61c-2.42,2.38-5.31,3.29-8.4,1.52c-2.95-1.69-4.34-4.49-3.52-7.84c0.86-3.47,3.43-5.35,6.95-5.81
	c0.98-0.13,2.28-0.28,2.48,1.11c0.22,1.52-1.09,1.37-2.08,1.53c-2.52,0.41-4.43,1.62-4.82,4.34c-0.28,1.95,0.64,3.48,2.33,4.36
	c1.75,0.92,3.43,0.41,4.89-0.81c2.06-1.71,2.78-4.16,3.1-6.63c1.36-10.33,0.5-20.45-3.17-30.29c-0.82-2.2-1.85-3.17-4.36-3.2
	c-3.22-0.03-6.43-0.87-9.11-2.83c-2.54-1.85-4.41-4.26-2.52-7.48c1.79-3.05,4.69-3.78,8.01-2.58c3.28,1.18,5.17,3.86,6.6,6.75
	c1.63,3.28,2.88,2.14,3.97-0.14c2.43-5.06,3.71-10.45,4.23-16.03c1.39-5.31,1.02-10.73,1.04-16.14c0.01-1.21-0.51-3.05,1.43-2.98
	c1.51,0.06,1.14,1.76,1.21,2.88C735.57,391.9,734.47,399.56,733.28,407.21z"/>
<path class="st0" d="M132.02,139.49c0.01,1.32-0.96,1.47-1.69,1.84c-6.5,3.33-13.03,6.6-19.48,10.01c-1.92,1.02-2.54,0.18-3.15-1.42
	c-1.45-3.82-2.91-7.64-4.54-11.39c-0.78-1.8-0.53-2.39,1.46-2.92c6.49-1.72,12.91-3.72,19.36-5.56c0.66-0.19,1.83-0.37,2.04-0.07
	C128.13,133.13,130.09,136.39,132.02,139.49z"/>
<path class="st3" d="M753.25,238.58c-1.25,2.15-3.39,3.48-5.44,4.69c-1.7,1-1.79-1.32-2.7-2.02c-1.46-1.12-1.32-5.62-4.94-2.22
	c-0.79,0.74-1.48-0.58-2.02-1.13c-2.05-2.08-4.01-4.25-6.01-6.39c-6.55-7.01-6.51-6.97,0.2-14.19c1.22-1.31,1.81-1.45,2.9,0.01
	c1.74,2.35,3.59,4.62,5.52,6.82c1.15,1.31,1.87,4.11,4.53,1.76c0.17-0.15,0.93,0.02,1.06,0.24
	C748.65,230.21,750.89,234.3,753.25,238.58z"/>
<path class="st3" d="M687.23,118.72c4.2-6.38,8.28-12.56,12.35-18.75c1.78-2.7,4.45-1.32,6.36-0.82c2.14,0.56,0.17,2.49-0.19,3.58
	c-1.82,5.53-4.06,10.92-5.85,16.45c-0.84,2.59-1.93,3.13-4.4,2.12C692.96,120.27,690.25,119.64,687.23,118.72z"/>
<path class="st1" d="M596.97,65.9c2.04-4.61,3.85-8.71,5.67-12.82c0.18-0.4,0.32-1.09,0.56-1.13c3.24-0.5,5.59,1.82,8.41,2.7
	c1.4,0.43,2.93,0.79,2.56,2.84c-0.05,0.29-0.06,0.58-0.08,0.87c-0.58,9.9-0.58,9.9-10.44,8.47
	C601.64,66.55,599.62,66.27,596.97,65.9z"/>
<path class="st4" d="M128.83,239.38c0.62-11.34-0.07-9.02,9.23-6.32c3.66,1.06,4.11,2.9,2.83,5.97c-0.39,0.93-0.57,1.95-0.86,2.93
	c-1.81,6.12-1.81,6.12-7.9,4.7C128.6,245.83,128.6,245.83,128.83,239.38z"/>
<path class="st5" d="M443.47,496.99c-3.05-12.48-5.19-24.98-5.07-37.81c0.02-2.43,0.68-3.35,3.06-1.94
	c0.75,0.44,1.61,0.72,2.45,0.96c3.69,1.05,7.56,2.39,10.71-0.96c3.08-3.27,2.64-7.34,1.49-11.23c-1.85-6.24-5.82-11.16-10.57-15.41
	c-1.78-1.59-2.13-3.11-1.88-5.36c1.82-16.55-1.8-31.21-15.31-42.2c-1.29-1.05-1.71-2.13-1.71-3.74c0-2.92,0.06-5.91-0.48-8.76
	c-1.22-6.47-3.54-7.64-9.53-5.21c-3.82,1.55-7.32,3.71-10.71,6.03c-1.23,0.84-2.38,1.57-4.01,1.38c-14.93-1.67-28.42,2.75-41.1,10.1
	c-2.49,1.44-4.22,1.36-6.78,0.21c-6.63-2.98-13.61-4.49-20.98-3.22c-1.92,0.33-3.71,0.92-5.32,1.96c-5.19,3.36-5.48,8.32-0.66,12.32
	c1.68,1.39,3.61,2.47,5.82,3.95c-9.97,5.95-18.23,13.73-27.05,22.32c-0.76-4.99-1.41-9.21-2.05-13.43
	c-3.6-23.65-13.14-45.18-23.78-66.31c-7.68-15.25-11.59-31.31-9.95-48.45c1.66-17.36,7.44-33.41,16.13-48.42
	c11.04-19.09,24.51-36.17,42.08-49.75c0.65-0.5,1.1-1.42,2.63-1.14c-0.53,8.84-1.05,17.71-1.59,26.59
	c-0.45,7.47-0.81,14.95-1.43,22.41c-0.24,2.89,0.74,3.84,3.54,4.08c31.87,2.64,63.74,5.31,95.59,8.1c20.89,1.83,41.74,4,62.63,5.79
	c13.58,1.17,27.2,1.91,40.8,2.9c18.42,1.35,36.83,2.76,55.24,4.13c4.97,0.37,9.95,1.15,14.9,0.97c4.27-0.16,5.1,1.53,5.67,5.38
	c3.66,25.07,1.14,49.69-4.59,74.17c-2.77,11.84-5.87,23.6-8.77,35.4c-6.67,27.16-23.33,46.46-46.72,60.69
	c-17.55,10.68-36.69,17.61-56.22,23.46c-16.95,5.08-30.91,14.54-43.03,27.09C445.93,495.07,445.18,496.4,443.47,496.99z"/>
<path class="st5" d="M385.78,677.09c7.23-17.27,11.63-35.09,20.48-51.18c3.21-5.84,7.48-10.83,12.16-15.54
	c8.5-8.55,16.31-17.67,22.37-28.18c11.32-19.64,12.76-40.45,7.51-62.1c-1.35-5.55-2.28-11.2-3.65-16.74c-0.49-2-0.03-3.31,1.27-4.73
	c12.09-13.18,25.91-23.62,43.32-28.93c18.72-5.71,37.19-12.14,54.3-21.88c0.33,0.58,0.54,0.81,0.59,1.07
	c1.9,9.78,1.9,9.78,11.76,9.5c6.68-0.19,7.27,0.35,8.42,7.15c1,5.92,1.69,11.91,3.77,17.59c0.86,2.35,1.85,4.62,3.41,6.61
	c2.09,2.67,4.71,3.9,8.1,3.08c3.43-0.83,4.47-3.5,4.83-6.58c0.94-7.86-0.87-15.48-2.28-23.11c-2.45-13.28-4.92-26.55-3.99-40.16
	c0.13-1.9-0.06-3.92,1.18-5.51c10.81-13.78,15.08-30.24,19.18-46.77c1.16-4.69,2.24-9.4,3.5-14.07c3.14-11.64,13.05-19.55,24.39-19
	c7.53,0.37,13.34,4.8,18.93,9.4c1.25,1.03,0.7,2.47,0.66,3.72c-1.85,60.88-16.03,118.5-45.53,172.08
	c-4.67,8.48-9.61,16.78-14.96,24.85c-0.76,1.14-1.16,2.61-3.27,2.09c-7.84-1.94-15.21,0.09-22.05,3.67
	c-25.51,13.36-42.83,33.63-50.99,61.43c-1.04,3.53-1.57,7.2-1.27,10.88c0.18,2.21-0.54,3.41-2.34,4.64
	c-35.48,24.09-74.73,38.66-116.68,46.46C388.1,676.98,387.24,676.97,385.78,677.09z"/>
<path class="st5" d="M291.28,221.12c-0.32,6.29-2.29,13.19-6.1,19.68c-10.99,18.76-18.33,38.75-17.64,60.77
	c0.19,5.96-1.8,8.31-6.66,10.64c-11.89,5.69-23.37,12.19-34.11,19.91c-2.87,2.06-5.69,4.2-7.85,7.01c-2.72,3.54-3.23,7.53-1.46,11.6
	c1.81,4.17,5.27,6.07,9.73,6.39c4.42,0.31,8.35-1.38,12.28-2.94c4.89-1.94,9.69-4.12,14.57-6.08c4.29-1.72,8.2-1.41,11.7,2.11
	c4.07,4.11,9.26,4.94,14.68,3.79c2.31-0.49,3.31-0.07,4.35,2.05c9.8,20.07,15.86,41.21,18.37,63.38c0.19,1.72,0.39,3.31-1.14,4.84
	c-18.18,18.17-36.65,35.93-58.96,49.2c-21.06,12.53-43.85,20.73-67.09,27.95c-2.09,0.65-4.3,1.15-6.18,2.21
	c-3.23,1.82-4.39,0.5-5.44-2.5c-3.15-9.01-5.45-18.23-7.11-27.6c-0.22-1.26-1.06-2.79,0.95-3.78c9.99-4.9,14.18-14,16.76-24.03
	c3.15-12.24,2.87-24.41-1.99-36.23c-2.76-6.72-6.8-12.41-14.28-14.45c-2.11-0.57-1.46-1.73-1.3-2.96
	c3.57-27.17,12.05-52.69,25.37-76.66c18.91-34.04,42.62-64.54,68.44-93.5c5.86-6.57,11.88-13,17.89-19.44
	c4.29-4.6,12.16-4.06,16.85,1.16C290.05,208.29,291.38,213.9,291.28,221.12z"/>
<path class="st5" d="M474.28,173.47c22.75,0,44.95,3.21,66.53,10.67c3.94,1.36,4.06,3.03,2.95,6.31
	c-3.94,11.64-13.17,19.42-23.43,19.51c-10.62,0.09-20.13-7.89-23.96-19.97c-0.52-1.65-0.03-4.76-2.28-4.5
	c-2.11,0.25-1.2,3.21-1.35,4.99c-1.64,20.62-3.27,41.24-4.74,61.87c-0.24,3.39-0.98,4.69-4.84,4.32
	c-25.41-2.41-50.84-4.54-76.27-6.74c-13.44-1.17-26.88-2.42-40.34-3.39c-3.35-0.24-4.81-1.71-5.69-4.72
	c-3.02-10.25-1.45-19.74,4.47-28.51c8.09-11.99,19.84-19.4,32.69-25.13C422.28,177.39,447.93,173.51,474.28,173.47z"/>
<path class="st6" d="M652.94,143.62c-0.49,5.82-0.99,11.64-1.44,17.47c-0.09,1.1-0.53,2.53,0.99,3c1.2,0.37,1.8-0.72,2.38-1.55
	c12.33-17.55,34.33-12.6,41.74,7.13c3.89,10.37,3.53,20.72-1.53,30.56c-4.31,8.4-10.86,14.16-20.96,14.29
	c-9.91,0.12-16.24-5.5-21.15-13.41c-1.01-1.63-1.12-4.99-3.25-4.52c-2.23,0.49-1.63,3.7-1.81,5.79c-1.27,14.73-2.12,29.5-3.79,44.18
	c-0.79,6.96-4.8,13.12-7.13,19.73c-0.5,1.42-2.05,0.89-3.13,0.83c-11.41-0.61-22.83-1.01-34.21-2.03
	c-9.03-0.81-18.14-0.72-27.1-2.37c0.17-2.86,2.62-4.1,4.27-5.87c7.19-7.71,11.63-16.38,10.88-27.33
	c-0.55-8.07-4.38-14.46-9.18-20.52c-4.73-5.97-4.63-5.87,0.35-11.59c19.98-22.94,44.27-40.04,71.55-53.14
	C651.24,143.89,652,143.43,652.94,143.62z"/>
<path class="st6" d="M547.42,186.91c1.73-9.39,0.58-18.42-3.83-26.88c-9.75-18.69-30.29-20.82-43.88-4.67
	c-0.35,0.41-0.7,0.83-1.82,2.15c1.01-12.36,1.94-23.62,2.86-34.88c0.92-1.2,2.18-1.9,3.56-2.45c15.33-6.01,29.62-13.86,42.56-24.1
	c1.27-1,2.61-1.88,4.19-2.31c2.59,0.3,5.18,0.6,7.98,0.92c-2.58,2.06-5.25,3.82-7.47,6.03c-10.19,10.17-10.89,25.9-1.79,37.1
	c11.77,14.47,33.77,17.69,49.16,7.19c14.5-9.89,16.97-28.42,5.53-41.7c-1.14-1.32-2.41-2.54-3.72-3.93
	c0.93-1.03,2.17-0.58,3.17-0.49c12.97,1.2,25.94,2.46,38.9,3.74c3.79,0.37,7.56,0.93,11.34,1.27c1.76,0.15,2.54,0.55,2.33,2.63
	c-1.27,12.23-2.39,24.48-3.56,36.73c-16.3,6.6-31.06,15.86-44.91,26.55c-11.63,8.97-22.39,18.92-31.89,30.16
	c-0.74,0.87-1.31,2.01-2.72,1.98l-0.24,0.02c-0.92,0.6-1.72,0.16-2.4-0.39c-6.47-5.14-13.67-9.06-21.04-12.7
	C548.79,188.42,548,187.79,547.42,186.91z"/>
<path class="st5" d="M499.74,99.03c-0.6,7.91-1.28,15.22-1.64,22.54c-0.13,2.56-1.85,2.62-3.46,3.13
	c-18.88,6.05-38.26,8.69-58.05,8.69c-33.16,0.01-64.81-7.24-95.45-19.55c-2.17-0.87-2.8-1.97-2.61-4.21
	c0.47-5.41,0.89-10.84,0.96-16.26c0.05-3.82,0.74-4.68,4.65-2.91c29.51,13.28,60.45,20.45,92.88,20.47
	c20.25,0.01,39.99-3.27,58.97-10.54C497.1,99.99,498.19,99.6,499.74,99.03z"/>
<path class="st5" d="M547.42,186.91c9.37,3.68,17.81,8.96,25.76,15.06c-14.08,16.71-25.45,35.09-33.51,55.42
	c-1.14,2.88-2.31,3.55-5.33,3.26c-13.44-1.25-26.89-2.33-40.36-3.07c-3.41-0.19-4.11-1.04-3.83-4.28
	c1.66-19.44,3.12-38.9,4.65-58.39c1.29-0.36,1.28,0.82,1.65,1.5c5.5,9.95,13.32,16.72,25.26,15.87
	c11.99-0.86,19.08-8.66,23.56-19.18C546.11,191.11,546.7,188.99,547.42,186.91z"/>
<path class="st5" d="M320.96,196.32c-2.35-11.93-6.52-22.29-19.99-24.93c-0.05-0.45-0.2-0.84-0.08-0.96
	c10.75-10.88,15.1-25.22,20.93-38.74c2.74-6.37,6.85-11.13,14.04-13.82c-0.12,5.5-0.03,10.63-2.02,15.54
	c-2.45,6.05-1.62,12.13,0.07,18.09c1,3.53,3.73,3.77,6.68,2.21c3.44-1.81,5.94-4.73,8.58-7.49c3.54-3.71,7.06-7.46,10.66-11.12
	c0.62-0.63,1.4-1.82,2.54-0.97c0.79,0.59,0.41,1.62,0.26,2.48c-0.78,4.53-2.74,8.63-4.54,12.8
	C349.98,168.23,338.66,184.51,320.96,196.32z"/>
<path class="st5" d="M573.42,201.95c14.45-18.02,31.86-32.69,51.25-45.1c7.66-4.9,15.65-9.19,23.85-13.11
	c1.41-0.67,2.79-1.82,4.43-0.48c0,0,0,0.36,0,0.36c-1.26,1.54-3.11,2.13-4.81,2.96c-27.22,13.22-50.82,31.17-70.76,53.96
	c-2.21,2.52-1.85,3.78,0.29,6.04c14.47,15.21,15.23,33.03,2.2,48.55c-2.25,2.68-4.85,5.07-7.29,7.6
	c-8.52,0.81-16.92-1.03-25.39-1.21c-1.89-0.04-3.78-0.43-5.75-0.67c-0.53-1.74,0.59-3.07,1.16-4.45
	c7.48-18.13,17.66-34.65,29.9-49.94C573.48,205.22,575.96,204.02,573.42,201.95z"/>
<path class="st5" d="M653.71,235.17c1.69,7.43-4.63,57.52-8.79,71.61c-7.33-5.16-15.46-7.41-24.31-6.94
	c-0.73,0.04-1.47,0.04-2.2,0.11c-7.76,0.84-7.76,0.84-8.36-6.87c-0.36-4.68-0.41-9.41-1.16-14.03c-0.57-3.52,1.11-4.25,3.89-4.72
	c7.08-1.2,14.12-2.63,21.2-3.78c3.19-0.52,4.98-1.81,6.09-5.14c2.83-8.47,6.22-16.75,10.36-24.7
	C651.3,239.05,652.34,237.47,653.71,235.17z"/>
<path class="st5" d="M358.43,387.45c18.06-11.43,37.03-17.35,58.04-8.56c19.03,7.95,28.06,25.4,24.77,47.42
	c-0.38,2.57-0.27,5.3-1.79,7.81c-5.15-27.12-24.96-38.38-48.66-45.21C380.21,385.86,369.35,386.1,358.43,387.45z"/>
<path class="st5" d="M108.05,714.76c-1.2-0.07-2.61,0.37-2.58-1.17c0.02-1.32,1.37-1.29,2.38-1.38c6.31-0.54,12.46-1.9,18.44-3.94
	c22.37-7.63,34.42-24.37,40.38-46.29c4.7-17.3,5.61-35.01,4.87-52.82c-0.59-14.31,0.38-28.45,4.34-42.26
	c6.21-21.64,20.63-36.29,39.87-46.98c14.96-8.31,31.13-13.52,47.09-19.35c17.11-6.25,33.13-14.26,45.22-28.52
	c6.24-7.36,10.6-15.77,14.56-24.48c8.23-18.08,20.05-33.04,37.96-42.51c4.95-2.62,10.2-4.46,15.67-5.6
	c0.88-0.18,2.22-0.77,2.65,0.58c0.43,1.37-0.76,1.61-1.82,1.84c-21.79,4.69-36.41,18.63-47.27,37.14
	c-3.55,6.05-6.2,12.61-9.38,18.88c-10.9,21.53-29.21,34.23-51.04,42.76c-15.13,5.91-30.87,10.25-45.42,17.67
	c-13.03,6.65-25.3,14.26-34.31,26.19c-11.38,15.07-15.01,32.57-15.7,50.86c-0.45,12.02,0.16,24.08-0.29,36.1
	c-0.54,14.57-2.98,28.83-8.56,42.45c-9.47,23.11-26.94,35.86-51.21,39.93C111.88,714.2,109.85,714.48,108.05,714.76z"/>
<path class="st5" d="M410.25,419.59c1.25,0.2,1.79,0.79,1.17,1.82c-0.36,0.6-1.03,1.03-1.59,1.5
	c-16.56,13.91-26.62,31.33-28.79,53.07c-1.75,17.51-11.05,29.9-26.24,38.17c-6.18,3.36-12.47,6.51-18.69,9.79
	c-22.35,11.79-36.14,31.12-46.82,53.2c-8.71,18.01-9.26,36.9-6.86,56.34c1.71,13.85,2.07,27.82-0.64,41.66
	c-4.02,20.6-15.78,35.92-32.66,47.75c-10.99,7.7-22.93,13.57-35.38,18.45c-1.12,0.44-2.7,1.8-3.38,0.01
	c-0.66-1.75,1.46-1.74,2.53-2.18c13.87-5.7,27.22-12.31,39.18-21.51c18.79-14.46,28.2-33.61,29.1-57.17
	c0.48-12.51-0.38-24.99-1.94-37.34c-2.59-20.49,3.02-38.96,12.68-56.49c11.75-21.31,27.49-38.65,50.32-48.62
	c4.15-1.81,8.04-4.21,12.02-6.4c15.04-8.28,23.09-21,24.8-38.09c2.16-21.6,12.91-38.59,29.18-52.43
	C408.9,420.54,409.63,420.05,410.25,419.59z"/>
<path class="st5" d="M551.08,93.78c-12.12,10.86-26.15,18.65-40.92,25.22c-3.07,1.36-6.26,2.43-9.4,3.63
	c-0.02-8.37,0.68-16.7,1.77-24.99c4.73-3.73,9.74-6.83,16.02-7.03C529.39,91.67,540.23,92.73,551.08,93.78z"/>
<path class="st5" d="M409.9,172.07c-8.05,0.06-14.27-5.99-14.35-13.98c-0.09-8.04,5.97-14.28,13.95-14.37
	c7.93-0.08,14.36,6.12,14.46,13.96C424.07,165.52,417.72,172,409.9,172.07z"/>
<path class="st5" d="M633.73,336.76c-4.21-1.34-7.81-2.72-11.65-2.75c-2.55-0.02-2.83-1.26-2.52-3.35c1.29-8.7,2.53-17.4,3.68-26.11
	c0.26-2,1.31-2.42,2.99-2.15c2.31,0.37,4.61,0.8,6.91,1.19c1.96,0.33,2.47,1.46,2.34,3.4C634.84,316.79,634.32,326.59,633.73,336.76
	z"/>
<path class="st7" d="M314.93,184.97c-0.47,0.61-0.88,1.21-1.35,1.74c-5.63,6.34-11.32,12.63-16.88,19.03
	c-1.39,1.6-2.36,1.93-3.59,0.01c-0.23-0.36-0.58-0.66-0.9-0.95c-1.81-1.63-5.38-3.69-5.1-4.79c0.61-2.43,3.12-4.39,4.91-6.5
	c4.27-5.01,8.73-9.86,12.79-15.03c1.94-2.47,3.29-2.09,5.17-0.26C311.98,180.18,313.74,182.26,314.93,184.97z"/>
<path class="st7" d="M621.22,302.68c-1.32,9.06-2.78,17.88-3.83,26.76c-0.4,3.38-1.54,4.61-5.05,4.79c-5.87,0.3-5.74,0.62-4.77-5.22
	c1.14-6.94,2.46-13.89,2.9-20.89c0.24-3.86,1.68-5.12,5.11-5.36C617.32,302.64,619.03,302.16,621.22,302.68z"/>
<path class="st7" d="M637.94,305.71c4.7,1.82,7.2,4.15,7.43,9.38c0.42,9.49,0.78,18.95,0.74,28.92c-3.11-1.94-5.73-3.73-8.5-5.23
	c-1.36-0.74-1.37-1.72-1.31-2.9C636.83,325.93,637.38,315.99,637.94,305.71z"/>
<path class="st5" d="M442.98,431.38c5.42,5.31,9.87,10.23,11.27,17.17c1.27,6.35-1.81,9.38-7.97,7.92
	c-7.16-1.7-8.08-2.81-6.86-10.24C440.19,441.51,441.63,436.9,442.98,431.38z"/>
<path class="st5" d="M354.92,386.15c-5.46,5.46-12.42,6.49-18.29,9.61c-2.49,1.32-9.72-3.72-10.38-6.64
	c-0.66-2.88,2.06-5.7,6.68-6.69C340.55,380.82,347.59,382.7,354.92,386.15z"/>
<path class="st7" d="M300.88,217.63c-0.37-0.34-0.67-0.5-0.79-0.74c-3.63-7.29-3.63-7.3,1.82-13.45
	c4.56-5.15,9.13-10.28,13.76-15.48c3.91,7.13,3.51,9.89-1.58,15.23C309.63,207.85,305.37,212.7,300.88,217.63z"/>
<path class="st5" d="M364.18,424.57c0.24,1.15-0.76,1.48-1.4,2c-11.58,9.32-17.93,21.76-21.67,35.86
	c-5.01,18.89-16.46,32.43-34.41,40.32c-1.01,0.45-2.54,1.96-3.31,0.35c-1.03-2.15,1.41-2.06,2.54-2.57
	c16.8-7.61,27.82-20.21,32.61-38.04c3.81-14.17,9.85-26.96,21.29-36.66c0.89-0.75,1.85-1.45,2.83-2.07
	C363.55,423.2,363.98,423.73,364.18,424.57z"/>
<path class="st5" d="M160.71,508.66c0.23,1.56-1,1.79-1.85,2.17c-20.77,9.31-34.75,25.33-45.1,45.1
	c-4.07,7.78-8.65,15.31-14.28,22.11c-0.68,0.81-1.33,2.9-2.92,1.4c-1.25-1.18,0.42-2.05,1.07-2.86
	c6.46-8.04,11.44-17.01,16.34-26.01c10.11-18.59,24.26-32.92,43.64-41.79C158.46,508.38,159.71,506.58,160.71,508.66z"/>
<path class="st7" d="M304.71,175.04c-6.7,7.8-13.09,15.18-19.39,22.63c-1.12,1.32-2.22,1.01-3.51,0.63
	c-2.1-0.62-4.21-1.18-5.76-1.61c6.91-7.25,13.92-14.81,21.21-22.1C299.28,172.56,301.82,174.34,304.71,175.04z"/>
<path class="st5" d="M424.09,379.9c-5.36-2.9-10.43-5.03-16.35-6.46c3.63-3.11,7.49-4.99,11.53-6.5c2.16-0.8,3.67-0.05,4.23,2.32
	C424.28,372.54,424.41,375.85,424.09,379.9z"/>
<path class="st5" d="M382.98,683.56c-0.2,0.55-0.38,1.11-0.63,1.64c-4.41,9.75-9.27,19.26-15.07,28.27
	c-0.6,0.93-1.01,3.04-2.75,1.87c-1.41-0.95,0.09-2.09,0.64-2.97c5.68-9.08,10.67-18.52,15.01-28.31c0.35-0.79,0.43-2.21,2-1.79
	C382.85,682.44,383.09,682.89,382.98,683.56z"/>
<path class="st8" d="M518.55,90.61c-5.85,1.19-10.48,5.15-16.02,7.03c0.62-8.08,0.62-8.09,8.3-7.64
	C513.41,90.16,515.97,90.41,518.55,90.61z"/>
<path class="st9" d="M661.83,378.4c-3.77,48.22-14.24,94.62-38.51,137.15c-0.15,0.25-0.23,0.56-0.43,0.77
	c-0.9,0.98-1.15,3.54-2.85,2.55c-1.65-0.96,0.16-2.61,0.82-3.76c19.83-34.28,30.3-71.58,35.8-110.5c1.23-8.72,2.02-17.48,2.6-26.27
	c0.1-1.5-0.62-4.1,1.31-4.08C662.68,374.29,661.5,376.87,661.83,378.4z"/>
<path class="st9" d="M140.29,397.72c1.03-34.62,10.84-66.57,29.32-95.86c0.66-1.04,1.44-3.07,2.73-2.27
	c1.83,1.13-0.08,2.54-0.77,3.65c-19.25,30.85-29.28,64.33-28.81,100.82c0.01,0.88,0.01,1.76-0.03,2.64
	c-0.04,0.81-0.42,1.48-1.29,1.42c-0.89-0.06-1.14-0.82-1.14-1.59C140.28,403.59,140.29,400.65,140.29,397.72z"/>
<path class="st10" d="M214.52,204.06c0.4,0.09,0.57,0.08,0.68,0.15c7.87,5.43,7.87,5.43,4.09,14.08c-0.29,0.67-0.51,1.38-0.88,2
	c-0.87,1.45-0.95,4.38-2.49,4.18c-2.28-0.3-4.42-2.01-6.49-3.32c-0.84-0.53-0.4-1.59-0.1-2.42
	C211.06,213.83,212.8,208.93,214.52,204.06z"/>
<path class="st11" d="M219.36,120.01c-0.04-3.4,0.72-5.98,2.99-7.97c0.96-0.84,2.09-1.13,3.27-0.8c1.61,0.45,1.09,1.87,1.06,2.94
	c-0.09,2.98-1.11,5.72-2.39,8.36c-0.54,1.11-0.73,2.98-2.22,2.82c-1.8-0.2-2.28-2.03-2.54-3.66
	C219.4,120.98,219.38,120.24,219.36,120.01z"/>
<path class="st12" d="M727.15,282.9c0.89-2.51,2.15-4.22,4.01-5.5c1.24-0.85,2.51-1.06,3.46,0.25c1.08,1.49,0.49,2.81-1,3.63
	C731.73,282.33,729.79,283.36,727.15,282.9z"/>
<path class="st13" d="M744.05,317.02c-0.46-2.58,0.46-3.9,2.2-4.72c0.6-0.28,1.22,0,1.3,0.69
	C747.87,315.42,746.17,316.21,744.05,317.02z"/>
<path class="st5" d="M721.89,419.61c-3.75,0.57-6.58-0.4-9.18-2.08c-1.35-0.87-2.75-2.1-1.71-3.91c1.08-1.88,2.89-2.28,4.89-1.33
	C718.85,413.7,720.18,416.42,721.89,419.61z"/>
<path class="st14" d="M132.5,233.34c2.21,1.99,6.25,0.86,5.9,4.14c-0.26,2.46,0.3,6.49-3.63,7.07c-2.82,0.42-4.13-1.36-3.45-4.34
	C131.81,238.11,130.9,235.65,132.5,233.34z"/>
<path class="st0" d="M575.57,354.1c-1.02,1.96-3.18,2.4-4.87,3.39c-1.95,1.14-2.13-0.97-2.66-1.92c-2.98-5.37-6-10.73-8.69-16.25
	c-1.34-2.75-2.62-3.56-5.05-1.37c-3,2.71-4.67,2.14-6.4-1.69c-3.79-8.39-7.96-16.63-12.35-24.73c-1.77-3.26-1.06-4.67,1.94-6.34
	c5.53-3.07,5.44-3.24,7.95,2.46c2.17,4.95,4.46,9.87,6.45,14.9c1.03,2.59,2.22,3.08,4.42,1.39c3.18-2.44,4.86-1.63,6.44,2.15
	c3.62,8.62,7.8,17.01,11.74,25.5C574.87,352.38,575.19,353.2,575.57,354.1z"/>
<path class="st15" d="M392.27,304.59c-3.04,0.76-5.56,1.35-8.05,2.03c-1.63,0.45-2.74-0.06-3.79-1.36
	c-3.7-4.54-7.43-9.06-11.3-13.45c-1.53-1.74-1.07-2.38,0.69-3.51c7.54-4.8,7.51-4.87,12.69,2.43
	C385.7,295.24,388.87,299.76,392.27,304.59z"/>
<path class="st16" d="M536.99,374.69c-0.63,0.76-1.12,1.47-1.72,2.05c-4.01,3.83-8.1,7.59-12.06,11.47
	c-1.46,1.43-2.52,1.51-3.96-0.05c-2.37-2.57-4.84-5.08-7.44-7.43c-1.89-1.71-1.29-2.79,0.33-4.16c4.35-3.68,8.66-7.4,12.87-11.23
	c1.67-1.52,2.85-1.59,4.3,0.2c2.02,2.49,4.22,4.84,6.32,7.27C536.1,373.34,536.47,373.95,536.99,374.69z"/>
<path class="st0" d="M485.64,545.28c0.55-21.57,2.99-42.97,5.43-64.38c0.13-1.12,0.04-2.88,1.5-2.72c1.97,0.22,1.04,2.15,0.93,3.25
	c-0.9,8.89-1.92,17.77-2.92,26.65c-1.81,16.05-2.83,32.13-2.23,48.29c0.04,1.16,0.14,2.37,0.48,3.47c0.56,1.81-0.01,4.8,2.61,4.86
	c2.3,0.05,2.86-2.72,3.51-4.58c3.54-10.12,4.63-20.85,7.49-31.15c1.45-5.24,3.08-10.39,6.02-15.03c1.43-2.27,3.25-4.15,5.48-5.63
	c0.64-0.43,1.29-0.75,1.87,0.09c0.38,0.55,0.41,1.13-0.11,1.56c-10.96,9.13-11.14,22.66-14.26,34.98
	c-0.97,3.83-1.69,7.72-2.69,11.54c-0.56,2.11-1.37,4.17-2.27,6.17c-1.1,2.46-2.58,5.12-5.62,4.8c-3.45-0.36-3.71-3.72-4.28-6.39
	C485.47,555.87,485.64,550.57,485.64,545.28z"/>
<path class="st3" d="M542.61,488.95c0-2.99,0.66-5.78,2.53-8.19c3.7-4.78,9.77-4.75,13.34,0.14c2.79,3.83,3.05,8.15,1.72,12.52
	c-1.41,4.62-5.57,7.55-9.4,6.99C546.14,499.71,542.67,494.87,542.61,488.95z"/>
<path class="st0" d="M230.08,390.63c-4.97-0.35-9.62,0.49-14.3,0.74c-0.92,0.05-2.33,0.43-2.38-1.1c-0.05-1.43,1.29-1.32,2.28-1.41
	c10.39-0.91,20.77-1.52,31.08,0.77c3.18,0.71,6.24,1.71,8.73,3.9c4.25,3.75,3.87,9.12-0.94,12.14c-5.31,3.33-11.51,4.18-17.38,5.94
	c-6.46,1.94-12.91,3.86-18.61,7.63c-6.83,4.51-11.02,10.77-12.69,18.79c-0.21,1.01,0.27,3.22-1.9,2.63
	c-1.74-0.47-0.5-2.02-0.34-2.99c1.77-10.51,8-17.65,17.18-22.52c7.32-3.88,15.35-5.66,23.21-7.97c2.8-0.82,5.58-1.78,8.25-2.95
	c1.88-0.83,3.54-2.11,3.6-4.56c0.07-2.74-1.54-4.36-3.7-5.52c-5.04-2.72-10.64-3.09-16.19-3.5
	C233.94,390.5,231.88,390.63,230.08,390.63z"/>
<path class="st3" d="M257.93,249.16c0.07,5.46-4.99,10.64-10.59,10.84c-4.85,0.18-8.82-3.54-8.89-8.31
	c-0.08-5.43,5.01-10.63,10.6-10.84C253.91,240.67,257.87,244.38,257.93,249.16z"/>
<path class="st17" d="M607.05,207.8c0.07-4.95,3.7-8.51,8.64-8.49c4.98,0.02,8.95,4.04,8.81,8.92c-0.13,4.68-4.12,8.6-8.8,8.63
	C610.86,216.9,606.97,212.84,607.05,207.8z"/>
<path class="st7" d="M521.59,386.36c-2.09-0.81-3.02-2.82-4.65-3.96c-3.66-2.55-3.35-4.7,0.28-7.02c1.83-1.17,3.36-2.82,5.01-4.27
	c4.99-4.35,4.9-4.27,9.43,0.73c1.81,1.99,2.33,3.3-0.09,5.23c-2.85,2.28-5.36,4.98-8.02,7.5
	C522.92,385.17,522.26,385.75,521.59,386.36z"/>
</svg>
