<?xml version="1.0" encoding="utf-8"?>
<!-- Generator: Adobe Illustrator 24.0.1, SVG Export Plug-In . SVG Version: 6.00 Build 0)  -->
<svg version="1.1" id="Layer_1" xmlns="http://www.w3.org/2000/svg" xmlns:xlink="http://www.w3.org/1999/xlink" x="0px" y="0px"
	 viewBox="0 0 583.16 171.69" style="enable-background:new 0 0 583.16 171.69;" xml:space="preserve">
<style type="text/css">
	.st0{fill-rule:evenodd;clip-rule:evenodd;fill:#01AAAF;}
	.st1{fill:#01AAAF;}
</style>
<g>
	<g>
		<g>
			<g>
				<path class="st0" d="M153.48,53.13v60.43c0,6.32-3.47,12.14-9.03,15.14l-57.8,31.19c-5.1,2.75-11.24,2.75-16.34,0l-57.79-31.19
					c-5.56-3-9.03-8.82-9.03-15.14V53.13c0-6.32,3.47-12.14,9.03-15.14L70.3,6.8c5.1-2.75,11.24-2.75,16.34,0l57.8,31.19
					C150.01,41,153.48,46.81,153.48,53.13z M121.81,100.81V65.89c0-3.65-2-7.01-5.22-8.75L83.2,39.12c-2.95-1.59-6.5-1.59-9.44,0
					L40.36,57.15c-3.22,1.73-5.22,5.09-5.22,8.75v34.92c0,3.65,2,7.01,5.22,8.75l33.39,18.02c2.95,1.59,6.5,1.59,9.44,0l33.39-18.02
					C119.81,107.82,121.81,104.46,121.81,100.81z"/>
			</g>
			<polygon class="st1" points="91.41,92.77 51.74,75.38 51.74,110.17 			"/>
			<polygon class="st1" points="66.74,74.02 106.41,56.62 106.41,91.41 			"/>
		</g>
	</g>
	<g>
		<path d="M254.92,115.16c-0.14,5.91-0.78,10.97-1.91,15.18c-1.13,4.21-2.97,7.61-5.51,10.22c-2.55,2.6-5.88,4.51-10,5.71
			s-9.24,1.8-15.35,1.8c-4.41,0-8.68-0.45-12.81-1.35c-4.13-0.9-7.92-2.33-11.36-4.28c-3.44-1.95-6.39-4.51-8.87-7.66
			c-2.47-3.16-4.2-6.99-5.18-11.49h17.13c1.06,4.41,3.45,7.51,7.16,9.32c3.71,1.8,8.02,2.7,12.93,2.7c3.81,0,6.85-0.55,9.14-1.65
			c2.29-1.1,4.07-2.61,5.35-4.51c1.28-1.9,2.11-4.18,2.49-6.84c0.38-2.66,0.61-5.58,0.68-8.79l0.15-7.66l-0.36-0.3
			c-3.88,7.81-10.42,11.72-19.64,11.72c-9.72,0-17.74-2.83-24.05-8.49c-6.32-5.66-10.45-13.45-12.4-23.36
			c-1.14-5.81-1.4-11.59-0.77-17.35c0.62-5.76,2.17-10.89,4.64-15.4c2.47-4.51,5.94-8.16,10.4-10.97c4.46-2.8,9.94-4.21,16.45-4.21
			c5.71,0,10.84,1.15,15.4,3.46c4.56,2.31,8.42,6.16,11.58,11.57h0.3v0c-0.16-7.47,5.25-12.92,12.84-12.92h3.11L254.92,115.16z
			 M199.48,84.51c0.51,2.61,1.3,5.08,2.36,7.44c1.06,2.36,2.42,4.41,4.06,6.16c1.64,1.75,3.59,3.13,5.84,4.13
			c2.25,1,4.83,1.5,7.73,1.5c4.61,0,8.33-1.05,11.18-3.16c2.84-2.1,4.99-4.81,6.45-8.11c1.46-3.31,2.25-7.01,2.4-11.12
			c0.15-4.11-0.16-8.11-0.93-12.02c-1.12-5.71-3.45-10.19-6.99-13.45c-3.54-3.25-8.17-4.88-13.88-4.88c-4.21,0-7.65,1.08-10.33,3.23
			c-2.68,2.16-4.73,4.88-6.13,8.19c-1.41,3.31-2.22,6.94-2.45,10.89C198.56,77.28,198.79,81.01,199.48,84.51z"/>
		<path d="M290.28,39.58L290.28,39.58l-0.18,15.18l0.36,0.3c0.79-2.1,1.85-4.21,3.19-6.31c1.34-2.1,2.9-3.98,4.68-5.63
			c1.78-1.65,3.79-3.01,6.04-4.06c2.25-1.05,4.72-1.58,7.43-1.58c1.4,0,2.78,0.03,4.15,0.08c1.36,0.05,2.76,0.18,4.21,0.38
			l-0.39,16.38c-1.04-0.2-2.07-0.35-3.09-0.45c-1.02-0.1-2.03-0.15-3.03-0.15c-4.41,0-8.09,0.78-11.04,2.33
			c-2.95,1.55-5.29,3.68-7.01,6.39c-1.72,2.7-2.94,5.81-3.66,9.32c-0.72,3.51-1.09,7.21-1.12,11.12l-0.24,17.64
			c-0.13,9.77-7.37,16.76-17.35,16.76h0l0.67-61.79C273.99,46.22,280.83,39.58,290.28,39.58z"/>
		<path d="M393.51,94.73c-0.02,1.4-0.09,2.76-0.18,4.06c-0.1,1.3-0.03,2.51,0.18,3.61c0.22,1.1,0.63,1.95,1.25,2.55
			c0.62,0.6,1.63,0.9,3.03,0.9c1,0,1.98-0.12,2.93-0.38c0.95-0.25,1.92-0.42,2.9-0.53l-0.29,12.32c-2.11,0.5-4.22,0.98-6.33,1.43
			c-2.12,0.45-4.33,0.68-6.63,0.68c-2.91,0-5.49-0.9-7.74-2.7c-2.26-1.8-3.78-4.21-4.57-7.21c-2.74,3.41-6.25,5.91-10.55,7.51
			c-4.29,1.6-8.84,2.4-13.65,2.4c-3.21,0-6.35-0.45-9.43-1.35c-3.08-0.9-5.92-2.2-8.5-3.91c-2.59-1.7-4.79-3.86-6.6-6.46
			c-1.81-2.6-3.05-5.61-3.72-9.01c-0.94-4.81-0.83-8.84,0.33-12.1c1.16-3.25,3.04-5.93,5.64-8.04c2.59-2.1,5.74-3.66,9.45-4.66
			c3.71-1,7.69-1.65,11.94-1.95c5.73-0.4,11.35-0.85,16.86-1.35c3.06-0.2,5.14-1.23,6.23-3.08c1.09-1.85,1.35-4.23,0.78-7.14
			c-0.73-3.7-2.52-6.18-5.37-7.44c-2.85-1.25-6.03-1.88-9.53-1.88c-4.81,0-8.78,0.83-11.91,2.48c-3.13,1.65-4.83,4.88-5.09,9.69
			h-16.23c-0.04-4.81,0.72-8.84,2.29-12.1c1.56-3.25,3.75-5.91,6.55-7.96c2.8-2.05,6.15-3.51,10.04-4.36
			c3.89-0.85,8.14-1.28,12.75-1.28c7.01,0,12.63,0.68,16.85,2.03c4.22,1.35,7.44,2.98,9.67,4.88c2.23,1.9,3.74,3.88,4.54,5.94
			c0.8,2.05,1.34,3.78,1.62,5.18c0.67,3.41,0.93,7.31,0.8,11.72L393.51,94.73z M342.2,95.93c0.37,1.9,1.11,3.48,2.21,4.73
			c1.1,1.25,2.37,2.25,3.82,3c1.45,0.75,3.01,1.3,4.68,1.65c1.67,0.35,3.31,0.53,4.91,0.53c4.21,0,7.6-0.7,10.18-2.1
			c2.58-1.4,4.56-3.31,5.94-5.71c1.38-2.4,2.28-5.23,2.69-8.49c0.41-3.25,0.56-6.74,0.43-10.44l-0.36-0.3
			c-0.97,1.2-2.4,2.05-4.31,2.55c-1.91,0.5-3.79,0.85-5.65,1.05c-2.36,0.2-5.1,0.4-8.22,0.6c-3.12,0.2-5.97,0.73-8.56,1.58
			c-2.59,0.85-4.69,2.16-6.3,3.91C342.07,90.25,341.58,92.73,342.2,95.93z"/>
		<path d="M430.47,39.58L430.47,39.58l-0.31,9.92l0.36,0.3c1.94-3.91,4.9-6.94,8.89-9.09c3.98-2.15,8.38-3.23,13.19-3.23
			s9.22,0.8,13.24,2.4c4.02,1.6,7.54,3.83,10.55,6.69c3.01,2.85,5.53,6.26,7.56,10.22c2.03,3.96,3.49,8.24,4.4,12.85
			c1.16,5.91,1.52,11.85,1.09,17.81c-0.43,5.96-1.84,11.3-4.22,16c-2.38,4.71-5.79,8.54-10.22,11.49c-4.43,2.95-10,4.43-16.71,4.43
			c-5.71,0-10.96-0.98-15.75-2.93c-4.79-1.95-8.93-5.68-12.41-11.19h-0.3l-0.25,23.94c-0.1,9.77-7.33,16.77-17.31,16.77h0
			l1.03-89.76C413.41,46.53,420.58,39.58,430.47,39.58z M430.68,85.86c0.55,2.81,1.38,5.41,2.51,7.81c1.12,2.4,2.54,4.51,4.24,6.31
			c1.71,1.8,3.76,3.23,6.17,4.28c2.41,1.05,5.12,1.58,8.12,1.58c4.61,0,8.39-1.03,11.34-3.08c2.95-2.05,5.18-4.73,6.69-8.04
			c1.5-3.31,2.38-7.01,2.63-11.12c0.25-4.11-0.03-8.21-0.84-12.32c-0.55-2.8-1.39-5.43-2.52-7.89c-1.13-2.45-2.58-4.61-4.35-6.46
			c-1.77-1.85-3.83-3.31-6.19-4.36c-2.36-1.05-5.04-1.58-8.05-1.58c-4.61,0-8.38,1.05-11.33,3.16c-2.94,2.1-5.16,4.83-6.66,8.19
			c-1.5,3.36-2.36,7.11-2.6,11.27C429.62,77.77,429.9,81.86,430.68,85.86z"/>
		<path d="M522.28,39.58L522.28,39.58l-0.31,9.92l0.36,0.3c1.94-3.91,4.9-6.94,8.89-9.09c3.98-2.15,8.38-3.23,13.19-3.23
			s9.22,0.8,13.24,2.4c4.02,1.6,7.54,3.83,10.55,6.69c3.01,2.85,5.53,6.26,7.56,10.22c2.03,3.96,3.49,8.24,4.4,12.85
			c1.16,5.91,1.52,11.85,1.09,17.81c-0.43,5.96-1.84,11.3-4.22,16c-2.38,4.71-5.79,8.54-10.22,11.49c-4.43,2.95-10,4.43-16.71,4.43
			c-5.71,0-10.96-0.98-15.75-2.93c-4.79-1.95-8.93-5.68-12.41-11.19h-0.3l-0.25,23.94c-0.1,9.77-7.33,16.77-17.31,16.77l0,0
			l1.03-89.76C505.22,46.53,512.39,39.58,522.28,39.58z M522.49,85.86c0.55,2.81,1.39,5.41,2.51,7.81c1.12,2.4,2.54,4.51,4.24,6.31
			c1.71,1.8,3.76,3.23,6.17,4.28c2.41,1.05,5.12,1.58,8.12,1.58c4.61,0,8.39-1.03,11.34-3.08c2.95-2.05,5.18-4.73,6.69-8.04
			c1.5-3.31,2.38-7.01,2.63-11.12c0.25-4.11-0.03-8.21-0.84-12.32c-0.55-2.8-1.39-5.43-2.52-7.89c-1.13-2.45-2.58-4.61-4.35-6.46
			c-1.77-1.85-3.83-3.31-6.19-4.36c-2.36-1.05-5.04-1.58-8.05-1.58c-4.61,0-8.38,1.05-11.33,3.16c-2.94,2.1-5.16,4.83-6.66,8.19
			c-1.5,3.36-2.36,7.11-2.6,11.27C521.43,77.77,521.7,81.86,522.49,85.86z"/>
	</g>
</g>
</svg>
