<?xml version="1.0" encoding="utf-8"?>
<!-- Generator: Adobe Illustrator 24.0.1, SVG Export Plug-In . SVG Version: 6.00 Build 0)  -->
<svg version="1.1" xmlns="http://www.w3.org/2000/svg" xmlns:xlink="http://www.w3.org/1999/xlink" x="0px" y="0px"
	 viewBox="0 0 365.67 386.78" style="enable-background:new 0 0 365.67 386.78;" xml:space="preserve">
<style type="text/css">
	.st0{fill:#0F4C81;}
	.st1{opacity:0.7;fill:#FFFFFF;}
	.st2{fill:none;stroke:#263238;stroke-linecap:round;stroke-linejoin:round;stroke-miterlimit:10;}
	.st3{fill:#263238;}
	.st4{fill:#263238;stroke:#263238;stroke-linecap:round;stroke-linejoin:round;stroke-miterlimit:10;}
	.st5{opacity:0.5;fill:#FFFFFF;}
	.st6{opacity:0.13;clip-path:url(#XMLID_17_);}
	.st7{fill:none;stroke:#FFFFFF;stroke-linecap:round;stroke-linejoin:round;stroke-miterlimit:10;}
	.st8{clip-path:url(#XMLID_18_);fill:#0F4C81;}
	.st9{opacity:0.5;clip-path:url(#XMLID_18_);fill:#FFFFFF;}
	.st10{clip-path:url(#XMLID_19_);fill:#0F4C81;}
	.st11{opacity:0.5;clip-path:url(#XMLID_19_);fill:#FFFFFF;}
	.st12{clip-path:url(#XMLID_20_);fill:#0F4C81;}
	.st13{opacity:0.5;clip-path:url(#XMLID_20_);fill:#FFFFFF;}
	.st14{fill:#FFFFFF;stroke:#263238;stroke-linecap:round;stroke-linejoin:round;stroke-miterlimit:10;}
	.st15{clip-path:url(#XMLID_21_);fill:#0F4C81;}
	.st16{opacity:0.5;clip-path:url(#XMLID_21_);fill:#FFFFFF;}
	.st17{clip-path:url(#XMLID_22_);fill:#0F4C81;}
	.st18{opacity:0.5;clip-path:url(#XMLID_22_);fill:#FFFFFF;}
	.st19{opacity:0.53;clip-path:url(#XMLID_23_);fill:#FFFFFF;}
	.st20{opacity:0.14;clip-path:url(#XMLID_23_);}
	.st21{clip-path:url(#XMLID_23_);fill:none;stroke:#263238;stroke-linecap:round;stroke-linejoin:round;stroke-miterlimit:10;}
	.st22{clip-path:url(#XMLID_24_);fill:#0F4C81;}
	.st23{opacity:0.5;clip-path:url(#XMLID_24_);fill:#FFFFFF;}
	.st24{opacity:0.53;clip-path:url(#XMLID_25_);fill:#FFFFFF;}
	.st25{opacity:0.14;clip-path:url(#XMLID_25_);}
	.st26{clip-path:url(#XMLID_25_);fill:none;stroke:#263238;stroke-linecap:round;stroke-linejoin:round;stroke-miterlimit:10;}
	.st27{clip-path:url(#XMLID_26_);fill:#0F4C81;}
	.st28{opacity:0.5;clip-path:url(#XMLID_26_);fill:#FFFFFF;}
	.st29{clip-path:url(#XMLID_27_);fill:#0F4C81;}
	.st30{opacity:0.5;clip-path:url(#XMLID_27_);fill:#FFFFFF;}
	.st31{opacity:0.53;clip-path:url(#XMLID_28_);fill:#FFFFFF;}
	.st32{clip-path:url(#XMLID_29_);fill:#0F4C81;}
	.st33{opacity:0.5;clip-path:url(#XMLID_29_);fill:#FFFFFF;}
	.st34{clip-path:url(#XMLID_30_);fill:#0F4C81;}
	.st35{opacity:0.5;clip-path:url(#XMLID_30_);fill:#FFFFFF;}
	.st36{fill:none;stroke:#263238;stroke-width:2;stroke-linecap:round;stroke-linejoin:round;stroke-miterlimit:10;}
	.st37{fill:none;stroke:#FFFFFF;stroke-width:0.75;stroke-linecap:round;stroke-linejoin:round;stroke-miterlimit:10;}
	.st38{clip-path:url(#XMLID_31_);fill:#0F4C81;}
	.st39{opacity:0.5;clip-path:url(#XMLID_31_);fill:#FFFFFF;}
</style>
<g id="Background_Simple">
	<g>
		<path class="st0" d="M344.28,270.72c7.48-61.05-28.74-142.2-66.3-175.71c-67.79-60.49-124.11-48.79-167.92-27.13
			c-43.81,21.67-50.06,94-80.31,126.73c-30.25,32.73-47.45,76.75-1.56,120.57c45.89,43.82,82.91,21.55,130.89,18.78
			c47.98-2.78,111.6,19.1,146.02,0.08C329.14,320.76,340.98,297.7,344.28,270.72z"/>
		<path class="st1" d="M344.28,270.72c7.48-61.05-28.74-142.2-66.3-175.71c-67.79-60.49-124.11-48.79-167.92-27.13
			c-43.81,21.67-50.06,94-80.31,126.73c-30.25,32.73-47.45,76.75-1.56,120.57c45.89,43.82,82.91,21.55,130.89,18.78
			c47.98-2.78,111.6,19.1,146.02,0.08C329.14,320.76,340.98,297.7,344.28,270.72z"/>
	</g>
</g>
<g id="Background">
	<g>
		<g>
			<line class="st2" x1="154.43" y1="268.57" x2="154.43" y2="43.63"/>
			<polyline class="st2" points="8.21,270.79 150.1,270.79 365.67,340.38 			"/>
		</g>
		<path class="st3" d="M72.85,265.52h-9.83V103.46h20.23l-8.73-31.51h-26.2l-8.73,31.51h20.23v162.06h-9.83
			c-5.24,0-9.49,4.2-9.59,9.42c0,0.02-0.01,0.05-0.01,0.07c0,0.01,0,0.02,0,0.03c0,0.03,0,0.05,0,0.08v0h0.01
			c0.29,2.26,9.58,4.07,21,4.07c11.42,0,20.7-1.81,21-4.07h0.05v0C82.45,269.82,78.15,265.52,72.85,265.52z"/>
		<path class="st4" d="M203.41,32.48V223.3l143.67,23.64V8.84L203.41,32.48z M343.35,87.12l-73.05,4.14V24.96l73.05-11.62V87.12z
			 M270.3,98.23l73.05-3.35v66.66l-73.05-3.42V98.23z M264.37,157.85l-58.55-2.74v-53.93l58.55-2.68V157.85z M264.37,25.9v65.69
			l-58.55,3.32V35.22L264.37,25.9z M205.82,161.4l58.55,3.37v65.11l-58.55-9.32V161.4z M270.3,230.82v-65.71l73.05,4.2v73.13
			L270.3,230.82z"/>
	</g>
</g>
<g id="Character">
	<g>
		<g>
			<g>
				<ellipse class="st0" cx="153.86" cy="327.76" rx="114.95" ry="35.81"/>
				<ellipse class="st5" cx="153.86" cy="327.76" rx="114.95" ry="35.81"/>
			</g>
			<g>
				<defs>
					<path id="XMLID_4_" d="M144.14,169.86c0,0-26.05-3.08-43.19,10.28s-31.88,69.24-31.53,95.97c0.34,26.74,10.28,40.1,35.3,51.07
						c25.02,10.97,71.64,6.86,97.69-1.37s34.62-37.02,34.28-52.44c-0.34-15.42-17.48-33.25-23.31-37.02
						c-5.83-3.77-22.28-11.65-30.51-23.99C174.65,200.02,162.65,173.28,144.14,169.86z"/>
				</defs>
				<use xlink:href="#XMLID_4_"  style="overflow:visible;fill:#0F4C81;"/>
				<clipPath id="XMLID_17_">
					<use xlink:href="#XMLID_4_"  style="overflow:visible;"/>
				</clipPath>
				<path class="st6" d="M207.19,323.99c-9.85-1.33-21.53-4-30.37-9.37c-18.67-11.33-23.33-32.67-30-40.67s-18.67-7.33-24-16
					c-5.33-8.67,3.33-72.67-12-76.67c-4.12-1.07-7.22-1.42-9.57-1.36c-0.1,0.07-0.2,0.14-0.3,0.22
					c-17.14,13.37-31.88,69.24-31.53,95.97c0.34,26.74,10.28,40.1,35.3,51.07c25.02,10.97,71.64,6.86,97.69-1.37
					C204.08,325.29,205.67,324.67,207.19,323.99z"/>
				
					<use xlink:href="#XMLID_4_"  style="overflow:visible;fill:none;stroke:#263238;stroke-linecap:round;stroke-linejoin:round;stroke-miterlimit:10;"/>
			</g>
			<g>
				<g>
					<path class="st4" d="M133.89,181.94c0,0-17,3.25-20,6.25s-15.5,50-15.5,50s5.5-1.5,10.5,0.5s5.5,7.25,6,9.75s0.75,9,0.75,9
						s50.53-4.51,61.28-7.01s27.11-3.65,27.11-3.65s-27.64-62.34-31.89-64.59s-22-2.5-24.5-2S133.89,181.94,133.89,181.94z"/>
					<line class="st7" x1="117.14" y1="239.69" x2="121.39" y2="204.94"/>
					<line class="st7" x1="120.39" y1="214.19" x2="126.14" y2="206.69"/>
					<path class="st7" d="M137.64,218.69c0,0,16.25-5.25,27-5.25"/>
					<path class="st7" d="M152.97,204.35l-1.09,8.33c0,0,2.75,0,3,1.25s-1,2.5-1,2.5s7.75,4.25,8.75,9.25"/>
				</g>
				<g>
					<defs>
						<path id="XMLID_14_" d="M143.22,172.6c0,0-9.33,3-10.67,5.33c-1.33,2.33-0.33,18.67-0.33,20.67s1.17-1.17,2.17-3.5
							s4.5-5.83,5.67-5.5c1.17,0.33,1.83,1.67,1.83,3.83c0,2.17,2.67,5.17,5,6.83c2.33,1.67,4.5,3.33,4.5,3.33s4.83-7,6-8.83
							c1.17-1.83,1-5.67,1.17-7c0.17-1.33,3.17,3.67,3.83,2.33c0.67-1.33-1.5-2.5-3.83-6.17c-2.33-3.67-1.67-7.5-5.17-10.17
							C149.89,171.1,145.89,171.94,143.22,172.6z"/>
					</defs>
					<use xlink:href="#XMLID_14_"  style="overflow:visible;fill:#FFFFFF;"/>
					<clipPath id="XMLID_18_">
						<use xlink:href="#XMLID_14_"  style="overflow:visible;"/>
					</clipPath>
					<path class="st8" d="M132.55,177.94c-0.89,1.56-0.74,9.34-0.54,14.95c2.13-2.74,6.51-7.92,9.06-6.94
						c3.24,1.24,4.48,10.46,4.48,10.46l-2.19-23.84c-0.05,0.01-0.1,0.02-0.14,0.04C143.22,172.6,133.89,175.6,132.55,177.94z"/>
					<path class="st9" d="M132.55,177.94c-0.89,1.56-0.74,9.34-0.54,14.95c2.13-2.74,6.51-7.92,9.06-6.94
						c3.24,1.24,4.48,10.46,4.48,10.46l-2.19-23.84c-0.05,0.01-0.1,0.02-0.14,0.04C143.22,172.6,133.89,175.6,132.55,177.94z"/>
					
						<use xlink:href="#XMLID_14_"  style="overflow:visible;fill:none;stroke:#263238;stroke-linecap:round;stroke-linejoin:round;stroke-miterlimit:10;"/>
				</g>
				<g>
					<defs>
						<path id="XMLID_15_" d="M121.14,240.19c0,0-5.75-8.25-12.75-9s-15.5,5-15.75,7s-2,12.75-0.75,14.25s6,2.75,15.25-0.25
							S120.14,245.44,121.14,240.19z"/>
					</defs>
					<use xlink:href="#XMLID_15_"  style="overflow:visible;fill:#FFFFFF;"/>
					<clipPath id="XMLID_19_">
						<use xlink:href="#XMLID_15_"  style="overflow:visible;"/>
					</clipPath>
					<path class="st10" d="M97.74,252.18c0,0-1.99-5.73-1-7.72c1-1.99,4.98-4.98,7.47-7.97c2.49-2.99-5.83,1.69-6.22,0
						c-0.32-1.36,4.38-4.07,6.24-5.08c-5.82,1.11-11.39,5.16-11.59,6.78c-0.25,2-2,12.75-0.75,14.25c0.65,0.77,2.23,1.48,4.88,1.57
						C97.37,252.95,97.74,252.18,97.74,252.18z"/>
					<path class="st11" d="M97.74,252.18c0,0-1.99-5.73-1-7.72c1-1.99,4.98-4.98,7.47-7.97c2.49-2.99-5.83,1.69-6.22,0
						c-0.32-1.36,4.38-4.07,6.24-5.08c-5.82,1.11-11.39,5.16-11.59,6.78c-0.25,2-2,12.75-0.75,14.25c0.65,0.77,2.23,1.48,4.88,1.57
						C97.37,252.95,97.74,252.18,97.74,252.18z"/>
					
						<use xlink:href="#XMLID_15_"  style="overflow:visible;fill:none;stroke:#263238;stroke-linecap:round;stroke-linejoin:round;stroke-miterlimit:10;"/>
				</g>
			</g>
			<g>
				<defs>
					<path id="XMLID_8_" d="M101.64,242.44c0,0-9.38,3.72-9.75,11c-0.2,4.03,6.5,5.75,13.5,5.75s17-8.75,23.5-12.5
						s21.5-12.5,23.25-13.25s7.75,1.25,10.25,2s7.25,0.75,7.25,0.75s3.5,5.5,5.25,5.5s-3.75-8.25-4.5-10s-13-5.75-14.5-5.75
						s-36.5,8.75-41.75,10.75S101.64,242.44,101.64,242.44z"/>
				</defs>
				<use xlink:href="#XMLID_8_"  style="overflow:visible;fill:#FFFFFF;"/>
				<clipPath id="XMLID_20_">
					<use xlink:href="#XMLID_8_"  style="overflow:visible;"/>
				</clipPath>
				<path class="st12" d="M121.24,241.4c14.3-7.15,34.64-15.46,34.64-15.46c-1.5,0-36.5,8.75-41.75,10.75s-12.5,5.75-12.5,5.75
					s-9.38,3.72-9.75,11c-0.2,4.03,6.5,5.75,13.5,5.75s17-8.75,23.5-12.5c1.1-0.64,2.45-1.42,3.94-2.28
					C123.27,245.64,110.51,246.76,121.24,241.4z"/>
				<path class="st13" d="M121.24,241.4c14.3-7.15,34.64-15.46,34.64-15.46c-1.5,0-36.5,8.75-41.75,10.75s-12.5,5.75-12.5,5.75
					s-9.38,3.72-9.75,11c-0.2,4.03,6.5,5.75,13.5,5.75s17-8.75,23.5-12.5c1.1-0.64,2.45-1.42,3.94-2.28
					C123.27,245.64,110.51,246.76,121.24,241.4z"/>
				
					<use xlink:href="#XMLID_8_"  style="overflow:visible;fill:none;stroke:#263238;stroke-linecap:round;stroke-linejoin:round;stroke-miterlimit:10;"/>
			</g>
			<g>
				<path class="st14" d="M174.75,186.83l-7.62,42.85l55,0.25l8.18-40.64c0.31-1.53-0.84-2.97-2.4-3.02l-50.6-1.53
					C176.06,184.72,174.97,185.6,174.75,186.83z"/>
				<g>
					<defs>
						<polygon id="XMLID_9_" points="167.14,229.69 140.36,248.63 201.61,246.88 222.14,229.94 						"/>
					</defs>
					<use xlink:href="#XMLID_9_"  style="overflow:visible;fill:#FFFFFF;"/>
					<clipPath id="XMLID_21_">
						<use xlink:href="#XMLID_9_"  style="overflow:visible;"/>
					</clipPath>
					<polygon class="st15" points="167.14,229.69 140.36,248.63 201.61,246.88 222.14,229.94 					"/>
					<polygon class="st16" points="167.14,229.69 140.36,248.63 201.61,246.88 222.14,229.94 					"/>
					
						<use xlink:href="#XMLID_9_"  style="overflow:visible;fill:none;stroke:#263238;stroke-linecap:round;stroke-linejoin:round;stroke-miterlimit:10;"/>
				</g>
			</g>
			<g>
				<defs>
					<path id="XMLID_12_" d="M187.39,248.44c0,0,22-19.25,43.75-25.75s26.25-5.5,25.75,4.25s-11,60.75-18,73.75
						s-15.75,36.75-15.5,41.25s8.75,17.75,16.25,22.5s6.75,10.5,2,11.5s-10.25,2.75-26.5-7.75s-23-25.5-22-29.25
						s11.5-8.75,15.75-16.25s11.25-35.5,11.75-48.25s5-23.5,5-23.5s-27.5,5-35.5,10L187.39,248.44z"/>
				</defs>
				<use xlink:href="#XMLID_12_"  style="overflow:visible;fill:#FFFFFF;"/>
				<clipPath id="XMLID_22_">
					<use xlink:href="#XMLID_12_"  style="overflow:visible;"/>
				</clipPath>
				<path class="st17" d="M187.39,248.44c0,0,22-19.25,43.75-25.75s26.25-5.5,25.75,4.25s-11,60.75-18,73.75
					s-15.75,36.75-15.5,41.25s8.75,17.75,16.25,22.5s6.75,10.5,2,11.5s-10.25,2.75-26.5-7.75s-23-25.5-22-29.25
					s11.5-8.75,15.75-16.25s11.25-35.5,11.75-48.25s5-23.5,5-23.5s-27.5,5-35.5,10L187.39,248.44z"/>
				<path class="st18" d="M187.39,248.44c0,0,22-19.25,43.75-25.75s26.25-5.5,25.75,4.25s-11,60.75-18,73.75
					s-15.75,36.75-15.5,41.25s8.75,17.75,16.25,22.5s6.75,10.5,2,11.5s-10.25,2.75-26.5-7.75s-23-25.5-22-29.25
					s11.5-8.75,15.75-16.25s11.25-35.5,11.75-48.25s5-23.5,5-23.5s-27.5,5-35.5,10L187.39,248.44z"/>
				
					<use xlink:href="#XMLID_12_"  style="overflow:visible;fill:none;stroke:#263238;stroke-linecap:round;stroke-linejoin:round;stroke-miterlimit:10;"/>
			</g>
			<path class="st14" d="M208.89,322.69c-0.32,0.56-0.68,1.1-1.06,1.64c3.86,0.43,9.42,1.8,14.06,5.86
				c1.35,1.19,2.47,2.29,3.42,3.31c2.93-9.34,8.68-23.71,13.58-32.81c7-13,17.5-64,18-73.75s-4-10.75-25.75-4.25
				s-43.75,25.75-43.75,25.75l2.75,12.5c8-5,35.5-10,35.5-10s-4.5,10.75-5,23.5S213.14,315.19,208.89,322.69z"/>
			<g>
				<defs>
					<path id="XMLID_2_" d="M208.89,322.69c-0.32,0.56-0.68,1.1-1.06,1.64c3.86,0.43,9.42,1.8,14.06,5.86
						c1.35,1.19,2.47,2.29,3.42,3.31c4.79-6.43,10.18-26.75,16.26-35.11c15.71-21.59,14.82-61.7,15.32-71.45s-4-10.75-25.75-4.25
						s-43.75,25.75-43.75,25.75l2.75,12.5c8-5,35.5-10,35.5-10s-4.5,10.75-5,23.5S213.14,315.19,208.89,322.69z"/>
				</defs>
				<use xlink:href="#XMLID_2_"  style="overflow:visible;fill:#263238;"/>
				<clipPath id="XMLID_23_">
					<use xlink:href="#XMLID_2_"  style="overflow:visible;"/>
				</clipPath>
				<path class="st19" d="M208.89,322.69c-0.32,0.56-0.68,1.1-1.06,1.64c3.86,0.43,9.42,1.8,14.06,5.86
					c1.35,1.19,2.47,2.29,3.42,3.31c4.79-6.43,10.18-26.75,16.26-35.11c15.71-21.59,14.82-61.7,15.32-71.45s-4-10.75-25.75-4.25
					s-43.75,25.75-43.75,25.75l2.75,12.5c8-5,35.5-10,35.5-10s-4.5,10.75-5,23.5S213.14,315.19,208.89,322.69z"/>
				<path class="st20" d="M246.32,225.62c-0.39-3.55-39.06,12.82-55.37,19.88c-2.26,1.8-3.56,2.94-3.56,2.94l2.75,12.5
					c8-5,35.5-10,35.5-10s-4.5,10.75-5,23.5s-7.5,40.75-11.75,48.25c-0.32,0.56-0.68,1.1-1.06,1.64c2.25,0.25,5.08,0.83,7.98,2.07
					c6.06-12.8,12.47-27.65,15.52-39.28C236.82,266.12,246.82,230.12,246.32,225.62z"/>
				<path class="st21" d="M225.64,250.94c0,0,7.5-15.25,14-21.5"/>
				
					<use xlink:href="#XMLID_2_"  style="overflow:visible;fill:none;stroke:#263238;stroke-linecap:round;stroke-linejoin:round;stroke-miterlimit:10;"/>
			</g>
			<path class="st4" d="M154.43,268.57c0,0,12.34-0.34,23.65-4.46c11.31-4.11-9.25-11.65-17.14-7.54
				C153.06,260.69,154.43,268.57,154.43,268.57z"/>
			<g>
				<defs>
					<path id="XMLID_10_" d="M121.89,252.44c0,0-8,4.5-10.75,9.5s9.08,13.33,21.58,12.83s35.42-14.08,35.42-14.08s0.25,22,4.5,30
						s23.75,27.5,31.5,32.5s33.75,23.75,37.75,26.75s11.5,8.5,13.25,8.75s20-22,24.25-29.5s8-23.25,6.5-26.75s-4.5-0.5-7.5,2
						s-30.5,20.75-33,22s-4.25,1.75-4.25,1.75s-22.5-21.5-34.5-38s-13-37.75-17.5-45.75s-11-11.5-20.75-10.5
						S138.39,240.19,121.89,252.44z"/>
				</defs>
				<use xlink:href="#XMLID_10_"  style="overflow:visible;fill:#FFFFFF;"/>
				<clipPath id="XMLID_24_">
					<use xlink:href="#XMLID_10_"  style="overflow:visible;"/>
				</clipPath>
				<path class="st22" d="M227.67,339.64c6.68,4.78,12.49,9.01,14.22,10.3c4,3,11.5,8.5,13.25,8.75c0.62,0.09,3.32-2.66,6.73-6.57
					l-28.63-18.42L227.67,339.64z"/>
				<path class="st23" d="M227.67,339.64c6.68,4.78,12.49,9.01,14.22,10.3c4,3,11.5,8.5,13.25,8.75c0.62,0.09,3.32-2.66,6.73-6.57
					l-28.63-18.42L227.67,339.64z"/>
				
					<use xlink:href="#XMLID_10_"  style="overflow:visible;fill:none;stroke:#263238;stroke-linecap:round;stroke-linejoin:round;stroke-miterlimit:10;"/>
			</g>
			<g>
				<defs>
					<path id="XMLID_1_" d="M239.58,326.68c-5.29-5.16-25.12-31.77-32.95-47.07c-11.47-22.42-12.7-30.06-17.2-38.06
						s-11.3-8.62-21.05-7.62s-27.19,2.81-48.6,14.95c0,0-8.98,4.88-11.73,9.88s7.26,17.59,24.67,16
						c12.46-1.14,35.42-14.08,35.42-14.08s0.25,22,4.5,30s23.75,27.5,31.5,32.5c4.91,3.17,17.16,11.87,26.49,18.58
						C232.97,333.39,237.1,328.8,239.58,326.68z"/>
				</defs>
				<use xlink:href="#XMLID_1_"  style="overflow:visible;fill:#263238;"/>
				<clipPath id="XMLID_25_">
					<use xlink:href="#XMLID_1_"  style="overflow:visible;"/>
				</clipPath>
				<path class="st24" d="M239.58,326.68c-5.29-5.16-25.12-31.77-32.95-47.07c-11.47-22.42-12.7-30.06-17.2-38.06
					s-11.3-8.62-21.05-7.62s-27.19,2.81-48.6,14.95c0,0-8.98,4.88-11.73,9.88s7.26,17.59,24.67,16
					c12.46-1.14,35.42-14.08,35.42-14.08s0.25,22,4.5,30s23.75,27.5,31.5,32.5c4.91,3.17,17.16,11.87,26.49,18.58
					C232.97,333.39,237.1,328.8,239.58,326.68z"/>
				<path class="st25" d="M189.32,291.12c-7.5-19-3-57-24-52c-15.3,3.64-43.35,16.58-57.44,23.33c1.66,5.74,10.86,13.6,24.84,12.32
					c12.46-1.14,35.42-14.08,35.42-14.08s0.25,22,4.5,30s23.75,27.5,31.5,32.5c4.91,3.17,17.16,11.87,26.49,18.58
					c0.95-3.39,2.19-6.14,3.49-8.38C215.5,319.63,193.5,301.72,189.32,291.12z"/>
				<line class="st26" x1="168.14" y1="260.69" x2="167.39" y2="247.69"/>
				
					<use xlink:href="#XMLID_1_"  style="overflow:visible;fill:none;stroke:#263238;stroke-linecap:round;stroke-linejoin:round;stroke-miterlimit:10;"/>
			</g>
			<path class="st4" d="M241.89,349.94c4,3,11.5,8.5,13.25,8.75s20-22,24.25-29.5s8-23.25,6.5-26.75s-4.5-0.5-7.5,2
				s-30.5,20.75-33,22c-0.65,0.33-1.25,0.6-1.79,0.83c-0.72,1.37-1.6,3.49-0.96,4.92c1,2.25,5.25,5.25,5.25,5.25l-7.56,11.35
				C241,349.28,241.53,349.67,241.89,349.94z"/>
			<g>
				<defs>
					<path id="XMLID_11_" d="M279.39,329.19c4.25-7.5,8-23.25,6.5-26.75c-0.87-2.03-2.24-1.87-3.83-0.89
						c1.05,4.68-0.01,13.69-5.17,23.39c-4.61,8.66-18.85,23.97-26.02,31.42c1.95,1.28,3.57,2.23,4.27,2.33
						C256.89,358.94,275.14,336.69,279.39,329.19z"/>
				</defs>
				<use xlink:href="#XMLID_11_"  style="overflow:visible;fill:#FFFFFF;"/>
				<clipPath id="XMLID_26_">
					<use xlink:href="#XMLID_11_"  style="overflow:visible;"/>
				</clipPath>
				<path class="st27" d="M255.39,358.62c0.06-0.03,0.13-0.07,0.21-0.12c0.02-0.01,0.04-0.03,0.07-0.04
					c0.1-0.07,0.21-0.15,0.33-0.25c0.04-0.03,0.08-0.06,0.12-0.1c0.09-0.07,0.19-0.16,0.29-0.25c0.05-0.05,0.11-0.09,0.16-0.14
					c0.12-0.11,0.25-0.23,0.39-0.36c0.08-0.07,0.16-0.15,0.24-0.23c0.11-0.1,0.22-0.21,0.33-0.32c0.09-0.09,0.19-0.19,0.28-0.28
					c0.09-0.09,0.18-0.19,0.28-0.28c0.23-0.24,0.47-0.48,0.71-0.75c0.04-0.04,0.07-0.08,0.11-0.12c0.15-0.16,0.3-0.32,0.45-0.48
					c0.06-0.06,0.12-0.13,0.18-0.19c0.52-0.57,1.08-1.18,1.66-1.84c0.02-0.02,0.03-0.03,0.05-0.05c0.2-0.23,0.41-0.46,0.61-0.7
					c0,0,0,0,0,0l-4.37-2.81c-2.49,2.7-4.8,5.14-6.64,7.05c0,0,0,0,0,0c0.23,0.15,0.46,0.3,0.68,0.44c0.03,0.02,0.06,0.04,0.09,0.06
					c0.21,0.13,0.42,0.27,0.62,0.39c0,0,0.01,0,0.01,0.01c0.34,0.21,0.66,0.4,0.96,0.57c0.09,0.05,0.19,0.11,0.28,0.16
					c0.1,0.05,0.19,0.1,0.28,0.15c0.11,0.06,0.22,0.11,0.32,0.16c0.08,0.04,0.15,0.07,0.22,0.1c0.11,0.05,0.21,0.09,0.31,0.13
					c0.05,0.02,0.1,0.04,0.15,0.06c0.14,0.05,0.26,0.08,0.36,0.1c0.05,0.01,0.11-0.01,0.19-0.04
					C255.35,358.64,255.37,358.63,255.39,358.62z"/>
				<path class="st28" d="M255.39,358.62c0.06-0.03,0.13-0.07,0.21-0.12c0.02-0.01,0.04-0.03,0.07-0.04
					c0.1-0.07,0.21-0.15,0.33-0.25c0.04-0.03,0.08-0.06,0.12-0.1c0.09-0.07,0.19-0.16,0.29-0.25c0.05-0.05,0.11-0.09,0.16-0.14
					c0.12-0.11,0.25-0.23,0.39-0.36c0.08-0.07,0.16-0.15,0.24-0.23c0.11-0.1,0.22-0.21,0.33-0.32c0.09-0.09,0.19-0.19,0.28-0.28
					c0.09-0.09,0.18-0.19,0.28-0.28c0.23-0.24,0.47-0.48,0.71-0.75c0.04-0.04,0.07-0.08,0.11-0.12c0.15-0.16,0.3-0.32,0.45-0.48
					c0.06-0.06,0.12-0.13,0.18-0.19c0.52-0.57,1.08-1.18,1.66-1.84c0.02-0.02,0.03-0.03,0.05-0.05c0.2-0.23,0.41-0.46,0.61-0.7
					c0,0,0,0,0,0l-4.37-2.81c-2.49,2.7-4.8,5.14-6.64,7.05c0,0,0,0,0,0c0.23,0.15,0.46,0.3,0.68,0.44c0.03,0.02,0.06,0.04,0.09,0.06
					c0.21,0.13,0.42,0.27,0.62,0.39c0,0,0.01,0,0.01,0.01c0.34,0.21,0.66,0.4,0.96,0.57c0.09,0.05,0.19,0.11,0.28,0.16
					c0.1,0.05,0.19,0.1,0.28,0.15c0.11,0.06,0.22,0.11,0.32,0.16c0.08,0.04,0.15,0.07,0.22,0.1c0.11,0.05,0.21,0.09,0.31,0.13
					c0.05,0.02,0.1,0.04,0.15,0.06c0.14,0.05,0.26,0.08,0.36,0.1c0.05,0.01,0.11-0.01,0.19-0.04
					C255.35,358.64,255.37,358.63,255.39,358.62z"/>
				
					<use xlink:href="#XMLID_11_"  style="overflow:visible;fill:none;stroke:#263238;stroke-linecap:round;stroke-linejoin:round;stroke-miterlimit:10;"/>
			</g>
			<path class="st4" d="M239.64,364.44c-7.5-4.75-16-18-16.25-22.5c-0.02-0.37,0.02-0.87,0.12-1.47c-2.38,0.03-4.12,1.47-4.12,1.47
				s-5.5-5-9.75-7.75c-3.04-1.97-6.98-2.53-8.97-2.68c-3.63,2.98-6.99,5.4-7.53,7.43c-1,3.75,5.75,18.75,22,29.25
				s21.75,8.75,26.5,7.75S247.14,369.19,239.64,364.44z"/>
			<path class="st14" d="M191.64,339.44"/>
			<g>
				<defs>
					<path id="XMLID_13_" d="M239.64,364.44c-2.21-1.4-4.51-3.55-6.66-5.99c-5.16-2.19-12.04-5.04-18.09-8.76
						c-6.5-4-5-6.5-8.75-10.25c-2.88-2.88-8.54-3.25-11.02-3.27c-1.03,1-1.75,1.92-1.98,2.77c-1,3.75,5.75,18.75,22,29.25
						s21.75,8.75,26.5,7.75S247.14,369.19,239.64,364.44z"/>
				</defs>
				<use xlink:href="#XMLID_13_"  style="overflow:visible;fill:#FFFFFF;"/>
				<clipPath id="XMLID_27_">
					<use xlink:href="#XMLID_13_"  style="overflow:visible;"/>
				</clipPath>
				<path class="st29" d="M239.64,364.44c-2.21-1.4-4.51-3.55-6.66-5.99c-5.16-2.19-12.04-5.04-18.09-8.76c-6.5-4-5-6.5-8.75-10.25
					c-2.88-2.88-8.54-3.25-11.02-3.27c-1.03,1-1.75,1.92-1.98,2.77c-1,3.75,5.75,18.75,22,29.25s21.75,8.75,26.5,7.75
					S247.14,369.19,239.64,364.44z"/>
				<path class="st30" d="M239.64,364.44c-2.21-1.4-4.51-3.55-6.66-5.99c-5.16-2.19-12.04-5.04-18.09-8.76c-6.5-4-5-6.5-8.75-10.25
					c-2.88-2.88-8.54-3.25-11.02-3.27c-1.03,1-1.75,1.92-1.98,2.77c-1,3.75,5.75,18.75,22,29.25s21.75,8.75,26.5,7.75
					S247.14,369.19,239.64,364.44z"/>
				
					<use xlink:href="#XMLID_13_"  style="overflow:visible;fill:none;stroke:#263238;stroke-linecap:round;stroke-linejoin:round;stroke-miterlimit:10;"/>
			</g>
			<g>
				<defs>
					<path id="XMLID_3_" d="M240.89,366.19c-6.5-3.75-19.75-6.25-28.25-12s-6.25-10.75-12.5-14.75c-2.87-1.84-5.27-1.4-7.02-0.4
						c-0.87,3.9,5.9,18.74,22.02,29.15c16.25,10.5,21.75,8.75,26.5,7.75c3.16-0.66,4.53-3.43,2.9-6.6
						C243.51,368.1,242.3,367,240.89,366.19z"/>
				</defs>
				<use xlink:href="#XMLID_3_"  style="overflow:visible;fill:#263238;"/>
				<clipPath id="XMLID_28_">
					<use xlink:href="#XMLID_3_"  style="overflow:visible;"/>
				</clipPath>
				<path class="st31" d="M240.89,366.19c-6.5-3.75-19.75-6.25-28.25-12s-6.25-10.75-12.5-14.75c-2.87-1.84-5.27-1.4-7.02-0.4
					c-0.87,3.9,5.9,18.74,22.02,29.15c16.25,10.5,21.75,8.75,26.5,7.75c3.16-0.66,4.53-3.43,2.9-6.6
					C243.51,368.1,242.3,367,240.89,366.19z"/>
				
					<use xlink:href="#XMLID_3_"  style="overflow:visible;fill:none;stroke:#263238;stroke-linecap:round;stroke-linejoin:round;stroke-miterlimit:10;"/>
			</g>
			<g>
				<path class="st14" d="M116.31,318.37c0,0,4.8-5.83,5.48-1.37c0.69,4.46-0.34,12.68-3.77,15.77c-3.43,3.08-5.14-1.71-5.14-1.71
					l2.06-2.74c0,0,1.71,3.43,3.08-2.06c1.37-5.48-2.74-4.8-2.74-4.8L116.31,318.37z"/>
				<path class="st14" d="M112.64,340.3c-2.84,2.1-12.09,2.1-14.93,0c-6.01-4.45-4.98-25.95-4.98-25.95h24.86
					C117.59,314.36,118.65,335.85,112.64,340.3z"/>
				<g>
					<path class="st2" d="M95.43,310.14c0-2.71,2.51-2.71,2.51-5.41c0-2.71-2.51-2.71-2.51-5.41c0-2.71,2.51-2.71,2.51-5.42
						c0-2.71-2.51-2.71-2.51-5.42c0-2.71,2.51-2.71,2.51-5.42"/>
					<path class="st2" d="M104.02,310.14c0-2.05,2.51-2.05,2.51-4.11c0-2.05-2.51-2.05-2.51-4.11c0-2.06,2.51-2.06,2.51-4.11
						c0-2.06-2.51-2.06-2.51-4.12c0-2.06,2.51-2.06,2.51-4.12"/>
					<path class="st2" d="M113.47,310.14c0-2.71,2.51-2.71,2.51-5.41c0-2.71-2.51-2.71-2.51-5.41c0-2.71,2.51-2.71,2.51-5.42
						c0-2.71-2.51-2.71-2.51-5.42c0-2.71,2.51-2.71,2.51-5.42"/>
				</g>
				<path class="st14" d="M117.59,314.36c0,0.63-5.57,1.13-12.43,1.13c-6.87,0-12.43-0.51-12.43-1.13c0-0.63,5.57-1.13,12.43-1.13
					C112.02,313.23,117.59,313.73,117.59,314.36z"/>
			</g>
			<g>
				<g>
					<defs>
						<path id="XMLID_5_" d="M140.54,159.64c0,0,1.16,12.63,1.65,16.61c0.49,3.98,1.61,15.45,2.76,19.24
							c1.15,3.79,7.41,10.38,8.02,8.86c0.61-1.53,3.7-11.82,2.46-17.94c-1.24-6.12-1.62-11.45-0.84-12.98
							c0.77-1.53,3.54-3.31,3.54-3.31s-4.93-2.47-9.39-5.47C144.29,161.66,141.15,158.28,140.54,159.64z"/>
					</defs>
					<use xlink:href="#XMLID_5_"  style="overflow:visible;fill:#FFFFFF;"/>
					<clipPath id="XMLID_29_">
						<use xlink:href="#XMLID_5_"  style="overflow:visible;"/>
					</clipPath>
					<path class="st32" d="M156.59,170.71l-1.02-1.95c-1.84-1.01-4.4-2.48-6.82-4.11c-4.45-2.99-7.59-6.37-8.2-5.01
						c0,0,1.16,12.63,1.65,16.61c0.49,3.98,1.61,15.45,2.76,19.24c0.28,0.93,0.87,2.02,1.6,3.12c-1.21-7.54,0.1-21.15,0.1-21.15
						L156.59,170.71z"/>
					<path class="st33" d="M156.59,170.71l-1.02-1.95c-1.84-1.01-4.4-2.48-6.82-4.11c-4.45-2.99-7.59-6.37-8.2-5.01
						c0,0,1.16,12.63,1.65,16.61c0.49,3.98,1.61,15.45,2.76,19.24c0.28,0.93,0.87,2.02,1.6,3.12c-1.21-7.54,0.1-21.15,0.1-21.15
						L156.59,170.71z"/>
					
						<use xlink:href="#XMLID_5_"  style="overflow:visible;fill:none;stroke:#263238;stroke-linecap:round;stroke-linejoin:round;stroke-miterlimit:10;"/>
				</g>
				<g>
					<g>
						<g>
							<defs>
								<path id="XMLID_6_" d="M140.07,161.45c0,0,7.2,6.03,12.73,8.2c5.53,2.18,14.01,2.06,15.2-0.82
									c1.19-2.88-2.1-25.6-4.94-31.58c-2.85-5.98-5.9-6.08-10.92-6.53c-5.02-0.46-15.09,3.64-16.86,8.5
									c-1.77,4.86,0.24,11.74,1.71,15.82C138.46,159.11,140.07,161.45,140.07,161.45z"/>
							</defs>
							<use xlink:href="#XMLID_6_"  style="overflow:visible;fill:#FFFFFF;"/>
							<clipPath id="XMLID_30_">
								<use xlink:href="#XMLID_6_"  style="overflow:visible;"/>
							</clipPath>
							<path class="st34" d="M153.01,161.18c-2.55-7.58-3.18-19.46-3.18-22.64c0-2.45,6.38-5.14,9.3-6.24
								c-1.91-1.18-4.13-1.33-6.99-1.59c-5.02-0.46-15.09,3.64-16.86,8.5c-1.77,4.86,0.24,11.74,1.71,15.82
								c1.47,4.08,3.08,6.41,3.08,6.41s7.2,6.03,12.73,8.2c3.68,1.45,8.67,1.88,11.94,1.15
								C160.84,169.31,154.71,166.23,153.01,161.18z"/>
							<path class="st35" d="M153.01,161.18c-2.55-7.58-3.18-19.46-3.18-22.64c0-2.45,6.38-5.14,9.3-6.24
								c-1.91-1.18-4.13-1.33-6.99-1.59c-5.02-0.46-15.09,3.64-16.86,8.5c-1.77,4.86,0.24,11.74,1.71,15.82
								c1.47,4.08,3.08,6.41,3.08,6.41s7.2,6.03,12.73,8.2c3.68,1.45,8.67,1.88,11.94,1.15
								C160.84,169.31,154.71,166.23,153.01,161.18z"/>
							
								<use xlink:href="#XMLID_6_"  style="overflow:visible;fill:none;stroke:#263238;stroke-linecap:round;stroke-linejoin:round;stroke-miterlimit:10;"/>
						</g>
						<path class="st2" d="M163.6,146.59c0.11,2.88-1.69,5.29-4.03,5.38c-2.34,0.09-4.33-2.17-4.44-5.05
							c-0.11-2.88,1.69-5.29,4.03-5.38C161.5,141.45,163.49,143.71,163.6,146.59z"/>
						<path class="st2" d="M169.26,145.5c0.11,2.88-0.82,5.26-2.08,5.3c-1.26,0.05-2.37-2.25-2.49-5.13
							c-0.11-2.88,0.82-5.26,2.08-5.3C168.03,140.32,169.15,142.62,169.26,145.5z"/>
						<path class="st14" d="M163.89,145.55c0,0,8.26,1.57,7.47,3.56c-0.79,1.99-6.38,4.14-6.38,4.14"/>
						<path class="st2" d="M163.39,144.64c0,0,0.12-1.02,1.39-0.37"/>
						<line class="st2" x1="154.89" y1="147.39" x2="139.87" y2="153.3"/>
						<path class="st36" d="M155.09,142.54c0,0,0.92-2.38,3.74-2.26"/>
						<line class="st36" x1="165.1" y1="140.34" x2="162.79" y2="141.22"/>
						<path class="st2" d="M157.95,157.12c0,0,2.97-0.78,4.71,0.98"/>
						<path class="st3" d="M159.89,147.14c0.14,1-0.05,1.86-0.41,1.91c-0.36,0.05-0.77-0.72-0.91-1.73c-0.14-1,0.05-1.86,0.41-1.91
							S159.76,146.14,159.89,147.14z"/>
					</g>
					<g>
						<path class="st4" d="M141.28,153.35c0,0-1.01,2,1.82,2.1c2.83,0.11,4.74-1.27,3.37-2.96c-1.37-1.69-3.4-3.35-1.31-5.61
							c2.09-2.26,6.15-4.16,3.87-6.68c-2.28-2.52-10.67-0.23-8.58-2.27c2.1-2.04,11.81-4.16,16.17-3.9
							c4.36,0.26,12.5-3.1,14.29-7.53c1.78-4.42-0.71-12.59-6.57-12.15c-5.86,0.45-10.22,5.63-12.82,5.95s-7.93-2.52-12.4,0.05
							c-4.47,2.57-4.62,9.76-5.02,10.64c-0.4,0.89-6.44,2.21-7.51,8.35c-1.06,6.14,1.74,11.03,4.24,13.76
							c2.5,2.73,3.63,3.77,3.63,3.77L141.28,153.35z"/>
						<g>
							<path class="st37" d="M128.55,142.27c-0.1,1.52,0.65,2.66,0.65,2.66"/>
							<path class="st37" d="M154.05,126.44c0,0-2.19-4.77,3.38-4.77c5.57,0,6.36,6.96,0.6,9.54c-5.77,2.58-18.29,3.18-25.05,6.16
								c-1.69,0.75-2.77,1.59-3.44,2.44"/>
							<path class="st37" d="M143.98,143.38c-2,0.71-4.59,1.72-7.23,2.94c-5.57,2.58-4.37,5.17-4.37,5.17"/>
							<path class="st37" d="M147.69,142.14c0,0-0.49,0.14-1.32,0.42"/>
						</g>
					</g>
					<g>
						<defs>
							<path id="XMLID_7_" d="M142.23,155.48c0,0-3.23-4.66-6.64-2.79c-3.41,1.88-0.75,8.52,1.3,10.83
								c2.05,2.31,6.02-1.98,6.41-3.08"/>
						</defs>
						<use xlink:href="#XMLID_7_"  style="overflow:visible;fill:#FFFFFF;"/>
						<clipPath id="XMLID_31_">
							<use xlink:href="#XMLID_7_"  style="overflow:visible;"/>
						</clipPath>
						<path class="st38" d="M142.23,155.48c0,0-3.23-4.66-6.64-2.79c-3.41,1.88-0.75,8.52,1.3,10.83c2.05,2.31,6.02-1.98,6.41-3.08"
							/>
						<path class="st39" d="M142.23,155.48c0,0-3.23-4.66-6.64-2.79c-3.41,1.88-0.75,8.52,1.3,10.83c2.05,2.31,6.02-1.98,6.41-3.08"
							/>
						
							<use xlink:href="#XMLID_7_"  style="overflow:visible;fill:none;stroke:#263238;stroke-linecap:round;stroke-linejoin:round;stroke-miterlimit:10;"/>
					</g>
				</g>
			</g>
		</g>
	</g>
</g>
<g id="Plants">
	<g>
		<g>
			<ellipse class="st0" cx="321.68" cy="340.38" rx="16.73" ry="7.5"/>
			<ellipse class="st5" cx="321.68" cy="340.38" rx="16.73" ry="7.5"/>
		</g>
		<g>
			<path class="st3" d="M302.11,229.4c1.79,0.78,6.17,0.68,6.17,0.68c0.05,0-0.94-2.87-1.02-3.04c-0.96-2.01-4-5.33-6.47-4.99
				c-1.78,0.24-2.77,2.02-2.37,3.7C298.83,227.46,300.59,228.73,302.11,229.4z"/>
			<path class="st3" d="M359.47,214.49c-2.48-0.27-5.43,3.13-6.33,5.17c-0.08,0.18-0.99,3.07-0.94,3.07c0,0,0.04,0,0.05,0
				c-0.47,0.53-0.97,1.11-1.5,1.75c-0.97,1.19-2.06,2.55-3.14,4.1c-1.08,1.55-2.22,3.27-3.25,5.18c-1.04,1.92-2.03,3.99-2.78,6.26
				c-0.01,0.03-0.01,0.05-0.02,0.08c0.01-0.73-0.02-2.78-0.04-2.93c-0.29-2.21-2.14-6.31-4.59-6.76c-1.77-0.33-3.26,1.06-3.41,2.78
				c-0.14,1.76,1.13,3.51,2.37,4.62c1.4,1.25,5.28,2.46,5.59,2.56c-0.69,2.16-1.23,4.44-1.64,6.78c-0.24,1.33-0.44,2.69-0.62,4.04
				c-0.01-0.63-0.02-1.2-0.03-1.28c-0.29-2.21-2.14-6.31-4.59-6.76c-1.77-0.33-3.26,1.06-3.4,2.78c-0.14,1.76,1.13,3.51,2.37,4.62
				c1.26,1.12,4.55,2.22,5.43,2.5c-0.06,0.52-0.13,1.04-0.2,1.56c-0.3,2.5-0.59,5-0.94,7.45c-0.13,0.86-0.28,1.7-0.43,2.55
				c-0.01-0.56-0.02-1.03-0.03-1.11c-0.29-2.21-2.14-6.31-4.59-6.76c-1.77-0.33-3.26,1.06-3.41,2.78c-0.14,1.75,1.13,3.51,2.37,4.62
				c1.2,1.07,4.23,2.11,5.27,2.45c-0.18,0.86-0.36,1.72-0.58,2.55c-0.16,0.56-0.27,1.11-0.47,1.66c-0.18,0.55-0.35,1.1-0.53,1.64
				c-0.38,1.03-0.76,2.1-1.15,3.09c-0.27,0.69-0.53,1.35-0.8,2.01c0.13-0.86,0.36-2.54,0.37-2.68c0.03-1.48-0.49-3.89-1.54-5.58
				c0.01-0.22-0.01-0.44-0.04-0.65c-0.27-1.7-1.87-2.97-3.61-2.5c-2.41,0.64-3.94,4.87-4.05,7.1c-0.01,0.13,0.08,1.56,0.15,2.47
				c-0.12-0.52-0.23-1.03-0.36-1.57c-0.25-1.07-0.54-2.12-0.84-3.26c-0.16-0.54-0.33-1.09-0.5-1.65c-0.15-0.55-0.39-1.12-0.58-1.69
				c-0.48-1.3-1.02-2.6-1.6-3.9c0.93-0.22,4.24-1.07,5.56-2.08c1.32-1.01,2.72-2.67,2.71-4.43c-0.01-1.72-1.4-3.22-3.19-3.02
				c-2.48,0.27-4.63,4.22-5.08,6.4c-0.03,0.14-0.17,1.74-0.24,2.62c-0.35-0.78-0.7-1.55-1.09-2.33c-1.11-2.23-2.3-4.46-3.48-6.68
				c-0.36-0.68-0.71-1.36-1.07-2.05c0.33-0.08,4.28-0.99,5.76-2.13c1.32-1.01,2.72-2.67,2.71-4.43c-0.01-1.72-1.4-3.22-3.19-3.02
				c-2.48,0.27-4.63,4.22-5.08,6.4c-0.03,0.16-0.24,2.47-0.27,3.06c-0.78-1.5-1.55-3.01-2.24-4.52c-0.96-2.09-1.79-4.19-2.43-6.29
				c0.15-0.04,4.28-0.97,5.8-2.14c1.32-1.01,2.72-2.67,2.71-4.43c-0.01-1.72-1.4-3.22-3.19-3.02c-2.48,0.27-4.63,4.22-5.08,6.4
				c-0.04,0.17-0.26,2.65-0.27,3.1c-0.04-0.12-0.09-0.25-0.13-0.37c-0.66-2.25-1.03-4.51-1.26-6.64c-0.14-1.24-0.2-2.43-0.24-3.59
				c0.79-0.1,4.37-0.57,5.86-1.47c1.42-0.86,3-2.36,3.18-4.11c0.18-1.72-1.04-3.35-2.84-3.35c-2.49,0-5.07,3.69-5.75,5.8
				c-0.04,0.12-0.29,1.33-0.46,2.22c-0.01-0.52-0.03-1.07-0.02-1.57c0-1.89,0.12-3.61,0.24-5.14c0.07-0.87,0.16-1.65,0.24-2.39
				c0.72-0.5,3.61-2.53,4.49-3.99c0.87-1.42,1.57-3.47,0.93-5.11c-0.63-1.6-2.47-2.49-4.06-1.67c-2.22,1.15-2.8,5.61-2.43,7.8
				c0.03,0.19,0.87,3.1,0.91,3.08c0,0,0.04-0.02,0.04-0.03c-0.1,0.7-0.19,1.46-0.28,2.29c-0.15,1.53-0.31,3.26-0.35,5.15
				c-0.05,1.89-0.05,3.95,0.15,6.12c0.19,2.17,0.51,4.45,1.13,6.75c0.01,0.03,0.02,0.05,0.03,0.08c-0.39-0.62-1.55-2.3-1.65-2.42
				c-1.46-1.68-5.26-4.08-7.56-3.11c-1.65,0.7-2.14,2.68-1.31,4.19c0.85,1.54,2.88,2.31,4.53,2.55c1.86,0.27,5.76-0.86,6.08-0.95
				c0.62,2.19,1.43,4.38,2.37,6.56c0.54,1.24,1.12,2.48,1.71,3.71c-0.36-0.52-0.68-0.99-0.73-1.05c-1.46-1.68-5.26-4.08-7.56-3.11
				c-1.65,0.7-2.14,2.68-1.31,4.19c0.85,1.54,2.88,2.31,4.53,2.55c1.67,0.24,5.02-0.66,5.91-0.91c0.23,0.47,0.46,0.94,0.7,1.41
				c1.13,2.25,2.27,4.5,3.32,6.73c0.37,0.79,0.71,1.58,1.05,2.36c-0.32-0.46-0.59-0.85-0.64-0.91c-1.46-1.68-5.26-4.08-7.56-3.11
				c-1.65,0.7-2.14,2.68-1.31,4.19c0.85,1.54,2.88,2.31,4.53,2.55c1.59,0.23,4.69-0.57,5.75-0.86c0.32,0.82,0.65,1.64,0.92,2.44
				c0.18,0.56,0.38,1.08,0.53,1.65c0.16,0.56,0.31,1.11,0.46,1.66c0.26,1.07,0.53,2.16,0.75,3.21c0.16,0.73,0.3,1.42,0.44,2.12
				c-0.36-0.79-1.1-2.32-1.17-2.44c-1.19-1.89-4.58-4.83-7-4.22c-1.74,0.44-2.52,2.33-1.93,3.95c0.6,1.65,2.5,2.72,4.09,3.2
				c1.75,0.54,5.63,0.05,6.11-0.02c0.23,1.16,0.45,2.29,0.63,3.36c0.65,3.7,1.06,6.81,1.31,8.99c0.04,0.39,0.08,0.73,0.12,1.06
				h-7.51l2.41,47.1c0.18,3.58,3.14,6.39,6.72,6.39l0,0c3.58,0,6.54-2.81,6.72-6.39l2.41-47.1h-6.99c0.05-0.11,0.1-0.21,0.16-0.32
				c0.96-2,2.29-4.87,3.73-8.39c0.46-1.11,0.92-2.31,1.39-3.54c0.47,0.1,4.31,0.88,6.1,0.47c1.62-0.37,3.59-1.28,4.31-2.89
				c0.71-1.57,0.07-3.51-1.63-4.08c-2.36-0.79-5.97,1.89-7.3,3.68c-0.08,0.11-0.8,1.35-1.24,2.14c0.19-0.5,0.38-0.99,0.56-1.51
				c0.38-1.03,0.72-2.07,1.1-3.18c0.16-0.54,0.33-1.1,0.49-1.65c0.18-0.55,0.29-1.15,0.44-1.73c0.32-1.35,0.58-2.73,0.81-4.13
				c0.9,0.33,4.12,1.45,5.79,1.33c1.66-0.12,3.74-0.73,4.7-2.2c0.94-1.44,0.61-3.46-0.99-4.28c-2.22-1.14-6.19,0.96-7.77,2.54
				c-0.1,0.1-1.1,1.35-1.64,2.05c0.13-0.84,0.27-1.68,0.38-2.54c0.31-2.47,0.54-4.99,0.79-7.49c0.07-0.77,0.16-1.53,0.24-2.3
				c0.32,0.12,4.12,1.53,5.98,1.4c1.66-0.12,3.74-0.73,4.7-2.2c0.94-1.44,0.61-3.46-0.99-4.28c-2.22-1.14-6.19,0.96-7.77,2.54
				c-0.12,0.12-1.56,1.93-1.91,2.4c0.18-1.69,0.37-3.36,0.63-5.01c0.35-2.27,0.82-4.48,1.44-6.59c0.15,0.06,4.11,1.55,6.02,1.42
				c1.66-0.12,3.74-0.73,4.7-2.2c0.94-1.44,0.61-3.46-0.99-4.28c-2.22-1.14-6.19,0.96-7.77,2.54c-0.12,0.12-1.68,2.07-1.93,2.44
				c0.04-0.13,0.06-0.26,0.1-0.38c0.68-2.24,1.63-4.33,2.61-6.23c0.57-1.11,1.17-2.14,1.78-3.13c0.71,0.35,3.96,1.93,5.7,2
				c1.66,0.07,3.8-0.31,4.92-1.67c1.09-1.33,0.98-3.37-0.52-4.36c-2.08-1.38-6.26,0.28-8,1.67c-0.09,0.08-0.97,0.95-1.6,1.6
				c0.28-0.44,0.57-0.9,0.84-1.32c1.04-1.57,2.1-2.95,3.04-4.16c0.54-0.68,1.04-1.29,1.52-1.85c0.88-0.02,4.41-0.12,5.95-0.85
				c1.51-0.71,3.23-2.03,3.59-3.75C362.3,216.44,361.26,214.68,359.47,214.49z M332.01,281.13c-1.5,3.45-2.88,6.27-3.87,8.22
				c-0.2,0.39-0.38,0.74-0.55,1.06h-0.17c-0.05-0.38-0.1-0.8-0.17-1.27c-0.3-2.2-0.78-5.33-1.52-9.05c-0.23-1.18-0.5-2.43-0.79-3.72
				c0.29-0.12,1.95-0.79,3.41-1.6c1.28,1.38,4.55,3,4.97,3.21C332.89,279.08,332.45,280.14,332.01,281.13z"/>
			<path class="st3" d="M346.41,230.36c0.04,0.02,0.8-2.91,0.82-3.1c0.31-2.21-0.4-6.65-2.64-7.74c-1.62-0.78-3.43,0.16-4.02,1.78
				c-0.6,1.65,0.16,3.69,1.07,5.08C342.7,228.02,346.4,230.36,346.41,230.36z"/>
		</g>
	</g>
</g>
</svg>
