<?xml version="1.0" encoding="utf-8"?>
<!-- Generator: Adobe Illustrator 24.0.1, SVG Export Plug-In . SVG Version: 6.00 Build 0)  -->
<svg version="1.1" id="Layer_1" xmlns="http://www.w3.org/2000/svg" xmlns:xlink="http://www.w3.org/1999/xlink" x="0px" y="0px"
	 viewBox="0 0 716.5 700.9" style="enable-background:new 0 0 716.5 700.9;" xml:space="preserve">
<style type="text/css">
	.st0{fill:#1A1A1A;}
	.st1{fill:#1B1A1A;}
	.st2{fill:#22211E;}
	.st3{fill:#FDCD2F;}
	.st4{fill:#FFFFFF;}
	.st5{fill:#FEFEFE;}
	.st6{fill:#FDD75B;}
	.st7{fill:#FEFEFD;}
	.st8{fill:#FDFDFD;}
	.st9{fill:#FEFDFD;}
	.st10{fill:#22211D;}
	.st11{fill:#FAFAFA;}
	.st12{fill:#F5F5F5;}
	.st13{fill:#323232;}
	.st14{fill:#EDEDED;}
	.st15{fill:#F8F6F2;}
	.st16{fill:#333333;}
	.st17{fill:#474747;}
	.st18{fill:#E3E3E3;}
	.st19{fill:#5B5B5B;}
	.st20{fill:#4D4D4D;}
	.st21{fill:#989898;}
	.st22{fill:#CBCBCB;}
	.st23{fill:#7F7F7F;}
	.st24{fill:#666666;}
	.st25{fill:#FEFDFB;}
	.st26{fill:#FCCC2F;}
	.st27{fill:#FACB33;}
	.st28{fill:#F2C633;}
	.st29{fill:#FBD040;}
	.st30{fill:#E0DAC4;}
	.st31{fill:#FDCD30;}
	.st32{fill:#FDFDFB;}
	.st33{fill:#201F1D;}
	.st34{fill:#27241B;}
	.st35{fill:#25231B;}
	.st36{fill:#22201B;}
	.st37{fill:#F9F9F9;}
	.st38{fill:#22211B;}
	.st39{fill:#302B1C;}
	.st40{fill:#2E2A1C;}
</style>
<path class="st0" d="M632.3,90.4c7,17.1,12.9,34.5,16.4,52.7c5.2,27.2,5.8,54.6,4.2,82.1c-1.3,21.2-5,41.9-13.3,61.6
	c-2.7,6.5-5.8,12.7-9.9,18.4c-1.6,2.2-1.3,3.5,0.4,5.5c19.7,22.7,31.2,48.9,33.2,79c0.2,2.7,1.6,4.7,2.8,6.8
	c10.4,18.8,19.6,38.1,24.6,59.2c2.3,9.6,2.5,19.2-0.6,28.6c-8,24-25.5,40.8-56.8,33.4c-14.1-3.3-27.6-8.6-41-14
	c-1.7-0.7-3.4-1.4-6.1-2.5c2.8,12.2,5.4,23.6,7.9,35c0.6,2.6,2.4,1.9,3.8,1.8c9.3-0.4,18.6-1.2,27.9-1.4c19.2-0.6,38.3-0.6,57,4.3
	c6.8,1.8,14.3,3.9,15.9,11.8c1.6,7.6-4.2,12.7-9.4,17c-15.6,13.1-34,21.3-52.5,29.2c-20.5,8.8-41.4,16.4-62.7,23
	c-4.2,1.3-6.2,2.9-5.9,7.8c0.6,9.3,0.2,9.3-9.2,9.4c-13,0.1-26,0.2-39,0.5c-10.5,0.2-20.1,4.2-30.1,6.7
	c-52.5,13.2-105.4,23.8-158.9,31.4c-33.6,4.8-67.4,7.9-101.4,8.3c-13.6-0.6-27.1-0.8-40.4-4.1c-4.7-1.2-9.2-2.6-13.2-5.3
	c-5.9-4.1-7-9.3-3.4-15.5c2.4-4.1,6-7,9.3-10.2c0.3-2.5,2.5-3.4,4.2-4.6c14.4-10.2,30.3-17.4,46.3-24.3c5.4-2.3,5.5-2.3,1.4-6.1
	c-27.9-26.5-42.3-59.5-45.5-97.3c-2.3-27.6,0.5-54.9,11.5-80.8c1.4-3.4,2.3-6.9,2.2-10.6c-0.3-28.7,12.2-50.1,36.8-64.7
	c1.3-0.8,2.7-1.2,3.8-2.4c0.1-0.1,0.1-0.3,0.3-0.7c-3.8-3.1-8.3-5.2-12.5-7.9c-20.5-13.2-39.1-28.3-51.5-49.9
	c-2.4-4.2-5.6-8.3-5.6-13.6c-8.5-23.8-11.7-48.4-11-73.6c0.2-7.3,0.5-14.7,1.9-21.9c0.9-4.5-2.1-7.8-2.4-12.7
	c-2.1,2.7-3.7,4.8-5.3,6.8c-1.1,1.4-2.6,2.3-4.4,1.5c-1.7-0.7-1.8-2.3-1.7-3.8c0.7-7.7,3.1-14.9,6.4-21.9c0.4-0.9,1.6-2.2,2.5-2.2
	c2.8-0.1,3.4-1.9,4.3-4c1.5-3.5,4.1-5.1,8-4.1c0.8,0.2,1.5,1.2,2.3,0.5c3.9-3.3,7.7-1.4,11.3,0.4c0-5.6,0-11.1,0-16.6
	c0-1.8,0.1-3.7,0.4-5.5c0.3-2,0.9-4.3,3.3-4.5c2.1-0.2,3.1,1.6,3.9,3.3c2.2,4.7,3.5,9.7,4.6,14.7c1.4,6.1,2.7,12.3,4.1,19.2
	c2.4-4,4.2-7.7,7.1-10.5c1.3-1.2,2.7-2.9,4.7-2.1c2.2,0.9,1.5,3.1,1.2,4.8c-2.2,12.4-4.8,24.8-6.6,37.3c-3.3,22.4-4.1,44.8,5.4,66.2
	c2.4,5.3,5.2,10.4,9.1,14.8c1.5,0.5,2.6,1.5,3.5,2.7c11.2,14.9,26.8,17.4,43.9,15.2c16.8-2.2,32.6-8,48.9-12.4
	c7.7-2.1,13.9-5.9,19.9-10.8c1.1-0.9,2.1-1.8,2.2-3.2c0.7-12.9,8.1-22.8,15-32.7c6.2-9,10-18.8,11.7-29.4c0.4-2.5,0.6-5,0.9-7.4
	c1-11.8,7.1-20.6,16.4-27.4c6.5-4.8,12.1-10.3,16.8-16.9c18.3-25.8,57-23.8,74-1.6c5.4,7,11.9,13.1,19.2,18.1
	c13.8,9.6,20.9,22.9,21.9,39.6c0.4,7.1,3.6,12.6,8.9,17.3c5.3,4.6,10.6,9.2,14,15.5c3.5,6.3,4.8,13.2,3.8,20.3
	c-0.5,3.5,0.8,4.6,4,5.4c6.7,1.7,12.4,0,17.9-3.8c10-7,16.3-16.6,20.1-27.9c4.3-12.5,6.7-25.3,7.8-38.6c2.3-28.9-1.8-56.8-10.7-84.1
	c-1.9-5.8-4.7-11-7.3-16.4c-0.8-1.6-1.9-3.2-1.9-5.1c-10.3-16.9-23.6-30.4-42.3-37.8c-8.3-3.3-15.2-1.4-21.4,4.8
	c-4.5,4.5-7.9,9.9-11.4,15.1c-2,2.9-3.7,5.9-6.9,7.8c-3.3,1.9-0.6,4.8-0.9,7.2c-0.3,2.7,2.1,1.9,3.6,2.1c4.3,0.4,6.8,2.7,6.8,7
	c0.1,4.1-2.8,7.4-7.3,7.1c-4.5-0.3-4.7,1.8-4.6,5.2c0.2,5.7,0,11.3,0,17c0,3.2-0.9,5.9-4.5,5.9c-3.7,0-4.4-2.8-4.3-6
	c0.1-6-0.1-12,0.1-18c0.1-2.8-0.3-4.2-3.7-4.1c-5.6,0.1-8.6-2.4-9-6.5c-0.4-4.2,2.3-6.7,8.4-7.7c1-0.2,2.3,0.1,2.4-1.2
	c0.3-4.3,2.3-8.8,0.8-12.8c-1.8-4.9-2.9-10-3.9-15.5c-2.6,2.8-4.7,5.3-7.1,7.5c-1.5,1.4-3.3,3.1-5.7,1.5c-2.1-1.4-1.1-3.6-0.9-5.5
	c0.1-1.1,0.5-2.2,0.9-3.5c-3,0.5-6.1,4.4-8.1,1c-2.5-4.2,2-7.5,3.4-11.4c-0.6-0.8-1.3,0-1.9,0.1c-2,0.3-4.1,0.7-5.4-1.4
	c-1.3-2.2,0-4,1.4-5.3c3-2.9,6-5.8,9.3-8.2c9.6-7.1,19.1-14.5,29.3-20.8c16-10,33.7-10.6,51-5.1c39.4,12.4,68.1,37.8,87.1,74.4
	C629.7,85.8,631,88.1,632.3,90.4z"/>
<path class="st0" d="M143.3,28.4c35.8,0,71.6,0,107.5,0c10.8,0,14.3,3.6,14.3,14.4c0,24.7-0.1,49.3,0.1,74c0,4.8-1.5,5.7-5.9,5.6
	c-36.7-0.2-73.3,0-110-0.2c-4.3,0-5.1,1.2-5.1,5.3c0.2,16.5,0,33,0.2,49.5c0.1,4-0.8,5.4-5.1,5.4c-16.8-0.3-33.6,0.1-50.5-0.2
	c-4.3-0.1-5.1,1.3-5.1,5.3c0.2,16.5,0,33,0.2,49.5c0.1,3.9-0.7,5.5-5.1,5.4c-17.5-0.3-35-0.2-52.5-0.1c-3.5,0-4.9-0.5-4.9-4.5
	c0.1-65.6,0.1-131.3,0.1-196.9c0-8.3,4.2-12.3,12.8-12.3C70.7,28.4,107,28.4,143.3,28.4z"/>
<path class="st1" d="M61.5,395.9c20.5-10.3,40.5-9.9,59.2,3.9c22.7,16.8,27.9,47.3,12.9,71.3c-0.7,1.1-1.4,2.3-2.1,3.5
	c5.3,2.9,10.7,4.8,16.3,6.2c1.6,0.4,3.8,1,4.8-0.2c1.2-1.6-0.4-3.4-1.3-4.9c-2.5-4.3-5.8-8.1-9-11.9c-0.7-0.9-1.7-1.6-1.7-2.8
	c0.8-1,1.5-0.6,2.1,0c4.8,4.4,9.7,8.6,13,14.4c1.4,2.5,2.6,5.1,1,8c-1.7,3.1-4.8,3.3-7.8,3.2c-6.7-0.3-13-2.6-19.2-5.1
	c-1.6-0.6-3-1.4-4.9,0.3c-12.9,11.7-28.1,15.8-45.2,13.6c-21-4.6-35.6-16.6-42.2-37.3c-3.5-10.9-3.2-22,0.5-32.8
	c0.9-2.6,0.6-4.2-1.3-6.1c-4.5-4.5-8.7-9.2-11.7-14.9c-1.5-2.8-2.7-6-0.7-9c2.1-3.1,5.4-2.8,8.6-2.3c6.8,1.1,12.9,4,18.9,7.2
	c-1.4,2.4-2.9,1-4.1,0.7c-4.3-1.1-8.6-2.5-13-3.4c-1.9-0.4-4.5-1.2-5.6,0.5c-1.3,1.9,0.8,3.7,1.9,5.2c3.2,4.5,7.2,8.2,11.5,12.4
	C47.1,407,53.9,401,61.5,395.9z"/>
<path class="st2" d="M72.1,295c10.3,3.3,15.3,9.2,15.2,17.7c-0.1,11.3-10.2,18.9-22.1,16.7c-9.3-3.9-14-11.1-12.7-19.6
	C54,300.9,61.1,295.5,72.1,295z"/>
<path class="st3" d="M513.5,369.5c8,3.2,13.5,9.4,19.2,15.4c-1,1.8-2.9,2.1-4.6,2.7c-14.3,5-23.2,14.8-26.9,29.7
	c-2.4,9.5-2.1,19.1-2.5,28.8c-0.6,13.2,0,26.7-3.8,39.6c-0.6,2.2-0.8,4.7-3.2,5.9c-6.1-0.6-11.6-1.4-16.3-6.7
	c-9.5-10.7-27.1-6.9-31,6.2c-1.3,4.4-0.7,5.5,3.9,5.5c11.3,0.1,22.6,0,33.9,0c2.3,0,4.7-0.3,6.8,0.9c1.8,2.5,0,4.8-0.7,7
	c-2.5,7.7-4.1,15.4-2.6,23.5c1.7,9,6.1,15.7,15.3,18.4c4.8,1.4,9.8,2.3,14.2,4.7c4.6,2.5,8.9,5.5,7.9,11.9
	c-17.7,15.6-38.6,24.5-61.8,27.8c-28.6,4-55.5-1.5-80.4-16.4c-1-0.6-1.9-1.3-2.8-2c-1.7-5,1.2-8.7,3.9-12.2
	c4.1-5.4,10.2-7.9,16.4-10c5.4-1.8,10.7-3.6,15.6-6.6c12.2-7.4,13.2-18.3,2.4-27.6c-3.9-3.4-7.9-6.6-11.9-9.9
	c-9.7-8.2-11.3-18.1-4.6-28.8c2.4-3.8,5.5-7.1,8.3-10.6c6-7.5,9.9-15.8,9.7-25.6c-0.2-8.7-4.6-14.8-12.4-18.3
	c-4.3-1.9-8.9-2.8-13.5-3.7c-8.6-1.7-16.9-4-23-11c-3.6-4.2-5.7-8.9-5.6-14.5c4.1-6.9,10.4-11.5,16.7-16.1
	c17.5-12.7,37-21,58.6-23.3c11-1.2,22.2-1.2,33.3,0.4c1.5,0.2,3,0.3,4,1.7c2.2,2.7,4.8,3,7.8,1.2c8,0.5,15,3.8,21.9,7.2
	C508.6,366.1,511.3,367.4,513.5,369.5z"/>
<path class="st4" d="M620.1,300.3c-17.4-14.2-36.8-24.2-59.9-30.1c4.7-2.5,8.3-4.6,11.5-7.4c7.6-6.6,12.9-14.8,16.6-24
	c4.2-10.6,10-20.1,19.2-26.9c9.1-6.8,10.5-15.5,8.5-25.7c-4.1-20.7-12.3-40-21.1-59c-7.2-15.7-13.8-31.8-24.2-45.7
	c-9.4-12.6-20.5-23.2-35.1-29.7c-13-5.8-21.4-3.9-30.5,7.1c-4.4,5.4-8.2,11.3-12.4,16.9c-0.7,1-1.5,2.7-3,2.1
	c-1.5-0.6-0.9-2.3-0.6-3.6c1.9-7.1,3.8-14.1,5.6-21.2c0.4-1.4,0.7-2.9,0.8-4.4c0.1-2.3,0.3-5-2.9-5.5c-2.9-0.5-4.3,1.8-5,4
	c-2.2,7-1.9,14.5-3.1,21.7c-0.4,2.1-0.5,4.2-2.1,6.3c-3.1-2.2-3.2-5.8-3.8-8.8c-1.9-9.9-2.1-19.9-0.2-29.8c1.4-7,4.6-13.1,10-17.9
	c13.2-1.4,26.2-5.1,39.6-3.9c12.5,1.1,24.1,5.5,34.8,11.8c40.6,23.8,64.6,59.6,74.9,105.1c6.7,29.4,8.2,59.4,6.8,89.4
	c-1.2,25.3-6.5,49.9-18.9,72.4C624.2,296.1,623.3,299.2,620.1,300.3z"/>
<path class="st4" d="M328.2,284c-6,36.9-4.9,73.9,0.2,111.5c-16.7-17-39.5-19.8-59.6-28.3c-31.8-13.3-60.5-30.8-81.4-58.9
	c-12.1-16.3-17.6-35.3-20.6-55c-3-19.7-3.1-39.4-0.6-59.2c0.6-4.9,6.2-7,5.3-12.4c0.8,0.2,1.2,0.2,1.3,0.4c1.6,2.1,1.9,6.2,5.6,5.3
	c3.1-0.8,2.9-4.5,3.5-7.2c1.1-5.6,1.6-11.2,1.5-16.9c0-1.4,0.5-3.8-1.3-3.8c-2.5,0-1.4,2.6-1.4,3.9c0,6.2-0.4,12.3-1.9,18.3
	c-0.2,0.9-0.1,2.1-2,2.6c-3.8-9.2-5.1-18.6-2.1-28.3c0.6-1.9,2.2-3.1,4.3-2.6c3.2,0.9,6.3,2.2,7.4,5.9c0.6,1.9-0.6,5.8,1.7,5.4
	c3.1-0.5,0.7-3.9,0.5-5.9c-0.5-7.6-1.5-15.3-1.1-22.9c0.1-2.1-0.4-4.4,1.4-6.5c3.2,4.2,4,9.1,5.1,13.8c1.8,7.6,3.1,15.3,4.7,22.9
	c0.8,3.9-0.2,6.5-4,8.6c-5.4,2.9-9.8,7-11.4,13.2c-0.3,1.2-1.2,2.9,0.7,3.3c1.5,0.3,1.4-1.4,1.7-2.4c1.6-6.1,6.2-9.7,11.4-12.5
	c2.2-1.2,3.5-2.7,4.2-5.1c2-6.3,4.7-12.3,10.6-17.9c-1.1,10.8-3.6,20.2-5.4,29.7c-3.9,7-5.9,14.5-6.3,22.4c-0.9,17.6,0.3,35,4.7,52
	c2.9,11.3,2.2,21.6-3.9,31.7c-3.6,6-1.8,10.5,4.7,13.1c4.2,1.7,8.7,2.2,13.2,2.4c17.7,1,34.8-1.9,51.9-5.8
	c17.1-3.9,33.9-8.6,50.5-14.3C323.3,283.9,325.6,282.4,328.2,284z"/>
<path class="st4" d="M651.5,425.4c-10.5,16.4-29.8,21.2-48.7,12c-13-6.3-22.4-16.6-30.3-28.4c-7.2-10.8-14.3-21.7-21.3-32.6
	c-8-12.6-17.7-23.3-31-30.4c-5-2.6-9.7-5.9-14.4-8.9c-0.9-0.6-2.6-0.8-2.2-2.2s2-1.6,3.2-1.8c6.4-0.7,12.2,1.4,17.8,4
	c3.6,1.6,7.2,3,11.3,3.4c2.5,0.2,3.2-0.4,3.7-2.6c3.1-13.8,6.3-27.5,9.5-41.3c0.5-2.1,0-3.3-2.2-3.5c-3.6-0.2-5-2-3.9-6
	c-5.3,5.8-7.8,13.2-13.1,18.5c-1.8-1.1-1.7-2.7-1.3-4.1c1.9-7.3,4.9-14.2,10.4-19.6c3.8-3.8,6.1-3.5,8.4,1.4
	c3.4,7.2,6.2,14.7,9.4,22c9.7,22.3,25.3,40.6,40.6,59c6.9,8.3,14.2,16.4,23.1,22.7c3.6,2.5,7.4,6,12.2,3c5.2-3.2,4.4-8.6,3.5-13.5
	c-1.2-6.3-5.2-10.6-10.9-13.5c-6.2-3.1-12.9-4.3-19.5-6c-9.6-2.4-17.2-7.3-23.7-15.3c-14.3-17.8-23.8-38-32-58.9
	c-0.8-2-0.7-3.9-0.5-5.9c1.7-1.4,3.5-0.8,5.2-0.4c36.8,9.2,67.3,27.4,86.6,61.2c7.9,13.8,12,28.7,14.3,44.4
	c1.5,10.8,1.2,21.5-0.7,32.2C654.3,418.3,652.9,421.8,651.5,425.4z"/>
<path class="st5" d="M568.4,621.6c0-6.8-0.3-12.7,0.1-18.6c0.3-4.3-1.3-5.2-5.3-5.1c-41.8,0.4-83.6,0.7-125.4,1
	c-31.8,0.2-63.6,0.4-95.5,0.5c-1.1,0-2.3-0.1-3.3-0.1c-0.5-1.2,0.5-1.6,1-2.2c1.4-1.7,2.8-3.6,1.6-5.8c-1.1-2.1-3.3-0.9-5-0.8
	c-7.4,0.5-7.5,0.5-7-6.9c1.4-17.6,2.9-35.1,4.3-52.9c2.1,0.1,2.1,2,2.8,3.1c24.3,38.3,59,59.2,104.5,61
	c57.2,2.2,109.8-37.3,124.1-92.7c1.3-5,3.2-6.2,7.6-4.8c0.3,0.1,0.7,0.1,1,0.2c9.7,1.9,9.6,2,11.6,11.6c6.4,31.4,14.7,62.4,24.3,93
	c1.2,3.7,0.5,5.1-3.2,6.3C594,612.5,581.5,617,568.4,621.6z"/>
<path class="st4" d="M250.5,367c10.8,2.3,19.8,7.6,26.9,16c5,5.8,5.5,12.3,1.8,19c-1.9,3.5-4.4,6.7-6.5,10.1
	c-5.6,8.9-6.1,17.8,0.4,26.5c11.4,15.3,26.3,26.1,43.6,33.9c2.6,1.2,4.1-0.1,5.9-1.3c7.5-5.2,14.9-10.6,22.5-15.8
	c1-0.7,2-2.3,3.3-1.3c1.4,1.1,0.6,2.8,0,4.2c-1.5,3.5-4.5,5.7-6.7,8.6c-2.1,2.9-6,5.7-3.9,9.5c1.9,3.4,6.1,1.4,9.3,1
	c6.8-0.7,13.5-1.6,20.3-2.3c2.4-0.2,4.8,0,8.7,0c-4.6,3.6-8.8,4-12.6,5c-6.4,1.7-12.9,3-19.4,4.7c-2,0.5-4.9,0.9-4.5,3.7
	c0.3,2.5,3,2.8,5.2,2.9c7.5,0,15,0,22.5,0c3.1,0,6.2,0.2,9.4,2.6c-13.3,5.2-26.8,5.7-40.4,5.8c11.4,4.1,23.4-0.6,35.6,2.7
	c-4.4,3.4-9.2,4-13.8,4.7c-6.7,1.1-13.5,1.7-20.3,2.6c-1.5,0.2-3.9,0-3.9,2.3c0,2.1,2.2,2.2,3.8,2.6c4,1.1,8.1,1.9,12.1,3
	c2.2,0.6,4.4,1.2,6.8,3.9c-16.2,0.5-31.1-2-45.5-7.2c-3.6-8.3-11.1-11.6-18.9-14.3c-12.6-4.4-25.3-8.3-37.1-14.5
	c-23.3-12.3-37.4-30.8-40-57.5c-2.1-21.5,7-38.1,22-52.1C240.8,372.1,244.6,367.8,250.5,367z"/>
<path class="st3" d="M526.4,623.4c0-5.3,0.3-10.7-0.1-16c-0.4-5,0.8-7.3,6.3-6.6c3.4,0.4,7.1-0.7,10.4,0.1c4.7,1.1,0.3,6.3,3.3,9
	c2-1.7,1.1-4,1-5.8c-0.1-2.5,0.7-3.6,3.3-3.5c3.8,0.1,7.7,0.1,11.5-0.1c2.7-0.1,3.4,1,3.4,3.5c0,9.5,0.1,19,0.5,28.5
	c0.2,4-1.2,4.6-4.8,4.6c-32.1,0.1-64.3,0.3-96.4,0.5c-44.3,0.3-88.6,0.6-132.9,0.9c-3.8,0-7.6-0.3-11.4-0.9c-3-0.4-3.7-1.8-3.7-4.6
	c0.1-7.2,0-14.3-0.4-21.5c-0.2-4.1,0.5-6.7,5.3-6.9c1.8-0.1,3.5-0.8,5.8-1.3c0,5.8,0,11.3,0,16.8c0,1.4-0.7,3.8,1.2,3.8
	c2.4,0,1.4-2.5,1.4-4c0.1-4.3,0.4-8.7,0-13c-0.4-4.2,1.3-5.2,5.1-4.8c2,0.2,4,0,6,0c2.5,0,5.4-0.7,7.3,0.4c2,1.1,0.5,4.3,0.8,6.5
	c0.1,0.8,0,1.9,1,2c1.4,0.1,1.4-1.1,1.5-2.1c0.3-2.1-1.2-4.9,0.4-6.2c2-1.7,5.1-0.6,7.7-0.6c11.2-0.1,11.1,0,11.2,11.4
	c0,3.5-0.7,7.1,0.9,11.5c2.3-4.2,1.3-7.8,1.3-11.2c0.1-11.9,0.1-11.7,12-12c4.2-0.1,5.8,1,5.2,5.2c-0.2,1.3-0.5,3.7,1.3,3.7
	c2.1,0,1.4-2.4,1.2-3.6c-0.9-4.8,1.5-5.3,5.5-5.3c10.6,0.2,10.6,0,10.6,10.6c0,3,0,6,0,9c0,1-0.5,2.7,1.4,2.6
	c1.2-0.1,1.1-1.5,1.2-2.4c0-4.7,0.3-9.3,0-14c-0.3-4.3,0.8-6.7,5.6-5.8c1,0.2,2,0,3,0c6.9-0.1,6.9-0.1,7.9,6.7c0.1,1,0,2.3,1.4,2.1
	c1.2-0.2,1.1-1.5,1.2-2.4c0.7-6.6,0.7-6.6,7.6-6.7c8.9,0,8.9,0,8.9,8.8c0,3.8,0,7.7,0,11.5c0,1,0.1,2.3,1.3,2.3
	c1.2,0,1.3-1.3,1.3-2.3c0-5.3,0.3-10.7-0.1-16c-0.3-3.9,1.2-5.1,4.8-4.6c0.6,0.1,1.3,0,2,0c2.8,0,6.1-0.8,8.3,0.4
	c2.4,1.3,0.5,4.9,1.2,7.4c0.1,0.4,0.5,0.7,0.8,1.1c2-0.5,1.6-2.2,1.4-3.3c-0.9-5.2,1.5-6,6.1-5.8c11,0.3,11,0.1,11,11.2
	c0,3.2,0,6.3,0,9.5c0,1,0.1,2.3,1.3,2.3c1.3,0,1.2-1.3,1.2-2.3c0-5.7,0.1-11.3,0-17c-0.1-2.7,0.6-4,3.5-3.7c1.8,0.2,3.7,0.2,5.5,0
	c4.7-0.4,8.8-0.4,7.5,6.3c-0.2,1-0.2,2.6,1.5,2.5c1.4-0.1,1.2-1.6,1-2.4c-1.2-5.8,1.6-6.7,6.8-6.5c10,0.3,10,0,10,10.3
	c0,4.1,0,8.2,0,12.2C524.8,623.4,525.6,623.4,526.4,623.4z"/>
<path class="st4" d="M680.9,498.4c-2.5,3.5-5.1,6.9-8.3,9.7c-10.2,8.9-22.1,9.9-34.8,7.5c-12.8-2.4-25.3-6.2-37-11.8
	c-17.7-8.5-36.3-11.6-55.7-11.5c-6,0-12-0.6-17.8-2.1c-1.7-0.4-3.6-0.7-4.9-2.5c3.2-1.9,6.4-1.2,9.6-0.9c2.3,0.2,4.7,0.5,7,0.5
	c2.4,0,6.2,1.6,6.7-1c0.7-3.4-3.6-3.7-6.1-4.4c-5.9-1.7-11.9-3-17.8-4.7c-2.6-0.8-5.4-1.5-7.8-4.1c6.6-2,12.8-0.1,18.9,0.6
	c4,0.5,7.9,1.1,11.9,1.5c1.2,0.1,3.2,0.7,3.2-1.1c0.1-1.8-1.9-1.5-3.1-1.5c-10.2-0.5-20.1-2.5-29.7-5.9c-1.5-0.5-3-1.2-5.1-2.1
	c2.2-2,4.2-2,6.3-2.1c6.4-0.1,12.6,1,18.9,1.5c2.5,0.2,5,0.4,7.5,0.5c2.1,0,4.9,0.2,5.5-2.2c0.7-2.8-2.3-3.2-4.2-3.9
	c-7.7-2.6-15.5-5.1-23.2-7.7c-2.7-0.9-5.4-1.8-8.1-3.7c3.9-2,7.6-0.5,11.1,0.1c8.2,1.4,16.3,3.5,24.4,5.1c6,1.2,7.8-0.8,6.1-6.8
	c-1.1-3.8-2.8-7.5-4.2-11.2c-1-2.6-1.5-5.1,0.9-7.9c3.6,4.3,6.9,8.6,10.6,12.5c20.9,22.5,46.2,30.8,76.3,23.7c2.5-0.6,5-1.8,7.3-3.1
	c9.7-5.3,12.6-15.1,7.2-24.6c-1.5-2.7-1.2-4.1,0.5-6.3c4-5,6.2-11,8.4-16.9c2.1-0.2,2.8,1.6,3.6,3c11.5,20.1,20.2,41.1,19.8,64.9
	C684.6,485.9,683,492.2,680.9,498.4z"/>
<path class="st4" d="M204.6,458c6.7,4.1,10.2,10.3,11.8,17.7c1.6,7.5,3.1,15,6.1,22.1c2.7,6.3,6.4,11.8,13.3,14
	c3.1,1,2.3,3.3,2.5,5.2c1.3,18.9,7,36.2,19,51.1c12.5,15.4,28.5,24,48.6,25c11,0.6,21.9,0.4,33.5-0.1c-1.5,3.6-4.3,4.8-6.9,6
	c-5.8,2.6-12.1,3.4-18.2,5.1c-6.1,1.7-12.1,3.9-16.4,9c-8,9.5-5.7,18.7,5.9,23.1c8.6,3.2,17.9,3.8,26.8,5.9c2.8,0.7,5.8,1,8.3,3.1
	c-22.7,3.5-44.8,1.4-66.1-7.7c-3.5-8.9-11.4-13.7-18.3-19.3c-27.9-22.5-45.7-51.1-52.7-86.2c-4.4-22.2-4.4-44.5-0.2-66.8
	C202.1,462.6,201.9,459.7,204.6,458z"/>
<path class="st5" d="M397.4,280c-0.6-0.8-1.2-1.5-1.9-2.4c1.7-0.8,2.6,0.7,3.7,1.3c17.7,9,36.4,11.4,55.8,7.9
	c10.3-1.9,18.4-7.6,23.5-16.9c1.1-2,2.2-2.9,4.5-2.9c20,0,39.9,0.4,59.8,2.9c4.1,0.5,3.6,2.7,3.9,5.3c0.4,3.8-2.4,1.2-3.6,2
	c-4.1,2.5-7.9,1.2-11.9-0.5c-2.3-1-4.8-0.1-6.3,1.9c-2,2.5-4,2.8-6.8,1.8c-1-0.4-2.8-0.6-3.4-0.1c-3.9,3.9-7.5,1.5-11.2-0.1
	c-2.9-1.2-5.4,1.6-8.2,1.2c-4.5-0.7-3.1,3.3-4.4,5.1c-1.4,2-3.2,3.9-4.4,6.1c-1.4,2.6-4,5.4,0.5,7.9c1.5,0.9,0.2,2.8-0.1,4.1
	c-1.9,8.6-3.9,17.2-5.8,25.8c-0.4,1.9-2.1,4.3-0.3,5.5c1.6,1.1,3.7-1,5.3-2c4-2.7,8.1-3.4,12.7-1.6c0.6,0.3,2.2,0.1,1.5,1.1
	c-2.6,4.1,1.5,4.4,3.2,5.6c5.1,3.5,10.2,6.9,15.6,9.8c13.1,6.9,22.4,17.5,30.2,29.8c7,11.1,14.3,22,21.5,33c0.9,1.4,1.7,2.8,1.8,4.6
	c0.7,10.5,1.5,20.9,2.3,32c-4.7-3.8-8.8-7-10.6-13c-11.5-38.1-35.7-65-72.2-80.9c-4.6-2-8.6-3.9-9.6-9.4c-0.2-1.2-1.2-2.3-1.8-3.5
	c-0.5,0.2-1,0.3-1.1,0.5c-1.6,6.6-5.7,7.4-11.3,5.2c-1.4-0.5-2.9-0.9-4.4-0.8c-9.6,0.2-16.8-4.2-23.7-10.5
	c-19.1-17.4-37.8-35.2-53-56.2c-1.8-2.4-3.3-4.7-0.6-7.7c3.1,3.2,6.3,6.3,9.4,9.5c5.5,3.4,9.9,8.3,15.1,12.1
	c12.7,9.2,26,17.3,40.9,22.5c4.4,2.2,9.2,3.1,13.8,4.8c-4.6-1.8-9.5-2.6-13.8-4.9c-16.8-5.9-31.7-15.1-45.5-26.2
	C403.4,286.7,399.2,284.5,397.4,280z"/>
<path class="st4" d="M242.8,485.8c16.6,10.2,33.2,18.8,50.7,25.6c10.7,4.2,21.5,7.9,32.8,9.9c4.2,0.8,5.4,2.6,5,6.7
	c-1.8,19.9-3.3,39.8-4.9,59.7c-0.1,1.9-0.5,3.2-2.8,3.2c-21.7,0.4-42.6-1.5-59-18.3c-13.3-13.6-20.6-30-23.3-48.5
	C239.6,511.4,239.8,498.9,242.8,485.8z"/>
<path class="st5" d="M476.3,356.4c-20.9-2.8-41.5-2.2-61.5,4.8c-19.5,6.8-36.6,17.2-50.5,32.7c-1.3,3.8-4.3,6.3-6.7,9.3
	c-4.1,5.1-7.7,10.5-10.8,16.2c-2.8,5.1-2.6,7.3,1.2,11.8c2.9,3.5,6.2,6.4,10.2,8.7c3.3,1.9,6.7,3.7,10.2,5.3c17.1,7.9,19,16,16.6,34
	c-0.8,6.3-2.5,12.4-2.4,18.8c0.1,5.7,1.8,10.4,6,14.2c3,2.7,5.8,5.5,7.9,9c4.3,7.1,2.3,14.6-4.9,18.8c-6.6,3.9-14,3.9-21.3,4.5
	c-6.6,0.5-12.4,2.3-16.7,7.7c-7.9-8.4-14.2-17.9-19.7-28.7c6.2,0.3,11.9,0.8,17.5,0.9c2.5,0,6.1,1,6.8-2.4c0.7-3.5-2.8-4.7-5.4-5.6
	c-4.2-1.5-8.6-2.5-13.2-3.8c5.1-1.9,10.4-1.5,15.4-2.3c5.3-0.8,10.5-1.8,15.4-3.8c4.8-2,5-3.7,0.8-7.2c1-1.6,3-1.2,4.4-2
	c1.5-0.8,3.2-1.3,3-3.4c-0.2-1.9-1.5-2.9-3.1-3.5c-3.6-1.5-7.5-1.3-11.3-1.3c-7,0-13.9,0-21.4,0c1.7-2.4,4-2.2,5.9-2.8
	c8-2.1,16.1-4,24.1-6.1c2.1-0.6,5.1-1.3,4.9-4.2c-0.3-3.2-3.6-3.2-5.9-3.3c-7.4-0.4-14.6,1.1-21.8,2c-3.4,0.4-6.8,1.1-10.6,0.4
	c1.6-4.7,5.2-7.6,8-10.9c2-2.3,3.7-4.7,4-7.9c0.2-1.9-0.2-3.8-1.9-4.8c-1.7-1-3.2-0.1-4.6,0.9c-7.4,5.3-14.9,10.5-23.1,16.4
	c-0.2-9.5,1-18.1,2.9-26.6c14-60.8,71.7-101.5,133.6-94.2c4.3,0.5,8.5,1.6,12.8,2C475.2,350.4,476.9,352.3,476.3,356.4z"/>
<path class="st5" d="M361.6,313.9c-0.1-13.5-0.2-27,4-40c2.4-7.2,11.2-10.4,17.5-6.5c1.5,0.9,2.4,1.6,1.8,3.9
	c-5.6,19.4-3.9,39.3-3,59.1c0.4,8.8,1.5,17.6,2.3,26.4c0.2,1.7,0.2,3.1-1.7,4.1c-19.4,11-34.7,26.2-46.3,45.2
	c-0.2,0.4-0.7,0.6-1.4,1.1c-3.7-12.7-5.4-25.5-6.4-38.4c-1.8-23.6-1.7-47.3,0.8-70.9c0.6-6,1.6-11.9,4.1-17.4
	c2.1-4.7,5.5-8,10.6-8.9c1.9-0.3,4.9-0.7,3.9,3c-6.5,24-5,48.2-2.4,72.4c2.7,9.2,2.4,18.8,4.1,27.3c-1.2-10.2-3.3-21.2-3.2-32.4
	c-0.5-15.1-1.9-30.2-0.2-45.4c0.8-6.8,1.8-13.5,3.6-20.1c1-3.8,3.4-6,7.2-6.6c5.6-1,6.6,0.1,5.3,5.5c-3.5,14.1-2.5,28.4-1.9,42.7
	c1.6,3.7,0.7,7.7,1.9,11.4C360.9,324.4,362,319.1,361.6,313.9z"/>
<path class="st6" d="M353.7,552c-0.8-2.6,1.1-3.5,2.7-4.7c7.1-5.3,15.5-4.2,23.5-5.1c4.4-0.5,8.5-1.7,12.1-4.1
	c5.9-3.9,7.3-10.7,3.3-16.5c-1.6-2.3-3.4-4.6-5.6-6.3c-9-7.1-9.7-16.5-8-26.7c1.2-7,3-13.9,2.9-21.2c-0.2-7.5-3.2-13.3-9.5-17.1
	c-6-3.6-12.3-6.6-18.4-10c-1.5-0.8-2.9-1.6-4.2-2.6c-10.4-8.2-11.2-12.5-4.3-23.6c4.5-7.4,9.5-14.4,16-20.3
	c2.6,16.4,14.6,21.7,28.8,24.2c6.5,1.2,13.2,2.2,18.4,6.7c8.9,7.7,10.4,19,4.9,31.4c-3,6.6-7.7,12-12.1,17.5
	c-3.4,4.3-6.5,8.6-7,14.5c-0.8,10.8,7,15.7,13.7,21.6c3.6,3.2,7.6,5.7,10.5,9.7c6.2,8.4,5,17.2-3.6,23.3c-6.3,4.5-13.6,6.8-20.8,9.2
	c-9.8,3.4-17.3,9.1-18.8,20.3C368.9,567.1,360.9,560,353.7,552z"/>
<path class="st6" d="M491.1,491.3c3.7-6.3,4.7-13.5,5-20.4c0.5-12.9,1.1-25.8,1.4-38.7c0.2-11.6,2.9-22.9,10.5-32.5
	c6.4-8.1,15-12.2,24.6-14.6c7.3,7,13.3,15,18,24c-1.2,1.7-3.2,1.5-4.9,2c-4.8,1.5-9.5,3-13.9,5.4c-8.3,4.5-13.8,10.7-13.2,20.9
	c0.1,2.1-0.1,4.3-1.9,5.9c-2.5,0.7-6.5-0.3-6.9,3.2c-0.3,3.2,3.3,3.9,5.8,5.1c0.6,0.3,1.2,0.6,1.8,0.9c1.6,2.5,2,5,0,7.5
	c-2,0.2-4,0.2-5.9,0.7c-1.9,0.5-4,1.4-4.1,3.8c-0.1,2.3,2,2.8,3.5,3.7c1.2,0.6,2.5,1,3.7,1.5c-5.3,4-5.1,5,1.8,8.9
	c1.3,1.8,0.5,3.5,0,5.2c-1.6,5.7-4.7,10.6-8.4,15.2c-2.5,3.1-4.7,6.4-5.6,10.5c-1.3,6.1,2.2,10.9,8.4,11.5
	c5.9,0.6,11.5-1.2,17.2-2.2c8.1-1.5,18.6,3.3,23.1,10.6c-7,13.2-16.4,24.5-28,33.9c-2.1-9.6-9.9-12-17.9-13.9
	c-14.2-3.5-18.7-8.8-21-23.3c-1.6-10,2-18.8,5.2-27.8C494.7,497,491.5,493.8,491.1,491.3z"/>
<path class="st5" d="M324,650.2c5.6-0.4,10.2-0.6,14.8-1.9c1.7-0.5,3.2-1.3,3.6-3.1c0.5-2.1-1.3-2.7-3-3.5
	c4.9-1,149.9-2.3,161.9-0.9c-8.1,2.1-16.2,4.2-24.4,6.2c-49.1,11.9-98.7,21.8-148.8,28.8c-6,0.8-6,0.9-5.6-5.2
	c0.1-1.2,0.3-2.3,0.2-3.5c-0.1-3.8,0.9-5.9,5.3-4.1c2.1,0.9,5,1.1,6.2-1.5c1.2-2.6-0.8-4.4-2.7-5.9C329.4,653.8,327,652.3,324,650.2
	z"/>
<path class="st4" d="M477.3,267.2c-5,9.3-12.1,14.9-21.5,16.8c-21.4,4.3-41.7,1-60.4-10.6c-1.7-1-3.2-2.2-4.8-4.5
	c7.3-0.6,14.5-1.5,21.8-1.6c3.8-0.1,5.2-1.2,5.5-5c0.5-7,1.5-13.9,2.4-20.8c0.3-2.2-0.2-3.6-2.3-4.9c-10.2-6.3-14.4-15.8-14-27.5
	c0.1-2.6-0.6-4.8-2-7c-2.3-3.6-3.6-7.5-2.8-11.9c0.5-2.9,2.1-4.4,5.2-4.1c3.4,0.2,3.4,2.4,3.2,4.9c-0.4,5.5-0.7,11-1.1,16.4
	c-1.1,15.6,7.9,27.9,22.9,31.1c6.6,1.4,13.3,1.6,19.9,0.1c16.8-3.8,27.1-21.1,23.7-39.5c-0.6-3.1-1.2-6.2-1.7-9.3
	c-0.2-1.5-1.5-3.3,1-4.2c2.3-0.9,4.6-1,6.4,1.1c2.4,2.9,2.5,6.4,0.6,9.3c-3,4.6-3.2,9.6-3.7,14.8c-1,11.3-6.4,20.2-15.9,26.3
	c-2.1,1.3-2.6,2.6-2.1,4.9c1.6,7.3,3.2,14.6,4.5,22c0.5,2.6,1.5,3.3,4,3.2C469.5,267.1,473,267.2,477.3,267.2z"/>
<path class="st5" d="M620.1,300.3c13.9-22.2,20.4-46.8,22.4-72.6c2.7-35.4,0.7-70.5-8.4-104.9c-9.6-36.4-29.8-66.1-60.9-88
	c-21.7-15.2-45-23.5-71.8-16.3c-4.2,1.1-8.6,0.8-12.9,0.3c7.5-6.5,16.7-8.6,26.2-9.6c16.5-1.7,31.5,3.2,46,10.5
	c38.8,19.7,62.9,51.6,76.6,92.2c11.4,33.9,14.6,68.8,13.5,104.3c-0.8,23.9-4.1,47.3-13.4,69.6c-2.9,7.1-6.4,13.9-11.4,20.5
	C623.9,304.2,622,302.2,620.1,300.3z"/>
<path class="st4" d="M317.3,470.1c-0.7-0.3-1.3-0.5-1.9-0.8c-15.2-7.1-28.3-16.8-38.9-29.8c-4.5-5.5-4.4-5.7,0.7-11.1
	c12.7-13.5,26.9-24.7,44.8-30.7c3.5-1.2,5.1-0.3,6.8,2.6c3.5,5.8,5,11,1.5,17.9c-7.6,15-10.9,31.3-11.2,48.2
	C319.1,467.7,320.2,470,317.3,470.1z"/>
<path class="st5" d="M328.2,284c-16.5,5.1-32.8,10.7-49.7,14.6c-20.1,4.6-40.2,9.5-61.1,7.6c-5.3-0.5-10.6-1.1-15.3-3.9
	c-5-2.9-6.1-7-3.4-12.3c2.1-4.1,4.6-8.1,5.8-12.7c1.8-6.9,0.1-13.5-1.4-20.2c-4.2-19.5-6.4-39.1-3.6-58.9c0.8-5.6,2.1-11.1,6.8-15.1
	c-2.8,16.8-4.7,33.5-2.9,50.6c2.2,21.3,11,39.1,26.8,53.5c8.6,7.8,19.1,9.6,30.2,9.3c18.7-0.5,36.2-6.4,53.8-11.8
	c4.9-1.5,9.8-3,15.4-4.8C328.9,281.6,328.6,282.8,328.2,284z"/>
<path class="st5" d="M204.6,458c-12.6,62.4-0.2,116.8,50.6,159c5.2,4.4,10.7,8.5,15.2,13.6c1.7,1.9,4.1,3.7,2.4,6.9
	c-35-16.3-58.7-43.1-71.6-79.1c-12-33.2-12.5-67.1-3.6-101.1c0.2-1,0.7-1.9,1.1-2.8C200.9,455.3,203,456.2,204.6,458z"/>
<path class="st5" d="M551.2,529.1c-2.6-1.8-5.2-3.6-7.7-5.5c-5.8-4.4-12-5.1-18.8-3.1c-4.7,1.4-9.4,2.2-14.3,1.7
	c-6.6-0.6-10.6-6-9.5-12.5c0.8-4.4,3.1-8,5.8-11.4c4.8-5.9,8.3-12.4,9.6-20c6,2.1,12.2,3.8,18.4,5.8c-3.2,0-6.3-0.1-9.5,0
	c-2.5,0.2-5.5,0.3-6,3.3c-0.6,3.3,2.6,3.9,4.8,4.7c6.2,2.2,12.6,2.6,19.1,3c5.8,0.3,11.6,0.7,17.4,0.8c2.6,0,3.5,0.8,2.7,3.4
	C560.4,509.7,557,519.9,551.2,529.1z"/>
<path class="st5" d="M250.5,367c-8.8,5.8-16.6,12.7-23.1,21.1c-19,24.6-12.6,58.7,4.8,78.2c12.6,14.2,29.1,21.8,46.6,27.7
	c8.5,2.9,17.2,5.1,25,9.9c3.8,2.3,7.9,4.7,7.3,10.2c-18.7-5-36-13.5-52.9-22.8c-12.7-7-25-14.6-34.9-25.5
	c-28.1-31-20.2-78.6,16.2-99.2C243.5,364.5,246.9,365.9,250.5,367z"/>
<path class="st4" d="M458.9,200.1c-4.4,1.1-7.6,4.5-11.4,6.6c-5.3,3-10.7,3.8-16.1,0.4c1.6-1.7,3.6-0.7,5.4-0.9
	c-1.2-0.2-2.6-0.2-3.8-0.8c-2.8-1.4-3-3.4-0.5-5.2c5.6-4.1,5.6-4.1,3.6-10.8c1.8,6.8,1.9,7.3-3.8,10.3c-4.6,2.4-0.5,5.1-0.8,7.5
	c-4.5-0.9-9-2-13.6-2.8c-2.7-0.5-5.5-0.4-8.7,0.6c0.6-8.8,1.2-17.1,1.7-25.3c0.1-2.2,1.1-2.6,3.1-2.8c16-0.8,30.5-5.7,42.6-16.7
	c1.6-1.4,6.7,1.6,7.4,4.9c2.1,11.2,3.9,22.4,5.8,33.7c0,0.1-0.2,0.2-0.4,0.3c-1.9-1.2-4.3,0.4-6-1.1c0-0.3-0.1-0.5-0.1-0.6
	c3.7-6.4,1.7-9.8-5.9-10c-0.3,0-0.7,0-1,0c-3.6,0.5-8.4,0.3-8.8,4.6c-0.4,4.3,4.4,4.5,7.6,5.7C456.6,198.2,459,197.3,458.9,200.1z"
	/>
<path class="st5" d="M395.5,316.9c-2.2-3.1-4.1-6.5-6.6-9.3c-7.2-8-5.6-17-3.7-27.2c18,24.4,39.5,44.3,62,63.7
	c-7.8-0.1-15.3,1.9-23,1.1c-3.7-0.7-5.9-3.7-8.5-5.9c-6.2-5.3-11.8-11.2-17.4-17.2C397.1,320.6,395.9,319,395.5,316.9z"/>
<path class="st7" d="M651.5,425.4c1.2-8.4,3.5-16.5,3.7-25c1.1-51.2-26.8-93.5-75.2-114.1c-9.8-4.2-19.9-7.5-30.5-9.2
	c-0.4-6.1-0.4-6.2,5.7-5c69.8,14.6,101.9,68.1,105.5,117.5C661.6,402.4,659.7,414.8,651.5,425.4z"/>
<path class="st5" d="M516.7,443.1c0.1-1,0.4-2,0.3-3c-1.3-17,9.6-24.2,23.4-29c3.3-1.1,6.7-2.1,10.2-2.2c5,7.5,8.1,15.8,10.2,24.7
	c-2.2-2.6-4.3-5.3-6.5-7.9c-2.8-3.2-5.5-2.6-7,1.4c-1,2.8-0.5,5.6,0.6,8.3c1.4,3.7,3,7.4,4.2,11.2c0.8,2.5,0,3.8-3,3.1
	c-7.9-1.8-16-3.2-23.9-5.2C522.4,443.8,519.3,445.1,516.7,443.1z"/>
<path class="st4" d="M516.1,295.6c-0.6,4.2-2.1,7.6-1.9,11.3c0.1,2.1,0.5,4.1,2.6,5c2.2,0.9,3.7-0.4,5.2-1.9c1.8-1.8,2.7-6.6,6.7-2
	c1.2,1.3,3.1-0.4,4.1-1.8c2.2-3.1,4.5-6.2,6.2-9.6c1.5-2.9,3.4-1.8,5.4-1.4c3,0.6,1.5,2.7,1.4,4.3c-0.4,7.2-4.1,10.5-11.4,12.2
	c-16.4,3.8-32.6,8.9-49.7,13.7c2-8.9,3.8-17.1,5.8-25.3c0.5-2.1,3-2.5,4.5-3.8c2-1.7,4.2-3.2,6.3-5c0.9-0.8,2.9-1.6,1.6-3
	c-1.2-1.4-2.3,0.4-3.2,1.1c-3.8,2.9-7.3,6.1-13,8.3c3.2-6.9,7.2-11.6,12.9-14.9c2.7-1.6,5.3,0,7.3,1.8c2.5,2.2-0.8,3.3-1.5,4.8
	c-1.7,3.4-3.8,6.6-5.6,10c-1,1.8-1.4,4,0.5,5.5c1.7,1.4,3.6,0.4,5.1-0.7C508.9,301.4,512.3,298.7,516.1,295.6z"/>
<path class="st4" d="M575.2,418.9c9.3,9.5,18.5,18,30.7,22.7c1.3,0.5,2.1,1.4,2.5,2.8c1.5,5.7,3.2,11.4,4.9,17.5
	c-12.2-1.2-23-4.9-33.2-10.8c-1.3-0.8-1.9-1.8-2-3.2C577,438.3,576.1,428.6,575.2,418.9z"/>
<path class="st8" d="M421,347c-6.2,0.5-12,2.4-17.8,4.5c-2.6,0.9-3.8,0.4-5.2-1.8c-4.9-7.3-9.5-14.9-12.8-23
	c-2.8-7-1.2-14.4-1.9-22.8c4.4,5.2,6.9,10.4,11.1,14.3c3.2,1,4.1,4.2,6.2,6.3c6.5,6.2,12.7,12.7,19.7,18.4
	C421.2,343.6,424.8,344.9,421,347z"/>
<path class="st9" d="M680.9,498.4c0.3-6.1,2.4-11.9,2.5-18c0.5-25.5-8.4-48-21.9-69.1c0.7-4.2,1.5-8.5,2.3-13.2
	c3,3.8,4.8,8.1,6.8,12.1c7.5,15.2,14.2,30.7,18,47.3C691.8,472.2,689,485.8,680.9,498.4z"/>
<path class="st4" d="M516.6,305.4c1.7-8,3.8-16.4,8.6-23.7c1.4-2.1,3.4-3.2,6-2.5c3,0.8,5.2,1.4,2.4,5.5c-3.8,5.8-6.6,12.2-9.9,18.3
	c-0.9,1.6-1.9,3.1-3,4.6c-0.7,1-1.5,2.1-2.8,1.7C516.5,308.7,516.7,307.2,516.6,305.4z"/>
<path class="st4" d="M166.8,187c-4.2-9.9-4.6-19.8-0.9-29.8c0.7-1.8,2.3-3.1,4.3-2.4c2.4,0.7,1.4,2.7,1.1,4.2
	c-0.9,3.9-0.8,7.9-0.3,11.9C171.7,176.7,168.9,181.7,166.8,187z"/>
<path class="st10" d="M458.9,200.1c-2.2-2.1-5.3-0.8-7.9-1.9c-2.6-1.2-5.5-2.4-5.4-5.7c0.1-3,2.6-4.4,5.2-5.3
	c3.2-1.2,6.5-1.3,9.8-0.5c2.8,0.7,5.6,1.6,6.6,4.7c1.1,3.2-1.6,4.7-3.5,6.5c1.9,0.9,4.1-0.2,5.7,1.3
	C466,199.3,462.4,198.7,458.9,200.1z"/>
<path class="st4" d="M286.3,645.2c6.7,3.1,13.6,6,20.1,9.5c3.7,2,5.7,5.9,7.7,9.6c0.5,0.8,0.8,2-0.1,2.7c-0.9,0.7-1.9,0.2-2.7-0.4
	c-2.9-2-5.8-3.9-8.5-6.1c-5.7-4.8-11.3-9.7-17-14.6C285.9,645.7,286.1,645.5,286.3,645.2z"/>
<path class="st11" d="M384.4,331.5c4.6,7.6,8.1,14.2,12.5,20.1c1,1.4,0.3,2-1,2.5c-2.9,1.2-5.7,2.5-9.1,4.1
	C386,349.6,385.3,341.3,384.4,331.5z"/>
<path class="st4" d="M300.1,648.5c10.5,0.2,20.9,0.2,29.1,8.1c1,1,3,1.8,2.4,3.3c-0.8,1.8-2.7,0.5-4,0.2
	C318,657.3,309,653,300.1,648.5z"/>
<path class="st4" d="M502.4,302.2c2.2-7.4,6.3-13.5,11.5-18.9c1.9-2,4.3-1,6,0c2.2,1.3,0.1,3-0.5,4.1
	C515.6,294.4,508.8,297.9,502.4,302.2z"/>
<path class="st4" d="M505.2,210.9c0.2-1-0.6-2.6,1.2-2.7c1.3-0.1,1.3,1.4,1.3,2.3c0.7,9.8,6.3,16.4,13.9,21.9
	c4.5,3.2,8.2,7.3,9.5,13c0.3,1.2,0.9,3-0.9,3.4c-1.6,0.4-1.6-1.4-1.8-2.4c-1.3-6.9-6.7-10.5-11.7-14.3
	C509.8,226.6,505.9,219.7,505.2,210.9z"/>
<path class="st4" d="M463.4,67.2c2.2-9.7,7-17.7,11.4-26.4C476.5,54.1,472.7,62.9,463.4,67.2z"/>
<path class="st4" d="M406.1,169.5c2.2-3.2,4.4-2.8,6.1-3c14-2,26.7-6.6,35.9-18c0.6-0.8,1.3-1.8,2.4-0.9c1.1,0.9,0.1,1.8-0.4,2.6
	c-4.1,5.4-9.3,9.4-15.3,12.4C426.1,166.8,417,169,406.1,169.5z"/>
<path class="st12" d="M517.4,459.8c0-2.5,0-5,0-7.5c8.9,2.9,17.7,5.7,26.6,8.6c-0.1,0.4-0.2,0.8-0.3,1.3
	C534.9,461.4,526.2,460.6,517.4,459.8z"/>
<path class="st11" d="M433,221.4c6.2-2.1,12-4.1,18-6.1c1,4,0.3,7.3-3.1,9.6C444.1,227.4,439,226.3,433,221.4z"/>
<path class="st4" d="M475.3,33.5c-6.1,8.7-6.6,21.3-18.9,25.8C460.3,49.1,467.7,41.3,475.3,33.5z"/>
<path class="st13" d="M452.3,316.4c-21.2-7.8-40.1-19.1-56.1-35.2c0.4-0.4,0.8-0.8,1.2-1.1c16.1,15.2,34.3,27.1,54.9,35.1
	C452.7,315.6,452.7,316,452.3,316.4z"/>
<path class="st14" d="M486.7,116.8c0,3.3,0,6.7,0,10c0,1.4,0,2.9-1.9,2.8c-1.7-0.1-2-1.5-2-2.9c0-6.8,0-13.6,0-20.4
	c0-1.4,0.5-2.1,2-2.1c1.6,0,1.9,0.8,1.9,2.2C486.6,109.8,486.7,113.3,486.7,116.8z"/>
<path class="st4" d="M473.8,29.5c-13.6,17.1-14.5,17.8-21.9,17.6C458.2,39.4,466,34.4,473.8,29.5z"/>
<path class="st4" d="M160.5,162.9c0.9,8.8,0.1,17-8.1,23.8C153.8,177.5,155.4,169.6,160.5,162.9z"/>
<path class="st15" d="M513.5,369.5c-9.3-5.3-19.6-8.1-29.4-12c0.9-2.8,2.4-3.4,5.3-2.1c7.4,3.2,14.6,6.7,21.4,11.1
	C511.8,367.3,513.7,367.5,513.5,369.5z"/>
<path class="st16" d="M421,347c2.6-2.2-0.4-2.7-1.2-3.4c-8.7-7.2-16.8-14.9-24.1-23.5c-0.5-0.6-0.9-1.3-1.4-2
	c0.4-0.4,0.8-0.8,1.1-1.2c8.8,10.2,18.5,19.5,28.7,28.3C423.3,346,422.8,347.6,421,347z"/>
<path class="st4" d="M503,221.9c-0.4,8.3,4.9,12.4,10.8,16.3c2.3,1.5,3.5,4,4.3,6.6c0.3,1,0.7,2.1-0.6,2.6c-1.3,0.5-1.7-0.7-1.9-1.6
	c-1-4.1-4.2-6.2-7.3-8.4C502.1,233,500.1,227.9,503,221.9z"/>
<path class="st4" d="M424.7,156.6c-0.9,0.1-1.8,0.1-2-0.8c-0.4-1.4,0.9-1.5,1.8-1.7c7-1.6,14-3.4,17.9-10.4c0.3-0.6,1.2-0.8,1.6-0.2
	c0.3,0.4,0.4,1.3,0.2,1.8c-1.2,2.6-3.3,4.6-5.6,6.2C434.4,154.3,429.7,155.9,424.7,156.6z"/>
<path class="st17" d="M346.5,341.9c1.6,12.6,3.2,25.1,4.7,37.7c-0.4,0.1-0.9,0.1-1.3,0.2c-2.1-10.8-3.5-21.8-4.4-32.8
	C347,345.5,345.8,343.6,346.5,341.9z"/>
<path class="st18" d="M487.8,67.1c1.1-7.2-0.3-15,4.5-21.6C493.8,53.3,489.7,59.9,487.8,67.1z"/>
<path class="st19" d="M361.6,313.9c0.7,6.7,1.4,13.4,2,20.1c-0.5,0.1-1,0.1-1.5,0.2c-1.1-5.3-1.5-10.7-1.6-16.1
	C361.7,316.9,360.9,315.2,361.6,313.9z"/>
<path class="st4" d="M143.4,60.2c-38.3,0-76.6,0-114.9,0.1c-3.7,0-5-0.8-4.8-4.7c0.3-5.1,0-10.3,0.1-15.5c0.2-6.2,3.1-9.1,9.2-9.5
	c1.3-0.1,2.7,0,4,0c71,0,141.9,0,212.9,0c10.9,0,12.8,2,12.8,12.8c0,4-0.3,8,0.1,12c0.4,4.1-1.2,4.9-5,4.9
	C219.7,60.1,181.5,60.2,143.4,60.2z"/>
<path class="st16" d="M113.5,62.2c8.3,0,16.7,0.1,25,0c3,0,4.1,0.9,4.1,4c-0.1,16.7-0.1,33.3,0,50c0,2.9-0.8,4.1-3.9,4.1
	c-16.8-0.1-33.6-0.1-50.5,0c-3.5,0-4.7-1.3-4.7-4.7c0.1-16.2,0.1-32.3,0-48.5c0-3.8,1.5-4.9,5.1-4.9
	C96.8,62.3,105.1,62.2,113.5,62.2z"/>
<path class="st20" d="M202.4,91.2c0,8.3-0.1,16.6,0.1,25c0.1,3-0.8,4.1-3.9,4.1c-16.8-0.1-33.6-0.1-50.4,0c-2.8,0-3.7-1-3.7-3.8
	c0.1-16.8,0.1-33.6,0-50.4c0-2.8,0.8-3.8,3.7-3.8c16.8,0.1,33.6,0.1,50.4,0c3.1,0,4,1.1,4,4.1C202.3,74.6,202.4,82.9,202.4,91.2z"/>
<path class="st21" d="M142.2,151.2c0,8.3-0.1,16.6,0.1,24.9c0.1,2.9-0.6,4.1-3.8,4.1c-16.8-0.1-33.6-0.1-50.4,0
	c-3.2,0-3.8-1.2-3.8-4.1c0.1-16.6,0.1-33.3,0-49.9c0-3.4,1.3-4.1,4.3-4.1c16.5,0.1,32.9,0.2,49.4,0c3.7,0,4.4,1.3,4.3,4.6
	C142,134.9,142.2,143.1,142.2,151.2z"/>
<path class="st22" d="M81.6,210.6c0,8.5-0.1,17,0.1,25.5c0.1,3.1-0.9,3.9-3.9,3.9c-16.7-0.1-33.3-0.2-50,0c-3.4,0-4.1-1.2-4.1-4.3
	c0.1-16.5,0.1-33,0-49.4c0-2.8,0.4-4.2,3.7-4.1c16.8,0.2,33.6,0.2,50.4,0c3.2,0,3.9,1.1,3.8,4C81.5,194.3,81.6,202.5,81.6,210.6z"/>
<path class="st23" d="M52.5,122.3c8.3,0,16.7,0.1,25,0c2.8,0,4.2,0.4,4.2,3.8c-0.1,16.8-0.1,33.6,0,50.5c0,2.9-1.1,3.7-3.8,3.6
	c-16.7-0.1-33.3-0.1-50,0c-3.3,0-4.3-1.2-4.2-4.4c0.1-16.5,0.1-33,0-49.4c0-3.5,1.3-4.1,4.4-4.1C36.2,122.4,44.3,122.3,52.5,122.3z"
	/>
<path class="st24" d="M262.6,91.1c0,8.3-0.1,16.6,0.1,25c0.1,3.3-1.1,4.2-4.3,4.2c-16.3-0.1-32.6-0.2-48.9,0c-3.3,0-4.2-1.1-4.2-4.3
	c0.1-16.5,0.1-32.9,0-49.4c0-3.3,1.1-4.3,4.3-4.2c16.3,0.1,32.6,0.1,48.9,0c3.4,0,4.3,1.2,4.2,4.4C262.4,74.8,262.6,83,262.6,91.1z"
	/>
<path class="st5" d="M139.2,448.6c-0.7,2.5-0.3,5.3-1.8,7.7c-1.5,0.3-2.6-0.6-3.5-1.6c-10.9-10.6-24.5-16.4-38.5-21.4
	c-9.5-3.5-19.2-6.6-28.9-9.4c-2.3-1.5-5.1-1.5-7.4-2.9c-3.8-2.8-9.1-4-10.8-9.4c2-3.6,5-6.3,8.3-8.7c16,9.8,35,11.3,51.7,19
	c10.3,4.7,19.7,10.5,26.9,19.3C137.2,443.4,138.6,445.8,139.2,448.6z"/>
<path class="st5" d="M61.3,441.1c13.5,9.7,27.1,19.1,41.6,27.2c3.8,2.2,8.3,3.5,11.3,6.9c2.7,2,4.9,4.3,4.4,8
	c-3.2,2.9-6.8,5-10.9,6.1c-5.4-4.3-9.6-10-15.3-14.1c-5.3-3.9-10.7-7.9-16.1-11.8c-6.5-4.6-13.6-5.7-21.3-4.7
	c-4.8,0.7-9.8,1.8-14.5-0.8c-2.3-5.2-2.9-10.8-2.7-16.4C45.6,441.3,53.4,439.2,61.3,441.1z"/>
<path class="st3" d="M66.1,422.4c15.5,5.3,31.4,9.3,46.2,16.5c9.3,4.5,18,9.8,25.1,17.5c0.1,1.9-0.9,3.5-1.5,5.2
	c-5.3,13-6.4,13.4-18.3,6.1c-4.1-3.6-7.2-8.2-11-12.1C95.7,444,83.6,434.3,69.7,427C67.8,426,65.5,425.3,66.1,422.4z"/>
<path class="st3" d="M139.2,448.6c-10.4-16.6-26.6-24.9-44.6-30.5c-8.7-2.7-17.5-5.2-26.2-8c-4.5-1.4-8.7-3.4-11.7-7.2
	c4.1-4,9.2-6.3,14.4-8.4c3.9,0.4,7.2,2.5,10.4,4.4c15.1,9.1,29.6,19,44.8,28c3.9,2.3,8.7,2.2,12.1,5.4
	C140.1,437.8,139.6,443.2,139.2,448.6z"/>
<path class="st3" d="M40.4,458c7,0.7,13.9-0.7,20.9-0.9c4.3-0.1,8.3,0.9,11.9,3.1c10.7,6.6,20.7,14,29.7,22.7c1.9,1.9,3.5,4,4.7,6.4
	c-5.3,2.6-11,3.9-16.9,3.7c-2.5-1.6-3.5-4.3-5-6.7c-5.1-8.3-11.4-15.3-20.1-20.2c-7.6-4.3-10.8-3.8-16.9,2.6
	c-0.7,0.7-1.3,1.5-2.4,1.6C43.4,466.7,41.3,462.7,40.4,458z"/>
<path class="st7" d="M66.1,422.4c0.5,2.4,2.8,2.7,4.4,3.6c17.2,9.4,31.8,21.8,44,37.1c1.1,1.4,2,3,2.9,4.6
	c-4.1-2.4-8.1-4.7-12.2-7.1C93.9,450,80.7,442.1,67,435c-7.5-4.8-14.3-10.6-21-16.4c-0.8-0.7-2.2-1.3-0.6-2.6c2.7-1.4,5.1,0,7.5,1
	c2.2,1,4.3,2.4,6.6,3.1C61.3,421.8,64.3,420.2,66.1,422.4z"/>
<path class="st7" d="M138.4,432.4c-7-0.8-12.8-4.4-18.6-7.9c-16.4-9.8-31.8-21-48.7-30c4.4-1.6,9-2.7,13.8-2.9
	c2.4-0.4,4.1,0.9,5.9,2.1c10.8,7.7,21.6,15.5,32.1,23.7c4.6,3.6,9.8,6.1,14.3,9.9C137.8,429,138.6,430.6,138.4,432.4z"/>
<path class="st3" d="M137.2,427.4c-4.3-1.1-7.8-3.6-11.2-6.2c-12-8.8-24-17.7-36-26.5c-1.6-1.2-3.4-2-5-3
	C108.5,389.7,130.9,405,137.2,427.4z"/>
<path class="st3" d="M83.4,492.9c-14.9-1.5-26.8-8.4-35.8-20.4c1.7-6.8,7.5-10.5,13.3-7.8c11.4,5.3,18.5,14.6,22.7,26.3
	C83.9,491.6,83.7,492.3,83.4,492.9z"/>
<path class="st25" d="M83.4,492.9c-3.4-9.1-8.6-17.1-16.4-23.2c-8.9-7-13.1-6.4-19.4,2.8c-0.4-0.7-0.9-1.4-1.3-2.1
	c6-9.4,11.8-10.6,21.2-4.7c10.6,6.7,17.8,16.2,23.2,27.3C88.3,493,85.9,493,83.4,492.9z"/>
<path class="st26" d="M61.3,441.1c-7.9,0.2-15.7,2.9-23.6,0.6c-0.2-4.7,0.7-9.3,2.1-13.7c1.9-1.3,3.8-1,5.7,0.1
	C50.7,432.3,56,436.7,61.3,441.1z"/>
<path class="st27" d="M67,435c14.8,5.5,27.9,13.4,38.3,25.5C91.9,453,79.2,444.4,67,435z"/>
<path class="st28" d="M118.6,483.3c-1.5-2.7-2.9-5.4-4.4-8c3.6,0,6.2,2.4,9.4,3.7C122.1,481.1,120.6,482.5,118.6,483.3z"/>
<path class="st29" d="M59.4,420.1c-4.7-1.4-9.4-2.7-14.1-4.1c0.6-1.8,1.6-3.2,3-4.4C51.5,415.1,55.6,417.5,59.4,420.1z"/>
<path class="st30" d="M45.5,428c-1.9,0-3.8,0-5.7-0.1c0.2-1.3,0.3-3.4,1.3-3.5C43.2,424.4,44.3,426.4,45.5,428z"/>
<path class="st31" d="M80.9,322c-3.4,4.4-8,5.9-13.4,4.9c-3.9-4.8-5.6-9.8-1.9-15.7c2.6-4.2,1.8-6-2.6-8.8c-0.7-0.4-1.4-0.8-1.8-1.6
	c6.1-4.1,11.5-4.1,17.3,0.1c1.9,5.3,2.3,10.3-2.5,14.6c-2.3,2.1-2.1,4.1,1.2,5C78.5,321,79.9,321,80.9,322z"/>
<path class="st8" d="M61.3,300.9c7.8,1.6,9.4,5.1,5.2,11.8c-2.2,3.5-2.6,6.6-0.2,10.1c0.8,1.2,1.5,2.6,1.3,4.2
	c-6.6-1.1-10.8-5-12.1-11.5C54.2,309.6,55.8,304.4,61.3,300.9z"/>
<path class="st32" d="M80.9,322c-1.6,0-3.3,0.3-4.9,0.1c-3-0.4-5-4.4-2.8-5.6c6.6-3.8,5.2-9.8,5.4-15.5
	C85.9,306.8,86.8,315,80.9,322z"/>
<path class="st7" d="M491.1,491.3c0.2,0.2,0.4,0.5,0.6,0.8c1.3,1.5,3.8,3,3,5c-0.8,1.9-3.5,0.4-5.3,0.9c-14.3-0.1-28.6-0.3-42.9-0.1
	c-4.2,0-5.3-1.1-4.2-5.2c2.1-7.7,6.9-12.7,14.6-14.8c8.1-2.1,15,0.4,20,6.7c2.3,2.9,4.5,4.5,8.1,4.4
	C487.4,488.9,489.1,490.5,491.1,491.3z"/>
<path class="st5" d="M439.4,398.1c-17.6,0-34.7,0-51.8,0c-2.6,0-3-0.9-2.6-3.3c1.1-7.6,6.8-14.4,14.2-16.4c8-2.2,16.6,0.5,21.3,7.1
	c1.8,2.6,3.6,3.7,6.8,3.6C432.7,389.1,436.5,392,439.4,398.1z"/>
<path class="st25" d="M559.5,619.3c-0.3,3-1.9,4.9-5.1,4.9c-3.5,0-5.3-1.9-5.2-5.3c0.1-3.2,1.8-5,5-5
	C557.7,613.9,559.3,615.8,559.5,619.3z"/>
<path class="st24" d="M452.3,316.4c0-0.4,0-0.8,0-1.2c5.7,1.9,11.3,3.7,17,5.6c-0.1,0.4-0.3,0.8-0.4,1.2
	C463.4,320.4,457.6,319.2,452.3,316.4z"/>
<path class="st33" d="M423.3,199c-6.1,0-11-2.9-11-6.4c0-3.6,4.8-6.4,11-6.4c6,0,11,2.9,11,6.4C434.4,195.9,429.2,199,423.3,199z"/>
<path class="st34" d="M431.5,207.2c-4.2-4.9-4-6.6,1.7-9c2.8-1.2,3-3.1,2.6-5.6c-0.3-2.4-2.3-4.5-1.3-7.2c5.5,3.9,5.2,12.4-0.3,15.2
	c-1,0.5-3,0.4-2.6,2.3c0.4,1.6,2,1.5,3.3,1.8c0.5,0.1,1,0,1.5,0.1c1.3,0.1,3.5-1.6,3.7,0.7c0.3,2.5-2.3,1.7-3.8,1.8
	c-1.6,0.2-3.3-0.1-5-0.2C431.4,207.1,431.5,207.2,431.5,207.2z"/>
<path class="st35" d="M425.6,179.1c1.2,0.2,3.2-0.5,3.6,1.4c0.4,1.8-1.5,2.4-2.9,2.9c-3.2,1.2-6.5,2.5-10,0.9c-1-0.4-1-1.2-0.5-2
	C416.7,180.7,421.9,179,425.6,179.1z"/>
<path class="st36" d="M459.2,184.4c-3,0-5.4-0.8-7.8-2.1c-1-0.6-2.2-1.2-1.9-2.5c0.3-1.3,1.6-1.4,2.8-1.5c2.7,0,5.2,0.6,7.6,1.8
	c1.4,0.7,3.6,1.2,3,3.2C462.4,185,460.4,184.2,459.2,184.4z"/>
<path class="st37" d="M454.8,196c2-2.2,2.4-4.4,0.2-6.8c3.6-0.8,6.6-0.4,9.1,1.8c0.8,0.7,1.2,1.7,0.4,2.6
	C462,196.4,458.7,196.5,454.8,196z"/>
<path class="st38" d="M38.3,44.6c-1.9-1.5-3.7-2.7-5.3-4.1c-0.8-0.7-2.1-1.6-0.7-2.8c1-0.8,1.7,0.4,2.4,1c0.6,0.5,1.3,1.1,1.8,1.8
	c2,2.8,4,3.1,6.1,0.1c0.4-0.5,0.9-1,1.4-1.4c1-0.7,1.8-2.6,3.1-1.2c1.2,1.3-0.5,2.5-1.4,3.2c-4,2.9-4.3,5.6,0,8.5
	c0.9,0.7,2.7,1.8,1.4,3.1c-1.3,1.3-2.5-0.4-3.1-1.4c-3-4.3-5.7-4-8.5,0c-0.7,1-1.9,2.7-3.2,1.4c-1.5-1.5,0.8-2.4,1.6-3.4
	C34.9,48,36.2,46.8,38.3,44.6z"/>
<path class="st39" d="M246.4,46.2c-2.6,1.2-0.2,3.7-1.9,5.5c-2.9-1.1-5-3.6-8.1-5.7c2.9-2.2,5.3-4,7.7-5.9c2.2,1.5-0.2,4.4,2.3,5.3
	l0.3,0.4L246.4,46.2z"/>
<path class="st40" d="M246.4,46.2c0-0.2,0-0.5,0-0.8c2.3-1.8,4.5-3.6,7.4-5.9c0,4.6,0,8.2,0,12.4C250.9,50.2,248.4,48.5,246.4,46.2z
	"/>
<path class="st37" d="M421.4,188.8c4.4,0.3,9.7-0.6,9.7,3.8c0,4.3-5.4,3.5-9.5,3.8C423.6,193.8,423.9,191.5,421.4,188.8z"/>
</svg>
