<?xml version="1.0" encoding="utf-8"?>
<!-- Generator: Adobe Illustrator 24.0.1, SVG Export Plug-In . SVG Version: 6.00 Build 0)  -->
<svg version="1.1" id="Layer_1" xmlns="http://www.w3.org/2000/svg" xmlns:xlink="http://www.w3.org/1999/xlink" x="0px" y="0px"
	 viewBox="0 0 70 52.96" style="enable-background:new 0 0 70 52.96;" xml:space="preserve">
<style type="text/css">
	.st0{fill:#FBDF3E;}
	.st1{fill:#231F20;}
</style>
<rect y="-0.22" class="st0" width="43.68" height="53.18"/>
<g>
	<path class="st1" d="M43.68,32.43v14.66h20.89l-7.96-5.59c4.52-2.17,7.89-7.05,7.96-12.53c0.1-7.71-6.07-14.01-13.52-14.01h-5.49
		l0,0H23.09c-4.27,0-7.73,3.4-7.73,7.59s3.46,7.59,7.73,7.59h20.6H45c3.09,0,6.21,2.69,6.18,6.3v1.26L43.68,32.43z"/>
	<g>
		<path class="st1" d="M34.25,31.85c4.27,0,7.74,3.4,7.74,7.59s-3.47,7.59-7.74,7.59h-19V31.84L34.25,31.85L34.25,31.85z"/>
	</g>
</g>
</svg>
