<?xml version="1.0" encoding="utf-8"?>
<!-- Generator: Adobe Illustrator 22.0.0, SVG Export Plug-In . SVG Version: 6.00 Build 0)  -->
<svg version="1.1" id="Layer_1" xmlns="http://www.w3.org/2000/svg" xmlns:xlink="http://www.w3.org/1999/xlink" x="0px" y="0px"
	 viewBox="0 0 807.9 541.7" style="enable-background:new 0 0 807.9 541.7;" xml:space="preserve">
<style type="text/css">
	.st0{fill:url(#SVGID_1_);}
	.st1{fill:url(#SVGID_2_);}
	.st2{fill:url(#SVGID_3_);}
	.st3{fill:#FCDF3E;}
	.st4{fill:#231F20;}
</style>
<text transform="matrix(1 0 0 1 -5704.125 -517.7423)" style="font-family:'Mirador-BoldDEMO'; font-size:138.4986px;">satraw.</text>
<linearGradient id="SVGID_1_" gradientUnits="userSpaceOnUse" x1="-5215.2847" y1="-764.5729" x2="-5400.459" y2="-764.5729">
	<stop  offset="0" style="stop-color:#FFF33B"/>
	<stop  offset="4.010540e-02" style="stop-color:#FEE72E"/>
	<stop  offset="0.1171" style="stop-color:#FED51B"/>
	<stop  offset="0.1964" style="stop-color:#FDCA10"/>
	<stop  offset="0.2809" style="stop-color:#FDC70C"/>
	<stop  offset="0.6685" style="stop-color:#F3903F"/>
	<stop  offset="0.8876" style="stop-color:#ED683C"/>
	<stop  offset="1" style="stop-color:#E93E3A"/>
</linearGradient>
<path class="st0" d="M-5215.5-777.3c3.7-68.6-50.9-124.9-119.6-124.9h-65.3c0,0-0.1,0-0.1,0.1v134.2c0,0,0,0.1,0.1,0.1h16.9
	c27.5,0,49.9,22.3,49.9,49.9v5.8c0,0.1-0.1,0.1-0.1,0.1l-66.6-47.8c0,0-0.1,0-0.1,0.1v132.7c0,0,0,0.1,0.1,0.1l184.9,0
	c0.1,0,0.1-0.1,0-0.1l-68.4-49.1c0,0,0-0.1,0-0.1C-5245.2-694.3-5217.9-732.5-5215.5-777.3z"/>
<g>
	<linearGradient id="SVGID_2_" gradientUnits="userSpaceOnUse" x1="-5699.7012" y1="-835.1351" x2="-5411.4209" y2="-835.1351">
		<stop  offset="0" style="stop-color:#FFF33B"/>
		<stop  offset="4.010540e-02" style="stop-color:#FEE72E"/>
		<stop  offset="0.1171" style="stop-color:#FED51B"/>
		<stop  offset="0.1964" style="stop-color:#FDCA10"/>
		<stop  offset="0.2809" style="stop-color:#FDC70C"/>
		<stop  offset="0.6685" style="stop-color:#F3903F"/>
		<stop  offset="0.8876" style="stop-color:#ED683C"/>
		<stop  offset="1" style="stop-color:#E93E3A"/>
	</linearGradient>
	<path class="st1" d="M-5630.8-902.5c-38,0-68.9,30.2-68.9,67.4c0,37.2,30.8,67.4,68.9,67.4h219.4v-134.8H-5630.8z"/>
	<linearGradient id="SVGID_3_" gradientUnits="userSpaceOnUse" x1="-5699.7012" y1="-692.3801" x2="-5411.4209" y2="-692.3801">
		<stop  offset="0" style="stop-color:#FFF33B"/>
		<stop  offset="4.010540e-02" style="stop-color:#FEE72E"/>
		<stop  offset="0.1171" style="stop-color:#FED51B"/>
		<stop  offset="0.1964" style="stop-color:#FDCA10"/>
		<stop  offset="0.2809" style="stop-color:#FDC70C"/>
		<stop  offset="0.6685" style="stop-color:#F3903F"/>
		<stop  offset="0.8876" style="stop-color:#ED683C"/>
		<stop  offset="1" style="stop-color:#E93E3A"/>
	</linearGradient>
	<path class="st2" d="M-5478.8-759.8h-220.9V-625h220.9c37.2,0,67.4-30.2,67.4-67.4S-5441.6-759.8-5478.8-759.8z"/>
</g>
<rect x="-1212.8" y="-277.8" class="st3" width="1080" height="1080"/>
<g>
	<g>
		<path d="M-4249.2,488c0,27.5-27.3,33.3-47.7,33.3c-12.9,0-23-2.1-32-5.6l-11.8,4.3h-4.3v-44.2h4.3l32.2,36.5
			c3,3.7,7.1,4.3,9.7,4.3c13.5,0,17.8-6.4,17.8-14.6c0-10.7-6.9-16.3-15.5-19.3l-18.3-6.4c-18.9-6.9-31.4-16.5-31.4-35
			c0-25.1,24.5-33.7,46-33.7c10.1,0,20.8,1.9,30.5,4.9l11.8-3.7h4.3v42.1h-4.3L-4290,415c-1.7-2.1-5.2-3.4-8.8-3.4
			c-11.8,0-16.5,7.3-16.5,16.8c0,9.7,4.9,14.4,17.6,18.9l18,6.4C-4261.6,460.3-4249.2,469.5-4249.2,488z"/>
		<path d="M-4115.8,504.1c-5.6,13.1-15.9,17.2-27.3,17.2c-9.2,0-23.4-4.3-26.4-23.2h-0.9c-2.6,11-11.2,23.2-32.4,23.2
			c-20.4,0-34.2-12.9-34.2-30.7c0-21.7,16.8-31.8,41.7-31.8h25.3v-31.6c0-7.9-5.2-14.8-14.8-15.5l-40.2,37.6h-4.7v-33.5
			c20-6.2,33.7-8.4,43.4-8.4c33.1,0,51.1,11.2,51.1,40.4v47.7c0,7.1,3.7,12,9,12c3,0,6-1.5,8.6-4.7L-4115.8,504.1z M-4169.9,482.6
			v-20.4l-10.1,1.1c-16.1,2.4-18.3,13.7-18.3,22.6c0,12,5.2,18.3,13.3,18.3S-4169.9,497.9-4169.9,482.6z"/>
		<path d="M-4032.9,486.3c-3,19.1-14,35-35.2,35c-19.1,0-34.6-12.7-34.6-36.7v-70h-13.5v-4.3h13.5l31.4-34.8h4.3v34.8h32.2v4.3
			h-32.2v71.5c0,10.1,5.6,16.8,13.7,16.8c8.8,0,13.7-6.4,16.5-17.4L-4032.9,486.3z"/>
		<path d="M-3926.1,410.2v44h-4.7l-26.6-29.2c-10.1,0-18.5,16.5-18.5,36.5v41.2l23.8,11.2v4.3h-75.4V514l15.7-11.4v-76.7l-15.7-11.4
			v-4.3h51.5v30.5c3.4-18.3,14.2-32.4,34.8-32.4C-3935.2,408.3-3929.8,409.2-3926.1,410.2z"/>
		<path d="M-3796.4,504.1c-5.6,13.1-15.9,17.2-27.3,17.2c-9.2,0-23.4-4.3-26.4-23.2h-0.9c-2.6,11-11.2,23.2-32.4,23.2
			c-20.4,0-34.2-12.9-34.2-30.7c0-21.7,16.8-31.8,41.7-31.8h25.3v-31.6c0-7.9-5.2-14.8-14.8-15.5l-40.2,37.6h-4.7v-33.5
			c20-6.2,33.7-8.4,43.4-8.4c33.1,0,51.1,11.2,51.1,40.4v47.7c0,7.1,3.7,12,9,12c3,0,6-1.5,8.6-4.7L-3796.4,504.1z M-3850.5,482.6
			v-20.4l-10.1,1.1c-16.1,2.4-18.3,13.7-18.3,22.6c0,12,5.2,18.3,13.3,18.3S-3850.5,497.9-3850.5,482.6z"/>
		<path d="M-3632.1,414.5l-12.7,11.4l-35.4,92.4h-12l-28.1-64.4l-25.6,64.4h-12l-39.5-90.2l-11.2-14.2v-3.7h54.3v3.7l-7.5,12.7
			l24.5,56.3h0.6l14-34.4l-8.6-19.3l-13.3-15.2v-3.7h57.6v3.7l-8.8,13.3l24.5,55.6h0.4l22.3-57.1l-13.5-11.2v-4.3h30.1V414.5z"/>
		<path d="M-3598,499.4c0,11.2-8.6,20-20.2,20c-11.8,0-20.2-8.8-20.2-20c0-11,8.4-20.2,20.2-20.2
			C-3606.6,479.2-3598,488.4-3598,499.4z"/>
	</g>
	<g>
		<path class="st4" d="M-3765.7,146.5c1-78.6-64.2-142.9-142.7-142.9l-77.7,0v160h20.2c32.7,0,59.3,26.5,59.3,59.3v12.9l-79.5-54
			v149.4l220.5,0l-84.1-57C-3802,252.1-3766.4,202.4-3765.7,146.5z"/>
		<g>
			<path class="st4" d="M-4265.5,3.6c-45.3,0-82,35.9-82,80.2c0,44.3,36.7,80.2,82,80.2h261.2V3.6H-4265.5z"/>
			<path class="st4" d="M-4085.7,181.9h-180.9c-44.7,0-80.9,36.2-80.9,80.9v79.5h263c44.7,0,80.8-36.5,80.2-81.3
				C-4004.9,216.9-4041.6,181.9-4085.7,181.9z"/>
		</g>
	</g>
</g>
<g>
	<g>
		<path d="M-3122.9,492c0,27.5-27.3,33.3-47.7,33.3c-12.9,0-23-2.1-32-5.6l-11.8,4.3h-4.3v-44.2h4.3l32.2,36.5
			c3,3.7,7.1,4.3,9.7,4.3c13.5,0,17.8-6.4,17.8-14.6c0-10.7-6.9-16.3-15.5-19.3l-18.3-6.4c-18.9-6.9-31.4-16.5-31.4-35
			c0-25.1,24.5-33.7,46-33.7c10.1,0,20.8,1.9,30.5,4.9l11.8-3.7h4.3v42.1h-4.3l-32.2-35.9c-1.7-2.1-5.2-3.4-8.8-3.4
			c-11.8,0-16.5,7.3-16.5,16.8c0,9.7,4.9,14.4,17.6,18.9l18,6.4C-3135.3,464.3-3122.9,473.5-3122.9,492z"/>
		<path d="M-2989.5,508.1c-5.6,13.1-15.9,17.2-27.3,17.2c-9.2,0-23.4-4.3-26.4-23.2h-0.9c-2.6,11-11.2,23.2-32.4,23.2
			c-20.4,0-34.2-12.9-34.2-30.7c0-21.7,16.8-31.8,41.7-31.8h25.3v-31.6c0-7.9-5.2-14.8-14.8-15.5l-40.2,37.6h-4.7v-33.5
			c20-6.2,33.7-8.4,43.4-8.4c33.1,0,51.1,11.2,51.1,40.4v47.7c0,7.1,3.7,12,9,12c3,0,6-1.5,8.6-4.7L-2989.5,508.1z M-3043.6,486.6
			v-20.4l-10.1,1.1c-16.1,2.4-18.3,13.7-18.3,22.6c0,12,5.2,18.3,13.3,18.3C-3050.5,508.1-3043.6,501.9-3043.6,486.6z"/>
		<path d="M-2906.6,490.3c-3,19.1-14,35-35.2,35c-19.1,0-34.6-12.7-34.6-36.7v-70h-13.5v-4.3h13.5l31.4-34.8h4.3v34.8h32.2v4.3
			h-32.2v71.5c0,10.1,5.6,16.8,13.7,16.8c8.8,0,13.7-6.4,16.5-17.4L-2906.6,490.3z"/>
		<path d="M-2799.8,414.2v44h-4.7l-26.6-29.2c-10.1,0-18.5,16.5-18.5,36.5v41.2l23.8,11.2v4.3h-75.4V518l15.7-11.4v-76.7l-15.7-11.4
			v-4.3h51.5v30.5c3.4-18.3,14.2-32.4,34.8-32.4C-2808.9,412.3-2803.5,413.2-2799.8,414.2z"/>
		<path d="M-2670.1,508.1c-5.6,13.1-15.9,17.2-27.3,17.2c-9.2,0-23.4-4.3-26.4-23.2h-0.9c-2.6,11-11.2,23.2-32.4,23.2
			c-20.4,0-34.2-12.9-34.2-30.7c0-21.7,16.8-31.8,41.7-31.8h25.3v-31.6c0-7.9-5.2-14.8-14.8-15.5l-40.2,37.6h-4.7v-33.5
			c20-6.2,33.7-8.4,43.4-8.4c33.1,0,51.1,11.2,51.1,40.4v47.7c0,7.1,3.7,12,9,12c3,0,6-1.5,8.6-4.7L-2670.1,508.1z M-2724.2,486.6
			v-20.4l-10.1,1.1c-16.1,2.4-18.3,13.7-18.3,22.6c0,12,5.2,18.3,13.3,18.3C-2731.1,508.1-2724.2,501.9-2724.2,486.6z"/>
		<path d="M-2505.8,418.5l-12.7,11.4l-35.4,92.4h-12l-28.1-64.4l-25.6,64.4h-12l-39.5-90.2l-11.2-14.2v-3.7h54.3v3.7l-7.5,12.7
			l24.5,56.3h0.6l14-34.4l-8.6-19.3l-13.3-15.2v-3.7h57.6v3.7l-8.8,13.3l24.5,55.6h0.4l22.3-57.1l-13.5-11.2v-4.3h30.1V418.5z"/>
		<path d="M-2471.7,503.4c0,11.2-8.6,20-20.2,20c-11.8,0-20.2-8.8-20.2-20c0-11,8.4-20.2,20.2-20.2
			C-2480.3,483.2-2471.7,492.4-2471.7,503.4z"/>
	</g>
	<g>
		<path class="st4" d="M-2700.4,151.5c1-81.3-64.2-147.9-142.7-147.9l-77.7,0v165.6h20.2c32.7,0,59.3,27.5,59.3,61.3v13.3
			l-79.5-55.8v154.6l220.5,0l-84.1-58.9C-2736.7,260.8-2701.1,209.3-2700.4,151.5z"/>
		<g>
			<path class="st4" d="M-3139.2,3.6c-45.3,0-82,35.9-82,80.2c0,44.3,36.7,80.2,82,80.2h201.2l0-160.4H-3139.2z"/>
		</g>
		<g>
			<path class="st4" d="M-3020,182.2c45.3,0,82,35.9,82,80.2c0,44.3-36.7,80.2-82,80.2h-201.2l0-160.4H-3020z"/>
		</g>
	</g>
</g>
<g>
	<g>
		<path d="M-2049.2,492c0,27.5-27.3,33.3-47.7,33.3c-12.9,0-23-2.1-32-5.6l-11.8,4.3h-4.3v-44.2h4.3l32.2,36.5
			c3,3.7,7.1,4.3,9.7,4.3c13.5,0,17.8-6.4,17.8-14.6c0-10.7-6.9-16.3-15.5-19.3l-18.3-6.4c-18.9-6.9-31.4-16.5-31.4-35
			c0-25.1,24.5-33.7,46-33.7c10.1,0,20.8,1.9,30.5,4.9l11.8-3.7h4.3v42.1h-4.3L-2090,419c-1.7-2.1-5.2-3.4-8.8-3.4
			c-11.8,0-16.5,7.3-16.5,16.8c0,9.7,4.9,14.4,17.6,18.9l18,6.4C-2061.6,464.3-2049.2,473.5-2049.2,492z"/>
		<path d="M-1915.8,508.1c-5.6,13.1-15.9,17.2-27.3,17.2c-9.2,0-23.4-4.3-26.4-23.2h-0.9c-2.6,11-11.2,23.2-32.4,23.2
			c-20.4,0-34.2-12.9-34.2-30.7c0-21.7,16.8-31.8,41.7-31.8h25.3v-31.6c0-7.9-5.2-14.8-14.8-15.5l-40.2,37.6h-4.7v-33.5
			c20-6.2,33.7-8.4,43.4-8.4c33.1,0,51.1,11.2,51.1,40.4v47.7c0,7.1,3.7,12,9,12c3,0,6-1.5,8.6-4.7L-1915.8,508.1z M-1969.9,486.6
			v-20.4l-10.1,1.1c-16.1,2.4-18.3,13.7-18.3,22.6c0,12,5.2,18.3,13.3,18.3S-1969.9,501.9-1969.9,486.6z"/>
		<path d="M-1832.9,490.3c-3,19.1-14,35-35.2,35c-19.1,0-34.6-12.7-34.6-36.7v-70h-13.5v-4.3h13.5l31.4-34.8h4.3v34.8h32.2v4.3
			h-32.2v71.5c0,10.1,5.6,16.8,13.7,16.8c8.8,0,13.7-6.4,16.5-17.4L-1832.9,490.3z"/>
		<path d="M-1726.1,414.2v44h-4.7l-26.6-29.2c-10.1,0-18.5,16.5-18.5,36.5v41.2l23.8,11.2v4.3h-75.4V518l15.7-11.4v-76.7l-15.7-11.4
			v-4.3h51.5v30.5c3.4-18.3,14.2-32.4,34.8-32.4C-1735.2,412.3-1729.8,413.2-1726.1,414.2z"/>
		<path d="M-1596.4,508.1c-5.6,13.1-15.9,17.2-27.3,17.2c-9.2,0-23.4-4.3-26.4-23.2h-0.9c-2.6,11-11.2,23.2-32.4,23.2
			c-20.4,0-34.2-12.9-34.2-30.7c0-21.7,16.8-31.8,41.7-31.8h25.3v-31.6c0-7.9-5.2-14.8-14.8-15.5l-40.2,37.6h-4.7v-33.5
			c20-6.2,33.7-8.4,43.4-8.4c33.1,0,51.1,11.2,51.1,40.4v47.7c0,7.1,3.7,12,9,12c3,0,6-1.5,8.6-4.7L-1596.4,508.1z M-1650.5,486.6
			v-20.4l-10.1,1.1c-16.1,2.4-18.3,13.7-18.3,22.6c0,12,5.2,18.3,13.3,18.3S-1650.5,501.9-1650.5,486.6z"/>
		<path d="M-1432.1,418.5l-12.7,11.4l-35.4,92.4h-12l-28.1-64.4l-25.6,64.4h-12l-39.5-90.2l-11.2-14.2v-3.7h54.3v3.7l-7.5,12.7
			l24.5,56.3h0.6l14-34.4l-8.6-19.3l-13.3-15.2v-3.7h57.6v3.7l-8.8,13.3l24.5,55.6h0.4l22.3-57.1l-13.5-11.2v-4.3h30.1V418.5z"/>
		<path d="M-1398,503.4c0,11.2-8.6,20-20.2,20c-11.8,0-20.2-8.8-20.2-20c0-11,8.4-20.2,20.2-20.2
			C-1406.6,483.2-1398,492.4-1398,503.4z"/>
	</g>
	<g>
		<path class="st4" d="M-1626.7,151.5c1-81.3-64.2-147.9-142.7-147.9l-77.7,0v165.6h20.2c32.7,0,59.3,27.5,59.3,61.3v13.3
			l-79.5-55.8v154.6l220.5,0l-84.1-58.9C-1663,260.8-1627.4,209.3-1626.7,151.5z"/>
		<g>
			<path class="st4" d="M-2065.5,3.6c-45.3,0-82,35.9-82,80.2c0,44.3,36.7,80.2,82,80.2h201.2l0-160.4H-2065.5z"/>
		</g>
		<g>
			<path class="st4" d="M-1946.3,182.2c45.3,0,82,35.9,82,80.2c0,44.3-36.7,80.2-82,80.2h-201.2l0-79.4c0-44.8,36.3-81,81.1-81
				H-1946.3z"/>
		</g>
	</g>
</g>
<g>
	<g>
		<path d="M-949.2,490c0,27.5-27.3,33.3-47.7,33.3c-12.9,0-23-2.1-32-5.6l-11.8,4.3h-4.3v-44.2h4.3l32.2,36.5c3,3.7,7.1,4.3,9.7,4.3
			c13.5,0,17.8-6.4,17.8-14.6c0-10.7-6.9-16.3-15.5-19.3l-18.3-6.4c-18.9-6.9-31.4-16.5-31.4-35c0-25.1,24.5-33.7,46-33.7
			c10.1,0,20.8,1.9,30.5,4.9l11.8-3.7h4.3v42.1h-4.3L-990,417c-1.7-2.1-5.2-3.4-8.8-3.4c-11.8,0-16.5,7.3-16.5,16.8
			c0,9.7,4.9,14.4,17.6,18.9l18,6.4C-961.6,462.3-949.2,471.5-949.2,490z"/>
		<path d="M-815.8,506.1c-5.6,13.1-15.9,17.2-27.3,17.2c-9.2,0-23.4-4.3-26.4-23.2h-0.9c-2.6,11-11.2,23.2-32.4,23.2
			c-20.4,0-34.2-12.9-34.2-30.7c0-21.7,16.8-31.8,41.7-31.8h25.3v-31.6c0-7.9-5.2-14.8-14.8-15.5l-40.2,37.6h-4.7v-33.5
			c20-6.2,33.7-8.4,43.4-8.4c33.1,0,51.1,11.2,51.1,40.4v47.7c0,7.1,3.7,12,9,12c3,0,6-1.5,8.6-4.7L-815.8,506.1z M-869.9,484.6
			v-20.4l-10.1,1.1c-16.1,2.4-18.3,13.7-18.3,22.6c0,12,5.2,18.3,13.3,18.3C-876.8,506.1-869.9,499.9-869.9,484.6z"/>
		<path d="M-732.9,488.3c-3,19.1-14,35-35.2,35c-19.1,0-34.6-12.7-34.6-36.7v-70h-13.5v-4.3h13.5l31.4-34.8h4.3v34.8h32.2v4.3H-767
			v71.5c0,10.1,5.6,16.8,13.7,16.8c8.8,0,13.7-6.4,16.5-17.4L-732.9,488.3z"/>
		<path d="M-626.1,412.2v44h-4.7l-26.6-29.2c-10.1,0-18.5,16.5-18.5,36.5v41.2l23.8,11.2v4.3h-75.4V516l15.7-11.4v-76.7l-15.7-11.4
			v-4.3h51.5v30.5c3.4-18.3,14.2-32.4,34.8-32.4C-635.2,410.3-629.8,411.2-626.1,412.2z"/>
		<path d="M-496.4,506.1c-5.6,13.1-15.9,17.2-27.3,17.2c-9.2,0-23.4-4.3-26.4-23.2h-0.9c-2.6,11-11.2,23.2-32.4,23.2
			c-20.4,0-34.2-12.9-34.2-30.7c0-21.7,16.8-31.8,41.7-31.8h25.3v-31.6c0-7.9-5.2-14.8-14.8-15.5l-40.2,37.6h-4.7v-33.5
			c20-6.2,33.7-8.4,43.4-8.4c33.1,0,51.1,11.2,51.1,40.4v47.7c0,7.1,3.7,12,9,12c3,0,6-1.5,8.6-4.7L-496.4,506.1z M-550.5,484.6
			v-20.4l-10.1,1.1c-16.1,2.4-18.3,13.7-18.3,22.6c0,12,5.2,18.3,13.3,18.3C-557.4,506.1-550.5,499.9-550.5,484.6z"/>
		<path d="M-332.1,416.5l-12.7,11.4l-35.4,92.4h-12l-28.1-64.4l-25.6,64.4h-12l-39.5-90.2l-11.2-14.2v-3.7h54.3v3.7l-7.5,12.7
			l24.5,56.3h0.6l14-34.4l-8.6-19.3l-13.3-15.2v-3.7h57.6v3.7l-8.8,13.3l24.5,55.6h0.4l22.3-57.1l-13.5-11.2v-4.3h30.1V416.5z"/>
		<path d="M-298,501.4c0,11.2-8.6,20-20.2,20c-11.8,0-20.2-8.8-20.2-20c0-11,8.4-20.2,20.2-20.2C-306.6,481.2-298,490.4-298,501.4z"
			/>
	</g>
	<g>
		<path class="st4" d="M-747.1,186v154.6h220.5l-84.1-58.9c47.7-22.9,83.3-74.4,84-132.3c1-81.3-64.2-147.9-142.7-147.9h-57.8v0
			l-238.3,0c-45.3,0-82,35.9-82,80.2c0,44.3,36.7,80.2,82,80.2h218.4h14c32.7,0,65.8,28.4,65.5,66.5v13.3L-747.1,186z"/>
		<g>
			<path class="st4" d="M-846.3,180.2c45.3,0,82,35.9,82,80.2c0,44.3-36.7,80.2-82,80.2h-201.2l0-160.4H-846.3z"/>
		</g>
	</g>
</g>
<g>
	<path class="st4" d="M465.5,290.6v233.9h333.4l-127.1-89.2c72.2-34.6,126-112.5,127.1-200c1.6-123-97-223.6-215.9-223.6h-87.4v0
		l-360.5,0c-68.5,0-124,54.3-124,121.3c0,67,55.5,121.3,124,121.3h330.4h21.2c49.5,0,99.6,43,99.1,100.6V375L465.5,290.6z"/>
	<g>
		<path class="st4" d="M315.4,281.7c68.5,0,124,54.3,124,121.3c0,67-55.5,121.3-124,121.3H11.1l0-242.7H315.4z"/>
	</g>
</g>
<path class="st4" d="M-637.8-1676.9c1-81.3-64.2-147.9-142.7-147.9h-77.7v160.4h14c32.7,0,65.8,28.4,65.5,66.5v13.3l-79.5-55.8
	v154.6h220.5l-84.1-58.9C-674.1-1567.5-638.6-1619-637.8-1676.9z"/>
<g>
	<path class="st4" d="M-1076.7-1824.8c-45.3,0-82,35.9-82,80.2c0,44.3,36.7,80.2,82,80.2h238l0.3-160.4L-1076.7-1824.8z"/>
</g>
<g>
	<path class="st4" d="M-957.5-1646.1c45.3,0,82,35.9,82,80.2c0,44.3-36.7,80.2-82,80.2h-201.2l0-160.4H-957.5z"/>
</g>
<text transform="matrix(1 0 0 1 -1232.7555 -1237.8348)" style="font-family:'MyriadPro-Regular'; font-size:180px;">Original Icon</text>
</svg>
